ZillaSlab-Italic.ufo
<glyph name="exclam" format="1">
  <advance width="237"/>
  <unicode hex="0021"/>
  <outline>
    <contour>
      <point x="199" y="650" type="line"/>
      <point x="136" y="192" type="line"/>
      <point x="83" y="192" type="line"/>
      <point x="117" y="650" type="line"/>
    </contour>
    <contour>
      <point x="48" y="0" type="line"/>
      <point x="135" y="0" type="line"/>
      <point x="146" y="97" type="line"/>
      <point x="58" y="97" type="line"/>
    </contour>
  </outline>
</glyph>
<glyph name="quotesingle" format="1">
  <advance width="190"/>
  <unicode hex="0027"/>
  <outline>
    <contour>
      <point x="136" y="377" type="line"/>
      <point x="169" y="650" type="line"/>
      <point x="99" y="650" type="line"/>
      <point x="74" y="377" type="line"/>
    </contour>
  </outline>
</glyph>
<glyph name="parenleft" format="1">
  <advance width="273"/>
  <unicode hex="0028"/>
  <outline>
    <contour>
      <point x="245" y="718" type="curve"/>
      <point x="311" y="718" type="line"/>
      <point x="170" y="557"/>
      <point x="97" y="392"/>
      <point x="97" y="212" type="curve" smooth="yes"/>
      <point x="97" y="79"/>
      <point x="136" y="-66"/>
      <point x="216" y="-183" type="curve"/>
      <point x="148" y="-183" type="line"/>
      <point x="71" y="-60"/>
      <point x="37" y="79"/>
      <point x="37" y="208" type="curve" smooth="yes"/>
      <point x="37" y="385"/>
      <point x="101" y="552"/>
    </contour>
  </outline>
</glyph>
<glyph name="parenright" format="1">
  <advance width="272"/>
  <unicode hex="0029"/>
  <outline>
    <contour>
      <point x="25" y="-183" type="curve"/>
      <point x="-41" y="-183" type="line"/>
      <point x="100" y="-22"/>
      <point x="173" y="143"/>
      <point x="173" y="323" type="curve" smooth="yes"/>
      <point x="173" y="456"/>
      <point x="134" y="601"/>
      <point x="54" y="718" type="curve"/>
      <point x="122" y="718" type="line"/>
      <point x="199" y="595"/>
      <point x="233" y="456"/>
      <point x="233" y="327" type="curve" smooth="yes"/>
      <point x="233" y="150"/>
      <point x="169" y="-17"/>
    </contour>
  </outline>
</glyph>
<glyph name="asterisk" format="1">
  <advance width="407"/>
  <unicode hex="002A"/>
  <outline>
    <contour>
      <point x="390" y="556" type="line"/>
      <point x="267" y="489" type="line"/>
      <point x="376" y="424" type="line"/>
      <point x="342" y="379" type="line"/>
      <point x="243" y="449" type="line"/>
      <point x="235" y="333" type="line"/>
      <point x="182" y="333" type="line"/>
      <point x="198" y="449" type="line"/>
      <point x="84" y="379" type="line"/>
      <point x="61" y="424" type="line"/>
      <point x="183" y="489" type="line"/>
      <point x="75" y="556" type="line"/>
      <point x="107" y="601" type="line"/>
      <point x="207" y="529" type="line"/>
      <point x="216" y="650" type="line"/>
      <point x="269" y="650" type="line"/>
      <point x="252" y="530" type="line"/>
      <point x="365" y="601" type="line"/>
    </contour>
  </outline>
</glyph>
<glyph name="plus" format="1">
  <advance width="414"/>
  <unicode hex="002B"/>
  <outline>
    <contour>
      <point x="35" y="254" type="line"/>
      <point x="181" y="254" type="line"/>
      <point x="166" y="108" type="line"/>
      <point x="218" y="108" type="line"/>
      <point x="233" y="254" type="line"/>
      <point x="375" y="254" type="line"/>
      <point x="380" y="308" type="line"/>
      <point x="239" y="308" type="line"/>
      <point x="255" y="455" type="line"/>
      <point x="203" y="455" type="line"/>
      <point x="187" y="308" type="line"/>
      <point x="40" y="308" type="line"/>
    </contour>
  </outline>
</glyph>
<glyph name="hyphen" format="1">
  <advance width="342"/>
  <unicode hex="002D"/>
  <unicode hex="00AD"/>
  <outline>
    <contour>
      <point x="55" y="261" type="line"/>
      <point x="283" y="261" type="line"/>
      <point x="277" y="200" type="line"/>
      <point x="49" y="200" type="line"/>
    </contour>
  </outline>
</glyph>
<glyph name="slash" format="1">
  <advance width="376"/>
  <unicode hex="002F"/>
  <outline>
    <contour>
      <point x="377" y="688" type="line"/>
      <point x="89" y="0" type="line"/>
      <point x="24" y="0" type="line"/>
      <point x="310" y="688" type="line"/>
    </contour>
  </outline>
</glyph>
<glyph name="three" format="1">
  <advance width="504"/>
  <unicode hex="0033"/>
  <outline>
    <contour>
      <point x="137" y="362" type="line"/>
      <point x="164" y="444" type="line"/>
      <point x="193" y="459"/>
      <point x="230" y="468"/>
      <point x="256" y="468" type="curve" smooth="yes"/>
      <point x="332" y="468"/>
      <point x="369" y="432"/>
      <point x="369" y="374" type="curve" smooth="yes"/>
      <point x="369" y="318"/>
      <point x="334" y="243"/>
      <point x="196" y="236" type="curve"/>
      <point x="191" y="182" type="line"/>
      <point x="318" y="178"/>
      <point x="363" y="138"/>
      <point x="363" y="68" type="curve" smooth="yes"/>
      <point x="363" y="4"/>
      <point x="331" y="-78"/>
      <point x="212" y="-78" type="curve" smooth="yes"/>
      <point x="130" y="-78"/>
      <point x="94" y="-33"/>
      <point x="80" y="20" type="curve"/>
      <point x="22" y="0" type="line"/>
      <point x="30" y="-79"/>
      <point x="89" y="-141"/>
      <point x="210" y="-141" type="curve" smooth="yes"/>
      <point x="348" y="-141"/>
      <point x="440" y="-56"/>
      <point x="440" y="69" type="curve" smooth="yes"/>
      <point x="440" y="132"/>
      <point x="408" y="196"/>
      <point x="306" y="214" type="curve"/>
      <point x="306" y="218" type="line"/>
      <point x="413" y="250"/>
      <point x="446" y="319"/>
      <point x="446" y="388" type="curve" smooth="yes"/>
      <point x="446" y="481"/>
      <point x="371" y="531"/>
      <point x="276" y="531" type="curve" smooth="yes"/>
      <point x="210" y="531"/>
      <point x="147" y="504"/>
      <point x="109" y="479" type="curve"/>
      <point x="81" y="369" type="line"/>
    </contour>
  </outline>
</glyph>
<glyph name="four" format="1">
  <advance width="529"/>
  <unicode hex="0034"/>
  <outline>
    <contour>
      <point x="360" y="-131" type="line"/>
      <point x="378" y="36" type="line"/>
      <point x="473" y="36" type="line"/>
      <point x="488" y="98" type="line"/>
      <point x="384" y="98" type="line"/>
      <point x="428" y="521" type="line"/>
      <point x="276" y="521" type="line"/>
      <point x="3" y="98" type="line"/>
      <point x="4" y="36" type="line"/>
      <point x="307" y="36" type="line"/>
      <point x="289" y="-131" type="line"/>
    </contour>
    <contour>
      <point x="313" y="98" type="line"/>
      <point x="71" y="98" type="line"/>
      <point x="301" y="458" type="line"/>
      <point x="351" y="458" type="line"/>
    </contour>
  </outline>
</glyph>
<glyph name="semicolon" format="1">
  <advance width="232"/>
  <unicode hex="003B"/>
  <outline>
    <contour>
      <point x="-6" y="-102" type="line"/>
      <point x="62" y="-102" type="line"/>
      <point x="136" y="114" type="line"/>
      <point x="68" y="114" type="line"/>
    </contour>
    <contour>
      <point x="88" y="343" type="line"/>
      <point x="181" y="343" type="line"/>
      <point x="191" y="444" type="line"/>
      <point x="98" y="444" type="line"/>
    </contour>
  </outline>
</glyph>
<glyph name="less" format="1">
  <advance width="397"/>
  <unicode hex="003C"/>
  <outline>
    <contour>
      <point x="314" y="14" type="line"/>
      <point x="321" y="83" type="line"/>
      <point x="105" y="280" type="line"/>
      <point x="361" y="480" type="line"/>
      <point x="370" y="549" type="line"/>
      <point x="30" y="289" type="line"/>
      <point x="28" y="269" type="line"/>
    </contour>
  </outline>
</glyph>
<glyph name="greater" format="1">
  <advance width="398"/>
  <unicode hex="003E"/>
  <outline>
    <contour>
      <point x="368" y="269" type="line"/>
      <point x="371" y="289" type="line"/>
      <point x="86" y="549" type="line"/>
      <point x="78" y="480" type="line"/>
      <point x="295" y="280" type="line"/>
      <point x="37" y="83" type="line"/>
      <point x="30" y="14" type="line"/>
    </contour>
  </outline>
</glyph>
<glyph name="at" format="1">
  <advance width="891"/>
  <unicode hex="0040"/>
  <outline>
    <contour>
      <point x="617" y="307" type="curve"/>
      <point x="596" y="134" type="line" smooth="yes"/>
      <point x="596" y="131"/>
      <point x="594" y="118"/>
      <point x="594" y="111" type="curve" smooth="yes"/>
      <point x="593" y="75"/>
      <point x="607" y="40"/>
      <point x="652" y="40" type="curve" smooth="yes"/>
      <point x="748" y="40"/>
      <point x="787" y="179"/>
      <point x="787" y="296" type="curve" smooth="yes"/>
      <point x="787" y="529"/>
      <point x="634" y="599"/>
      <point x="490" y="599" type="curve" smooth="yes"/>
      <point x="261" y="599"/>
      <point x="91" y="425"/>
      <point x="91" y="188" type="curve" smooth="yes"/>
      <point x="91" y="-31"/>
      <point x="236" y="-147"/>
      <point x="415" y="-147" type="curve" smooth="yes"/>
      <point x="489" y="-147"/>
      <point x="571" y="-126"/>
      <point x="633" y="-85" type="curve"/>
      <point x="653" y="-130" type="line"/>
      <point x="583" y="-174"/>
      <point x="495" y="-202"/>
      <point x="404" y="-202" type="curve" smooth="yes"/>
      <point x="190" y="-202"/>
      <point x="32" y="-46"/>
      <point x="32" y="183" type="curve" smooth="yes"/>
      <point x="32" y="440"/>
      <point x="230" y="654"/>
      <point x="488" y="654" type="curve" smooth="yes"/>
      <point x="658" y="654"/>
      <point x="848" y="556"/>
      <point x="848" y="312" type="curve" smooth="yes"/>
      <point x="848" y="176"/>
      <point x="789" y="-10"/>
      <point x="635" y="-10" type="curve" smooth="yes"/>
      <point x="564" y="-10"/>
      <point x="527" y="36"/>
      <point x="524" y="90" type="curve"/>
      <point x="495" y="36"/>
      <point x="449" y="-10"/>
      <point x="373" y="-10" type="curve" smooth="yes"/>
      <point x="275" y="-10"/>
      <point x="223" y="63"/>
      <point x="223" y="178" type="curve" smooth="yes"/>
      <point x="223" y="292"/>
      <point x="276" y="454"/>
      <point x="430" y="454" type="curve" smooth="yes"/>
      <point x="496" y="454"/>
      <point x="543" y="423"/>
      <point x="562" y="369" type="curve"/>
      <point x="568" y="394"/>
      <point x="574" y="420"/>
      <point x="582" y="445" type="curve"/>
      <point x="648" y="445" type="line"/>
      <point x="635" y="401"/>
      <point x="622" y="349"/>
    </contour>
    <contour>
      <point x="435" y="397" type="curve" smooth="yes"/>
      <point x="328" y="397"/>
      <point x="296" y="276"/>
      <point x="296" y="188" type="curve" smooth="yes"/>
      <point x="296" y="96"/>
      <point x="331" y="47"/>
      <point x="393" y="47" type="curve" smooth="yes"/>
      <point x="466" y="47"/>
      <point x="517" y="120"/>
      <point x="532" y="180" type="curve"/>
      <point x="545" y="281" type="line"/>
      <point x="545" y="349"/>
      <point x="501" y="397"/>
    </contour>
  </outline>
</glyph>
<glyph name="B" format="1">
  <advance width="588"/>
  <unicode hex="0042"/>
  <outline>
    <contour>
      <point x="368" y="650" type="line" smooth="yes"/>
      <point x="487" y="650"/>
      <point x="545" y="595"/>
      <point x="545" y="512" type="curve" smooth="yes"/>
      <point x="545" y="431"/>
      <point x="492" y="368"/>
      <point x="422" y="354" type="curve"/>
      <point x="421" y="350" type="line"/>
      <point x="503" y="336"/>
      <point x="540" y="277"/>
      <point x="540" y="203" type="curve" smooth="yes"/>
      <point x="540" y="93"/>
      <point x="458" y="0"/>
      <point x="308" y="0" type="curve" smooth="yes"/>
      <point x="13" y="0" type="line"/>
      <point x="19" y="64" type="line"/>
      <point x="98" y="64" type="line"/>
      <point x="153" y="586" type="line"/>
      <point x="74" y="586" type="line"/>
      <point x="81" y="650" type="line"/>
    </contour>
    <contour>
      <point x="302" y="64" type="line" smooth="yes"/>
      <point x="399" y="64"/>
      <point x="464" y="114"/>
      <point x="464" y="201" type="curve" smooth="yes"/>
      <point x="464" y="267"/>
      <point x="427" y="306"/>
      <point x="350" y="306" type="curve" smooth="yes"/>
      <point x="194" y="306" type="line"/>
      <point x="168" y="64" type="line"/>
    </contour>
    <contour>
      <point x="326" y="366" type="line" smooth="yes"/>
      <point x="408" y="366"/>
      <point x="469" y="414"/>
      <point x="469" y="491" type="curve" smooth="yes"/>
      <point x="469" y="560"/>
      <point x="425" y="586"/>
      <point x="352" y="586" type="curve" smooth="yes"/>
      <point x="223" y="586" type="line"/>
      <point x="200" y="366" type="line"/>
    </contour>
  </outline>
</glyph>
<glyph name="F" format="1">
  <advance width="544"/>
  <unicode hex="0046"/>
  <outline>
    <contour>
      <point x="537" y="462" type="line"/>
      <point x="536" y="650" type="line"/>
      <point x="80" y="650" type="line"/>
      <point x="73" y="586" type="line"/>
      <point x="153" y="586" type="line"/>
      <point x="98" y="64" type="line"/>
      <point x="19" y="64" type="line"/>
      <point x="12" y="0" type="line"/>
      <point x="275" y="0" type="line"/>
      <point x="282" y="64" type="line"/>
      <point x="169" y="64" type="line"/>
      <point x="190" y="269" type="line"/>
      <point x="483" y="269" type="line"/>
      <point x="490" y="333" type="line"/>
      <point x="197" y="333" type="line"/>
      <point x="224" y="586" type="line"/>
      <point x="466" y="586" type="line"/>
      <point x="472" y="456" type="line"/>
    </contour>
  </outline>
</glyph>
<glyph name="G" format="1">
  <advance width="675"/>
  <unicode hex="0047"/>
  <outline>
    <contour>
      <point x="647" y="270" type="line"/>
      <point x="654" y="335" type="line"/>
      <point x="380" y="335" type="line"/>
      <point x="373" y="270" type="line"/>
      <point x="526" y="270" type="line"/>
      <point x="520" y="212" type="line" smooth="yes"/>
      <point x="511" y="134"/>
      <point x="440" y="56"/>
      <point x="321" y="56" type="curve" smooth="yes"/>
      <point x="196" y="56"/>
      <point x="117" y="143"/>
      <point x="117" y="296" type="curve" smooth="yes"/>
      <point x="117" y="477"/>
      <point x="229" y="594"/>
      <point x="389" y="594" type="curve" smooth="yes"/>
      <point x="462" y="594"/>
      <point x="510" y="570"/>
      <point x="541" y="547" type="curve"/>
      <point x="551" y="455" type="line"/>
      <point x="612" y="462" type="line"/>
      <point x="608" y="584" type="line"/>
      <point x="564" y="629"/>
      <point x="484" y="660"/>
      <point x="393" y="660" type="curve" smooth="yes"/>
      <point x="185" y="660"/>
      <point x="43" y="498"/>
      <point x="43" y="291" type="curve" smooth="yes"/>
      <point x="43" y="118"/>
      <point x="143" y="-10"/>
      <point x="304" y="-10" type="curve" smooth="yes"/>
      <point x="396" y="-10"/>
      <point x="472" y="32"/>
      <point x="514" y="89" type="curve"/>
      <point x="514" y="0" type="line"/>
      <point x="569" y="0" type="line"/>
      <point x="597" y="270" type="line"/>
    </contour>
  </outline>
</glyph>
<glyph name="M" format="1">
  <advance width="856"/>
  <unicode hex="004D"/>
  <outline>
    <contour>
      <point x="20" y="64" type="line"/>
      <point x="98" y="64" type="line"/>
      <point x="153" y="586" type="line"/>
      <point x="70" y="586" type="line"/>
      <point x="77" y="650" type="line"/>
      <point x="222" y="650" type="line"/>
      <point x="415" y="144" type="line"/>
      <point x="419" y="144" type="line"/>
      <point x="711" y="650" type="line"/>
      <point x="857" y="650" type="line"/>
      <point x="851" y="586" type="line"/>
      <point x="767" y="586" type="line"/>
      <point x="712" y="64" type="line"/>
      <point x="792" y="64" type="line"/>
      <point x="786" y="0" type="line"/>
      <point x="561" y="0" type="line"/>
      <point x="567" y="64" type="line"/>
      <point x="641" y="64" type="line"/>
      <point x="685" y="477" type="line"/>
      <point x="681" y="477" type="line"/>
      <point x="422" y="33" type="line"/>
      <point x="384" y="33" type="line"/>
      <point x="214" y="481" type="line"/>
      <point x="210" y="481" type="line"/>
      <point x="166" y="64" type="line"/>
      <point x="242" y="64" type="line"/>
      <point x="236" y="0" type="line"/>
      <point x="13" y="0" type="line"/>
    </contour>
  </outline>
</glyph>
<glyph name="V" format="1">
  <advance width="632"/>
  <unicode hex="0056"/>
  <outline>
    <contour>
      <point x="664" y="586" type="line"/>
      <point x="605" y="586" type="line"/>
      <point x="316" y="0" type="line"/>
      <point x="258" y="0" type="line"/>
      <point x="91" y="586" type="line"/>
      <point x="30" y="586" type="line"/>
      <point x="36" y="650" type="line"/>
      <point x="264" y="650" type="line"/>
      <point x="258" y="586" type="line"/>
      <point x="168" y="586" type="line"/>
      <point x="300" y="108" type="line"/>
      <point x="304" y="108" type="line"/>
      <point x="532" y="586" type="line"/>
      <point x="442" y="586" type="line"/>
      <point x="448" y="650" type="line"/>
      <point x="671" y="650" type="line"/>
    </contour>
  </outline>
</glyph>
<glyph name="X" format="1">
  <advance width="616"/>
  <unicode hex="0058"/>
  <outline>
    <contour>
      <point x="580" y="0" type="line"/>
      <point x="359" y="0" type="line"/>
      <point x="366" y="64" type="line"/>
      <point x="445" y="64" type="line"/>
      <point x="305" y="285" type="line"/>
      <point x="128" y="64" type="line"/>
      <point x="202" y="64" type="line"/>
      <point x="196" y="0" type="line"/>
      <point x="-22" y="0" type="line"/>
      <point x="-15" y="64" type="line"/>
      <point x="49" y="64" type="line"/>
      <point x="274" y="337" type="line"/>
      <point x="114" y="586" type="line"/>
      <point x="50" y="586" type="line"/>
      <point x="57" y="650" type="line"/>
      <point x="272" y="650" type="line"/>
      <point x="266" y="586" type="line"/>
      <point x="195" y="586" type="line"/>
      <point x="321" y="387" type="line"/>
      <point x="481" y="586" type="line"/>
      <point x="417" y="586" type="line"/>
      <point x="425" y="650" type="line"/>
      <point x="638" y="650" type="line"/>
      <point x="632" y="586" type="line"/>
      <point x="561" y="586" type="line"/>
      <point x="352" y="337" type="line"/>
      <point x="527" y="64" type="line"/>
      <point x="587" y="64" type="line"/>
    </contour>
  </outline>
</glyph>
<glyph name="backslash" format="1">
  <advance width="506"/>
  <unicode hex="005C"/>
  <outline>
    <contour>
      <point x="73" y="688" type="line"/>
      <point x="361" y="0" type="line"/>
      <point x="426" y="0" type="line"/>
      <point x="140" y="688" type="line"/>
    </contour>
  </outline>
</glyph>
<glyph name="bracketright" format="1">
  <advance width="279"/>
  <unicode hex="005D"/>
  <outline>
    <contour>
      <point x="244" y="750" type="line"/>
      <point x="72" y="750" type="line"/>
      <point x="66" y="698" type="line"/>
      <point x="178" y="698" type="line"/>
      <point x="88" y="-161" type="line"/>
      <point x="-24" y="-161" type="line"/>
      <point x="-30" y="-213" type="line"/>
      <point x="142" y="-213" type="line"/>
    </contour>
  </outline>
</glyph>
<glyph name="underscore" format="1">
  <advance width="527"/>
  <unicode hex="005F"/>
  <outline>
    <contour>
      <point x="16" y="-74" type="line"/>
      <point x="440" y="-74" type="line"/>
      <point x="435" y="-125" type="line"/>
      <point x="11" y="-125" type="line"/>
    </contour>
  </outline>
</glyph>
<glyph name="b" format="1">
  <advance width="504"/>
  <unicode hex="0062"/>
  <outline>
    <contour>
      <point x="49" y="670" type="line"/>
      <point x="70" y="688" type="line"/>
      <point x="194" y="688" type="line"/>
      <point x="153" y="357" type="line"/>
      <point x="183" y="410"/>
      <point x="227" y="454"/>
      <point x="303" y="454" type="curve" smooth="yes"/>
      <point x="405" y="454"/>
      <point x="461" y="379"/>
      <point x="461" y="265" type="curve" smooth="yes"/>
      <point x="461" y="150"/>
      <point x="408" y="-10"/>
      <point x="252" y="-10" type="curve" smooth="yes"/>
      <point x="185" y="-10"/>
      <point x="134" y="20"/>
      <point x="114" y="73" type="curve"/>
      <point x="109" y="49"/>
      <point x="102" y="25"/>
      <point x="95" y="0" type="curve"/>
      <point x="28" y="0" type="line"/>
      <point x="39" y="39"/>
      <point x="52" y="86"/>
      <point x="57" y="130" type="curve" smooth="yes"/>
      <point x="118" y="631" type="line"/>
      <point x="44" y="631" type="line"/>
    </contour>
    <contour>
      <point x="246" y="47" type="curve" smooth="yes"/>
      <point x="353" y="47"/>
      <point x="388" y="172"/>
      <point x="388" y="255" type="curve" smooth="yes"/>
      <point x="388" y="345"/>
      <point x="353" y="397"/>
      <point x="285" y="397" type="curve" smooth="yes"/>
      <point x="209" y="397"/>
      <point x="157" y="325"/>
      <point x="142" y="262" type="curve"/>
      <point x="130" y="165" type="line"/>
      <point x="130" y="98"/>
      <point x="178" y="47"/>
    </contour>
    <contour>
      <point x="223" y="566" type="move" name="top"/>
    </contour>
  </outline>
</glyph>
<glyph name="f" format="1">
  <advance width="306"/>
  <unicode hex="0066"/>
  <outline>
    <contour>
      <point x="289" y="698" type="curve" smooth="yes"/>
      <point x="197" y="698"/>
      <point x="139" y="638"/>
      <point x="126" y="531" type="curve" smooth="yes"/>
      <point x="115" y="445" type="line"/>
      <point x="50" y="445" type="line"/>
      <point x="27" y="425" type="line"/>
      <point x="23" y="388" type="line"/>
      <point x="108" y="388" type="line"/>
      <point x="53" y="-57" type="line" smooth="yes"/>
      <point x="44" y="-126"/>
      <point x="23" y="-166"/>
      <point x="-28" y="-166" type="curve" smooth="yes"/>
      <point x="-53" y="-166"/>
      <point x="-90" y="-155"/>
      <point x="-87" y="-82" type="curve"/>
      <point x="-142" y="-98" type="line"/>
      <point x="-143" y="-189"/>
      <point x="-90" y="-223"/>
      <point x="-24" y="-223" type="curve" smooth="yes"/>
      <point x="69" y="-223"/>
      <point x="108" y="-158"/>
      <point x="121" y="-58" type="curve" smooth="yes"/>
      <point x="176" y="388" type="line"/>
      <point x="285" y="388" type="line"/>
      <point x="308" y="409" type="line"/>
      <point x="313" y="445" type="line"/>
      <point x="183" y="445" type="line"/>
      <point x="194" y="534" type="line" smooth="yes"/>
      <point x="203" y="609"/>
      <point x="231" y="642"/>
      <point x="281" y="642" type="curve" smooth="yes"/>
      <point x="296" y="642"/>
      <point x="317" y="640"/>
      <point x="335" y="632" type="curve"/>
      <point x="345" y="556" type="line"/>
      <point x="402" y="563" type="line"/>
      <point x="396" y="667" type="line"/>
      <point x="362" y="692"/>
      <point x="327" y="698"/>
    </contour>
  </outline>
</glyph>
<glyph name="j" format="1">
  <advance width="245"/>
  <unicode hex="006A"/>
  <outline>
    <contour>
      <point x="24" y="426" type="line"/>
      <point x="46" y="445" type="line"/>
      <point x="193" y="445" type="line"/>
      <point x="136" y="-18" type="line" smooth="yes"/>
      <point x="120" y="-148"/>
      <point x="72" y="-219"/>
      <point x="-1" y="-223" type="curve" smooth="yes"/>
      <point x="-30" y="-224"/>
      <point x="-56" y="-216"/>
      <point x="-80" y="-205" type="curve"/>
      <point x="-77" y="-154" type="line"/>
      <point x="-8" y="-182"/>
      <point x="50" y="-162"/>
      <point x="68" y="-18" type="curve" smooth="yes"/>
      <point x="118" y="388" type="line"/>
      <point x="19" y="388" type="line"/>
    </contour>
    <contour>
      <point x="129" y="560" type="line"/>
      <point x="202" y="560" type="line"/>
      <point x="212" y="651" type="line"/>
      <point x="138" y="651" type="line"/>
    </contour>
  </outline>
</glyph>
<glyph name="m" format="1">
  <advance width="787"/>
  <unicode hex="006D"/>
  <outline>
    <contour>
      <point x="55" y="445" type="line"/>
      <point x="169" y="445" type="line"/>
      <point x="166" y="357" type="line"/>
      <point x="197" y="416"/>
      <point x="243" y="454"/>
      <point x="314" y="454" type="curve" smooth="yes"/>
      <point x="381" y="454"/>
      <point x="426" y="421"/>
      <point x="436" y="351" type="curve"/>
      <point x="465" y="413"/>
      <point x="513" y="454"/>
      <point x="586" y="454" type="curve" smooth="yes"/>
      <point x="670" y="454"/>
      <point x="724" y="400"/>
      <point x="710" y="285" type="curve" smooth="yes"/>
      <point x="682" y="57" type="line"/>
      <point x="757" y="57" type="line"/>
      <point x="752" y="17" type="line"/>
      <point x="730" y="0" type="line"/>
      <point x="608" y="0" type="line"/>
      <point x="640" y="264" type="line" smooth="yes"/>
      <point x="651" y="360"/>
      <point x="619" y="397"/>
      <point x="557" y="397" type="curve" smooth="yes"/>
      <point x="485" y="397"/>
      <point x="449" y="343"/>
      <point x="435" y="282" type="curve"/>
      <point x="401" y="0" type="line"/>
      <point x="334" y="0" type="line"/>
      <point x="366" y="264" type="line" smooth="yes"/>
      <point x="377" y="361"/>
      <point x="345" y="397"/>
      <point x="285" y="397" type="curve" smooth="yes"/>
      <point x="204" y="397"/>
      <point x="167" y="331"/>
      <point x="158" y="261" type="curve"/>
      <point x="157" y="262" type="line"/>
      <point x="126" y="0" type="line"/>
      <point x="59" y="0" type="line"/>
      <point x="106" y="388" type="line"/>
      <point x="28" y="388" type="line"/>
      <point x="33" y="426" type="line"/>
    </contour>
    <contour>
      <point x="239" y="566" type="move" name="top"/>
    </contour>
  </outline>
</glyph>
<glyph name="p" format="1">
  <advance width="520"/>
  <unicode hex="0070"/>
  <outline>
    <contour>
      <point x="202" y="-195" type="line"/>
      <point x="180" y="-213" type="line"/>
      <point x="-31" y="-213" type="line"/>
      <point x="-26" y="-175" type="line"/>
      <point x="-6" y="-156" type="line"/>
      <point x="40" y="-156" type="line"/>
      <point x="106" y="388" type="line"/>
      <point x="29" y="388" type="line"/>
      <point x="34" y="426" type="line"/>
      <point x="55" y="445" type="line"/>
      <point x="170" y="445" type="line"/>
      <point x="167" y="353" type="line"/>
      <point x="196" y="407"/>
      <point x="242" y="454"/>
      <point x="320" y="454" type="curve" smooth="yes"/>
      <point x="421" y="454"/>
      <point x="478" y="379"/>
      <point x="478" y="265" type="curve" smooth="yes"/>
      <point x="478" y="150"/>
      <point x="425" y="-10"/>
      <point x="268" y="-10" type="curve" smooth="yes"/>
      <point x="206" y="-10"/>
      <point x="157" y="17"/>
      <point x="134" y="64" type="curve"/>
      <point x="107" y="-156" type="line"/>
      <point x="206" y="-156" type="line"/>
    </contour>
    <contour>
      <point x="263" y="47" type="curve" smooth="yes"/>
      <point x="371" y="47"/>
      <point x="404" y="172"/>
      <point x="404" y="255" type="curve" smooth="yes"/>
      <point x="404" y="345"/>
      <point x="366" y="397"/>
      <point x="301" y="397" type="curve" smooth="yes"/>
      <point x="225" y="397"/>
      <point x="175" y="326"/>
      <point x="159" y="264" type="curve"/>
      <point x="147" y="165" type="line"/>
      <point x="147" y="99"/>
      <point x="194" y="47"/>
    </contour>
    <contour>
      <point x="255" y="566" type="move" name="top"/>
    </contour>
  </outline>
</glyph>
<glyph name="q" format="1">
  <advance width="502"/>
  <unicode hex="0071"/>
  <outline>
    <contour>
      <point x="432" y="-195" type="line"/>
      <point x="410" y="-213" type="line"/>
      <point x="205" y="-213" type="line"/>
      <point x="210" y="-175" type="line"/>
      <point x="231" y="-156" type="line"/>
      <point x="307" y="-156" type="line"/>
      <point x="336" y="87" type="line"/>
      <point x="304" y="34"/>
      <point x="255" y="-10"/>
      <point x="180" y="-10" type="curve" smooth="yes"/>
      <point x="83" y="-10"/>
      <point x="31" y="64"/>
      <point x="31" y="176" type="curve" smooth="yes"/>
      <point x="31" y="293"/>
      <point x="89" y="454"/>
      <point x="243" y="454" type="curve" smooth="yes"/>
      <point x="309" y="454"/>
      <point x="357" y="423"/>
      <point x="376" y="370" type="curve"/>
      <point x="382" y="395"/>
      <point x="388" y="420"/>
      <point x="396" y="445" type="curve"/>
      <point x="463" y="445" type="line"/>
      <point x="450" y="399"/>
      <point x="438" y="353"/>
      <point x="432" y="307" type="curve" smooth="yes"/>
      <point x="375" y="-156" type="line"/>
      <point x="437" y="-156" type="line"/>
    </contour>
    <contour>
      <point x="250" y="397" type="curve" smooth="yes"/>
      <point x="140" y="397"/>
      <point x="104" y="278"/>
      <point x="104" y="185" type="curve" smooth="yes"/>
      <point x="104" y="97"/>
      <point x="136" y="47"/>
      <point x="202" y="47" type="curve" smooth="yes"/>
      <point x="276" y="47"/>
      <point x="334" y="124"/>
      <point x="349" y="186" type="curve"/>
      <point x="360" y="282" type="line"/>
      <point x="360" y="348"/>
      <point x="312" y="397"/>
    </contour>
  </outline>
</glyph>
<glyph name="t" format="1">
  <advance width="343"/>
  <unicode hex="0074"/>
  <outline>
    <contour>
      <point x="28" y="425" type="line"/>
      <point x="51" y="445" type="line"/>
      <point x="106" y="445" type="line"/>
      <point x="120" y="565" type="line"/>
      <point x="144" y="588" type="line"/>
      <point x="191" y="588" type="line"/>
      <point x="173" y="445" type="line"/>
      <point x="325" y="445" type="line"/>
      <point x="320" y="409" type="line"/>
      <point x="297" y="388" type="line"/>
      <point x="166" y="388" type="line"/>
      <point x="136" y="137" type="line" smooth="yes"/>
      <point x="129" y="76"/>
      <point x="144" y="47"/>
      <point x="191" y="47" type="curve" smooth="yes"/>
      <point x="220" y="47"/>
      <point x="245" y="58"/>
      <point x="266" y="132" type="curve"/>
      <point x="316" y="115" type="line"/>
      <point x="293" y="29"/>
      <point x="256" y="-10"/>
      <point x="183" y="-10" type="curve" smooth="yes"/>
      <point x="100" y="-10"/>
      <point x="57" y="44"/>
      <point x="68" y="131" type="curve" smooth="yes"/>
      <point x="99" y="388" type="line"/>
      <point x="23" y="388" type="line"/>
    </contour>
  </outline>
</glyph>
<glyph name="bar" format="1">
  <advance width="230"/>
  <unicode hex="007C"/>
  <outline>
    <contour>
      <point x="193" y="730" type="line"/>
      <point x="108" y="-80" type="line"/>
      <point x="47" y="-80" type="line"/>
      <point x="132" y="730" type="line"/>
    </contour>
  </outline>
</glyph>
<glyph name="asciitilde" format="1">
  <advance width="603"/>
  <unicode hex="007E"/>
  <outline>
    <contour>
      <point x="402" y="200" type="curve" smooth="yes"/>
      <point x="462" y="200"/>
      <point x="511" y="235"/>
      <point x="562" y="312" type="curve"/>
      <point x="519" y="342" type="line"/>
      <point x="478" y="282"/>
      <point x="449" y="265"/>
      <point x="409" y="265" type="curve" smooth="yes"/>
      <point x="325" y="265"/>
      <point x="280" y="336"/>
      <point x="196" y="336" type="curve" smooth="yes"/>
      <point x="144" y="336"/>
      <point x="88" y="306"/>
      <point x="43" y="234" type="curve"/>
      <point x="82" y="207" type="line"/>
      <point x="121" y="261"/>
      <point x="154" y="271"/>
      <point x="186" y="271" type="curve" smooth="yes"/>
      <point x="269" y="271"/>
      <point x="311" y="200"/>
    </contour>
  </outline>
</glyph>
<glyph name="exclamdown" format="1">
  <advance width="219"/>
  <unicode hex="00A1"/>
  <outline>
    <contour>
      <point x="18" y="-202" type="line"/>
      <point x="81" y="256" type="line"/>
      <point x="134" y="256" type="line"/>
      <point x="100" y="-202" type="line"/>
    </contour>
    <contour>
      <point x="169" y="448" type="line"/>
      <point x="82" y="448" type="line"/>
      <point x="71" y="351" type="line"/>
      <point x="159" y="351" type="line"/>
    </contour>
  </outline>
</glyph>
<glyph name="sterling" format="1">
  <advance width="499"/>
  <unicode hex="00A3"/>
  <outline>
    <contour>
      <point x="48" y="281" type="line"/>
      <point x="113" y="281" type="line"/>
      <point x="119" y="334" type="line" smooth="yes"/>
      <point x="134" y="476"/>
      <point x="220" y="529"/>
      <point x="301" y="529" type="curve" smooth="yes"/>
      <point x="360" y="529"/>
      <point x="403" y="514"/>
      <point x="436" y="490" type="curve"/>
      <point x="440" y="373" type="line"/>
      <point x="382" y="366" type="line"/>
      <point x="374" y="455" type="line"/>
      <point x="352" y="468"/>
      <point x="330" y="472"/>
      <point x="308" y="472" type="curve" smooth="yes"/>
      <point x="240" y="472"/>
      <point x="198" y="436"/>
      <point x="188" y="335" type="curve" smooth="yes"/>
      <point x="183" y="281" type="line"/>
      <point x="358" y="281" type="line"/>
      <point x="353" y="235" type="line"/>
      <point x="178" y="235" type="line"/>
      <point x="175" y="197" type="line"/>
      <point x="170" y="151"/>
      <point x="154" y="90"/>
      <point x="95" y="56" type="curve"/>
      <point x="283" y="56" type="line" smooth="yes"/>
      <point x="342" y="56"/>
      <point x="374" y="85"/>
      <point x="399" y="116" type="curve"/>
      <point x="431" y="83" type="line"/>
      <point x="416" y="56"/>
      <point x="365" y="0"/>
      <point x="291" y="0" type="curve" smooth="yes"/>
      <point x="13" y="0" type="line"/>
      <point x="19" y="54" type="line"/>
      <point x="82" y="83"/>
      <point x="99" y="138"/>
      <point x="105" y="197" type="curve" smooth="yes"/>
      <point x="109" y="235" type="line"/>
      <point x="43" y="235" type="line"/>
    </contour>
  </outline>
</glyph>
<glyph name="brokenbar" format="1">
  <advance width="211"/>
  <unicode hex="00A6"/>
  <outline>
    <contour>
      <point x="184" y="730" type="line"/>
      <point x="152" y="426" type="line"/>
      <point x="91" y="426" type="line"/>
      <point x="123" y="730" type="line"/>
    </contour>
    <contour>
      <point x="131" y="224" type="line"/>
      <point x="99" y="-80" type="line"/>
      <point x="38" y="-80" type="line"/>
      <point x="70" y="224" type="line"/>
    </contour>
  </outline>
</glyph>
<glyph name="guillemotleft" format="1">
  <advance width="441"/>
  <unicode hex="00AB"/>
  <outline>
    <contour>
      <point x="208" y="25" type="line"/>
      <point x="107" y="271" type="line"/>
      <point x="259" y="511" type="line"/>
      <point x="200" y="511" type="line"/>
      <point x="40" y="271" type="line"/>
      <point x="149" y="25" type="line"/>
    </contour>
    <contour>
      <point x="369" y="25" type="line"/>
      <point x="269" y="271" type="line"/>
      <point x="420" y="511" type="line"/>
      <point x="360" y="511" type="line"/>
      <point x="200" y="271" type="line"/>
      <point x="309" y="25" type="line"/>
    </contour>
  </outline>
</glyph>
<glyph name="macron" format="1">
  <advance width="328"/>
  <unicode hex="00AF"/>
  <outline>
    <contour>
      <point x="106" y="621" type="line"/>
      <point x="346" y="621" type="line"/>
      <point x="340" y="564" type="line"/>
      <point x="100" y="564" type="line"/>
    </contour>
  </outline>
</glyph>
<glyph name="degree" format="1">
  <advance width="390"/>
  <unicode hex="00B0"/>
  <outline>
    <contour>
      <point x="202" y="342" type="curve" smooth="yes"/>
      <point x="304" y="342"/>
      <point x="376" y="420"/>
      <point x="376" y="518" type="curve" smooth="yes"/>
      <point x="376" y="597"/>
      <point x="326" y="660"/>
      <point x="236" y="660" type="curve" smooth="yes"/>
      <point x="136" y="660"/>
      <point x="61" y="582"/>
      <point x="61" y="484" type="curve" smooth="yes"/>
      <point x="61" y="403"/>
      <point x="113" y="342"/>
    </contour>
    <contour>
      <point x="208" y="395" type="curve"/>
      <point x="155" y="395"/>
      <point x="119" y="429"/>
      <point x="119" y="488" type="curve" smooth="yes"/>
      <point x="119" y="563"/>
      <point x="168" y="607"/>
      <point x="229" y="607" type="curve" smooth="yes"/>
      <point x="282" y="607"/>
      <point x="317" y="573"/>
      <point x="317" y="513" type="curve" smooth="yes"/>
      <point x="317" y="439"/>
      <point x="269" y="395"/>
    </contour>
  </outline>
</glyph>
<glyph name="plusminus" format="1">
  <advance width="444"/>
  <unicode hex="00B1"/>
  <outline>
    <contour>
      <point x="52" y="259" type="line"/>
      <point x="199" y="259" type="line"/>
      <point x="184" y="113" type="line"/>
      <point x="236" y="113" type="line"/>
      <point x="251" y="259" type="line"/>
      <point x="392" y="259" type="line"/>
      <point x="398" y="313" type="line"/>
      <point x="257" y="313" type="line"/>
      <point x="273" y="460" type="line"/>
      <point x="220" y="460" type="line"/>
      <point x="204" y="313" type="line"/>
      <point x="58" y="313" type="line"/>
    </contour>
    <contour>
      <point x="25" y="0" type="line"/>
      <point x="365" y="0" type="line"/>
      <point x="370" y="53" type="line"/>
      <point x="30" y="53" type="line"/>
    </contour>
  </outline>
</glyph>
<glyph name="twosuperior" format="1">
  <advance width="340"/>
  <unicode hex="00B2"/>
  <outline>
    <contour>
      <point x="126" y="667" type="line"/>
      <point x="146" y="723" type="line"/>
      <point x="164" y="735"/>
      <point x="181" y="740"/>
      <point x="203" y="740" type="curve" smooth="yes"/>
      <point x="250" y="740"/>
      <point x="266" y="718"/>
      <point x="266" y="690" type="curve" smooth="yes"/>
      <point x="266" y="612"/>
      <point x="145" y="528"/>
      <point x="52" y="456" type="curve"/>
      <point x="53" y="415" type="line"/>
      <point x="321" y="415" type="line"/>
      <point x="339" y="508" type="line"/>
      <point x="291" y="513" type="line"/>
      <point x="279" y="460" type="line"/>
      <point x="125" y="460" type="line"/>
      <point x="181" y="502"/>
      <point x="330" y="598"/>
      <point x="330" y="695" type="curve" smooth="yes"/>
      <point x="330" y="743"/>
      <point x="294" y="785"/>
      <point x="216" y="785" type="curve" smooth="yes"/>
      <point x="175" y="785"/>
      <point x="133" y="773"/>
      <point x="102" y="748" type="curve"/>
      <point x="83" y="672" type="line"/>
    </contour>
  </outline>
</glyph>
<glyph name="threesuperior" format="1">
  <advance width="336"/>
  <unicode hex="00B3"/>
  <outline>
    <contour>
      <point x="133" y="673" type="line"/>
      <point x="150" y="723" type="line"/>
      <point x="170" y="734"/>
      <point x="188" y="739"/>
      <point x="209" y="739" type="curve" smooth="yes"/>
      <point x="247" y="739"/>
      <point x="267" y="722"/>
      <point x="267" y="691" type="curve" smooth="yes"/>
      <point x="267" y="655"/>
      <point x="239" y="626"/>
      <point x="172" y="623" type="curve"/>
      <point x="168" y="585" type="line"/>
      <point x="239" y="583"/>
      <point x="264" y="563"/>
      <point x="264" y="525" type="curve" smooth="yes"/>
      <point x="264" y="486"/>
      <point x="236" y="453"/>
      <point x="183" y="453" type="curve" smooth="yes"/>
      <point x="132" y="453"/>
      <point x="107" y="485"/>
      <point x="104" y="517" type="curve"/>
      <point x="61" y="505" type="line"/>
      <point x="64" y="442"/>
      <point x="114" y="408"/>
      <point x="183" y="408" type="curve" smooth="yes"/>
      <point x="261" y="408"/>
      <point x="326" y="450"/>
      <point x="326" y="523" type="curve" smooth="yes"/>
      <point x="326" y="563"/>
      <point x="305" y="598"/>
      <point x="247" y="607" type="curve"/>
      <point x="247" y="609" type="line"/>
      <point x="306" y="626"/>
      <point x="329" y="664"/>
      <point x="329" y="701" type="curve" smooth="yes"/>
      <point x="329" y="753"/>
      <point x="284" y="784"/>
      <point x="221" y="784" type="curve" smooth="yes"/>
      <point x="183" y="784"/>
      <point x="138" y="773"/>
      <point x="106" y="747" type="curve"/>
      <point x="90" y="678" type="line"/>
    </contour>
  </outline>
</glyph>
<glyph name="acute" format="1">
  <advance width="431"/>
  <unicode hex="00B4"/>
  <outline>
    <contour>
      <point x="424" y="624" type="line"/>
      <point x="389" y="683" type="line"/>
      <point x="224" y="551" type="line"/>
      <point x="242" y="520" type="line"/>
    </contour>
  </outline>
</glyph>
<glyph name="paragraph" format="1">
  <advance width="606"/>
  <unicode hex="00B6"/>
  <outline>
    <contour>
      <point x="606" y="650" type="line"/>
      <point x="599" y="588" type="line"/>
      <point x="525" y="588" type="line"/>
      <point x="463" y="0" type="line"/>
      <point x="397" y="0" type="line"/>
      <point x="459" y="588" type="line"/>
      <point x="397" y="588" type="line"/>
      <point x="335" y="0" type="line"/>
      <point x="269" y="0" type="line"/>
      <point x="302" y="310" type="line"/>
      <point x="245" y="310" type="line" smooth="yes"/>
      <point x="133" y="310"/>
      <point x="50" y="352"/>
      <point x="50" y="464" type="curve" smooth="yes"/>
      <point x="50" y="566"/>
      <point x="128" y="650"/>
      <point x="287" y="650" type="curve" smooth="yes"/>
    </contour>
  </outline>
</glyph>
<glyph name="periodcentered" format="1">
  <advance width="216"/>
  <unicode hex="00B7"/>
  <outline>
    <contour>
      <point x="59" y="257" type="line"/>
      <point x="152" y="257" type="line"/>
      <point x="162" y="358" type="line"/>
      <point x="69" y="358" type="line"/>
    </contour>
  </outline>
</glyph>
<glyph name="onesuperior" format="1">
  <advance width="254"/>
  <unicode hex="00B9"/>
  <outline>
    <contour>
      <point x="54" y="460" type="line"/>
      <point x="126" y="460" type="line"/>
      <point x="155" y="734" type="line"/>
      <point x="82" y="734" type="line"/>
      <point x="86" y="779" type="line"/>
      <point x="217" y="779" type="line"/>
      <point x="183" y="460" type="line"/>
      <point x="255" y="460" type="line"/>
      <point x="250" y="415" type="line"/>
      <point x="48" y="415" type="line"/>
    </contour>
  </outline>
</glyph>
<glyph name="guillemotright" format="1">
  <advance width="442"/>
  <unicode hex="00BB"/>
  <outline>
    <contour>
      <point x="240" y="25" type="line"/>
      <point x="402" y="271" type="line"/>
      <point x="291" y="511" type="line"/>
      <point x="233" y="511" type="line"/>
      <point x="334" y="271" type="line"/>
      <point x="182" y="25" type="line"/>
    </contour>
    <contour>
      <point x="80" y="25" type="line"/>
      <point x="241" y="271" type="line"/>
      <point x="131" y="511" type="line"/>
      <point x="71" y="511" type="line"/>
      <point x="172" y="271" type="line"/>
      <point x="20" y="25" type="line"/>
    </contour>
  </outline>
</glyph>
<glyph name="onequarter" format="1">
  <advance width="691"/>
  <unicode hex="00BC"/>
  <outline>
    <contour>
      <point x="516" y="0" type="line"/>
      <point x="572" y="0" type="line"/>
      <point x="582" y="94" type="line"/>
      <point x="638" y="94" type="line"/>
      <point x="648" y="136" type="line"/>
      <point x="586" y="136" type="line"/>
      <point x="610" y="364" type="line"/>
      <point x="499" y="364" type="line"/>
      <point x="348" y="138" type="line"/>
      <point x="349" y="94" type="line"/>
      <point x="526" y="94" type="line"/>
    </contour>
    <contour>
      <point x="593" y="650" type="line"/>
      <point x="374" y="325" type="line"/>
      <point x="161" y="0" type="line"/>
      <point x="109" y="0" type="line"/>
      <point x="336" y="337" type="line"/>
      <point x="542" y="650" type="line"/>
    </contour>
    <contour>
      <point x="47" y="331" type="line"/>
      <point x="119" y="331" type="line"/>
      <point x="148" y="605" type="line"/>
      <point x="75" y="605" type="line"/>
      <point x="79" y="650" type="line"/>
      <point x="210" y="650" type="line"/>
      <point x="176" y="331" type="line"/>
      <point x="248" y="331" type="line"/>
      <point x="243" y="286" type="line"/>
      <point x="41" y="286" type="line"/>
    </contour>
    <contour>
      <point x="521" y="319" type="line"/>
      <point x="550" y="319" type="line"/>
      <point x="530" y="136" type="line"/>
      <point x="399" y="136" type="line"/>
    </contour>
  </outline>
</glyph>
<glyph name="questiondown" format="1">
  <advance width="431"/>
  <unicode hex="00BF"/>
  <outline>
    <contour>
      <point x="306" y="-12" type="line"/>
      <point x="283" y="-108" type="line"/>
      <point x="251" y="-133"/>
      <point x="216" y="-147"/>
      <point x="173" y="-147" type="curve" smooth="yes"/>
      <point x="107" y="-147"/>
      <point x="69" y="-117"/>
      <point x="69" y="-71" type="curve" smooth="yes"/>
      <point x="69" y="39"/>
      <point x="293" y="62"/>
      <point x="293" y="189" type="curve" smooth="yes"/>
      <point x="293" y="235"/>
      <point x="263" y="272"/>
      <point x="175" y="267" type="curve"/>
      <point x="170" y="217" type="line"/>
      <point x="203" y="217"/>
      <point x="218" y="204"/>
      <point x="218" y="180" type="curve" smooth="yes"/>
      <point x="218" y="90"/>
      <point x="-9" y="55"/>
      <point x="-9" y="-84" type="curve" smooth="yes"/>
      <point x="-9" y="-167"/>
      <point x="70" y="-212"/>
      <point x="159" y="-212" type="curve" smooth="yes"/>
      <point x="232" y="-212"/>
      <point x="299" y="-177"/>
      <point x="342" y="-137" type="curve"/>
      <point x="363" y="-17" type="line"/>
    </contour>
    <contour>
      <point x="291" y="448" type="line"/>
      <point x="204" y="448" type="line"/>
      <point x="194" y="351" type="line"/>
      <point x="281" y="351" type="line"/>
    </contour>
  </outline>
</glyph>
<glyph name="Acircumflex" format="1">
  <advance width="633"/>
  <unicode hex="00C2"/>
  <outline>
    <contour>
      <point x="-18" y="64" type="line"/>
      <point x="42" y="64" type="line"/>
      <point x="304" y="586" type="line"/>
      <point x="203" y="586" type="line"/>
      <point x="209" y="650" type="line"/>
      <point x="389" y="650" type="line"/>
      <point x="556" y="64" type="line"/>
      <point x="618" y="64" type="line"/>
      <point x="611" y="0" type="line"/>
      <point x="388" y="0" type="line"/>
      <point x="394" y="64" type="line"/>
      <point x="479" y="64" type="line"/>
      <point x="446" y="189" type="line"/>
      <point x="176" y="189" type="line"/>
      <point x="115" y="64" type="line"/>
      <point x="205" y="64" type="line"/>
      <point x="199" y="0" type="line"/>
      <point x="-23" y="0" type="line"/>
    </contour>
    <contour>
      <point x="349" y="544" type="line"/>
      <point x="204" y="246" type="line"/>
      <point x="431" y="246" type="line"/>
      <point x="353" y="544" type="line"/>
    </contour>
    <contour>
      <point x="388" y="825" type="line"/>
      <point x="367" y="825" type="line"/>
      <point x="231" y="733" type="line"/>
      <point x="249" y="701" type="line"/>
      <point x="369" y="764" type="line"/>
      <point x="480" y="702" type="line"/>
      <point x="501" y="736" type="line"/>
    </contour>
  </outline>
</glyph>
<glyph name="Atilde" format="1">
  <advance width="633"/>
  <unicode hex="00C3"/>
  <outline>
    <contour>
      <point x="-18" y="64" type="line"/>
      <point x="42" y="64" type="line"/>
      <point x="304" y="586" type="line"/>
      <point x="203" y="586" type="line"/>
      <point x="209" y="650" type="line"/>
      <point x="389" y="650" type="line"/>
      <point x="556" y="64" type="line"/>
      <point x="618" y="64" type="line"/>
      <point x="611" y="0" type="line"/>
      <point x="388" y="0" type="line"/>
      <point x="394" y="64" type="line"/>
      <point x="479" y="64" type="line"/>
      <point x="446" y="189" type="line"/>
      <point x="176" y="189" type="line"/>
      <point x="115" y="64" type="line"/>
      <point x="205" y="64" type="line"/>
      <point x="199" y="0" type="line"/>
      <point x="-23" y="0" type="line"/>
    </contour>
    <contour>
      <point x="349" y="544" type="line"/>
      <point x="204" y="246" type="line"/>
      <point x="431" y="246" type="line"/>
      <point x="353" y="544" type="line"/>
    </contour>
    <contour>
      <point x="246" y="705" type="line"/>
      <point x="260" y="737"/>
      <point x="282" y="744"/>
      <point x="300" y="744" type="curve" smooth="yes"/>
      <point x="338" y="744"/>
      <point x="368" y="709"/>
      <point x="417" y="709" type="curve" smooth="yes"/>
      <point x="463" y="709"/>
      <point x="488" y="744"/>
      <point x="502" y="798" type="curve"/>
      <point x="468" y="807" type="line"/>
      <point x="453" y="770"/>
      <point x="435" y="765"/>
      <point x="418" y="765" type="curve" smooth="yes"/>
      <point x="371" y="765"/>
      <point x="348" y="800"/>
      <point x="304" y="800" type="curve" smooth="yes"/>
      <point x="254" y="800"/>
      <point x="224" y="752"/>
      <point x="215" y="718" type="curve"/>
    </contour>
  </outline>
</glyph>
<glyph name="Adieresis" format="1">
  <advance width="633"/>
  <unicode hex="00C4"/>
  <outline>
    <contour>
      <point x="-18" y="64" type="line"/>
      <point x="42" y="64" type="line"/>
      <point x="304" y="586" type="line"/>
      <point x="203" y="586" type="line"/>
      <point x="209" y="650" type="line"/>
      <point x="389" y="650" type="line"/>
      <point x="556" y="64" type="line"/>
      <point x="618" y="64" type="line"/>
      <point x="611" y="0" type="line"/>
      <point x="388" y="0" type="line"/>
      <point x="394" y="64" type="line"/>
      <point x="479" y="64" type="line"/>
      <point x="446" y="189" type="line"/>
      <point x="176" y="189" type="line"/>
      <point x="115" y="64" type="line"/>
      <point x="205" y="64" type="line"/>
      <point x="199" y="0" type="line"/>
      <point x="-23" y="0" type="line"/>
    </contour>
    <contour>
      <point x="349" y="544" type="line"/>
      <point x="204" y="246" type="line"/>
      <point x="431" y="246" type="line"/>
      <point x="353" y="544" type="line"/>
    </contour>
    <contour>
      <point x="409" y="718" type="line"/>
      <point x="489" y="718" type="line"/>
      <point x="497" y="803" type="line"/>
      <point x="418" y="803" type="line"/>
    </contour>
    <contour>
      <point x="242" y="718" type="line"/>
      <point x="320" y="718" type="line"/>
      <point x="329" y="803" type="line"/>
      <point x="250" y="803" type="line"/>
    </contour>
  </outline>
</glyph>
<glyph name="Aring" format="1">
  <advance width="633"/>
  <unicode hex="00C5"/>
  <outline>
    <contour>
      <point x="-18" y="64" type="line"/>
      <point x="42" y="64" type="line"/>
      <point x="304" y="586" type="line"/>
      <point x="203" y="586" type="line"/>
      <point x="209" y="650" type="line"/>
      <point x="389" y="650" type="line"/>
      <point x="556" y="64" type="line"/>
      <point x="618" y="64" type="line"/>
      <point x="611" y="0" type="line"/>
      <point x="388" y="0" type="line"/>
      <point x="394" y="64" type="line"/>
      <point x="479" y="64" type="line"/>
      <point x="446" y="189" type="line"/>
      <point x="176" y="189" type="line"/>
      <point x="115" y="64" type="line"/>
      <point x="205" y="64" type="line"/>
      <point x="199" y="0" type="line"/>
      <point x="-23" y="0" type="line"/>
    </contour>
    <contour>
      <point x="349" y="544" type="line"/>
      <point x="204" y="246" type="line"/>
      <point x="431" y="246" type="line"/>
      <point x="353" y="544" type="line"/>
    </contour>
    <contour>
      <point x="362" y="690" type="curve" smooth="yes"/>
      <point x="432" y="690"/>
      <point x="470" y="736"/>
      <point x="470" y="793" type="curve" smooth="yes"/>
      <point x="470" y="842"/>
      <point x="442" y="874"/>
      <point x="383" y="874" type="curve" smooth="yes"/>
      <point x="315" y="874"/>
      <point x="274" y="832"/>
      <point x="274" y="772" type="curve" smooth="yes"/>
      <point x="274" y="720"/>
      <point x="304" y="690"/>
    </contour>
    <contour>
      <point x="366" y="730" type="curve" smooth="yes"/>
      <point x="336" y="730"/>
      <point x="323" y="748"/>
      <point x="323" y="774" type="curve" smooth="yes"/>
      <point x="323" y="810"/>
      <point x="342" y="834"/>
      <point x="378" y="834" type="curve" smooth="yes"/>
      <point x="410" y="834"/>
      <point x="421" y="815"/>
      <point x="421" y="790" type="curve" smooth="yes"/>
      <point x="421" y="756"/>
      <point x="403" y="730"/>
    </contour>
  </outline>
</glyph>
<glyph name="AE" format="1">
  <advance width="904"/>
  <unicode hex="00C6"/>
  <outline>
    <contour>
      <point x="812" y="0" type="line"/>
      <point x="851" y="184" type="line"/>
      <point x="790" y="191" type="line"/>
      <point x="756" y="64" type="line"/>
      <point x="497" y="64" type="line"/>
      <point x="522" y="298" type="line"/>
      <point x="821" y="298" type="line"/>
      <point x="827" y="362" type="line"/>
      <point x="528" y="362" type="line"/>
      <point x="552" y="586" type="line"/>
      <point x="803" y="586" type="line"/>
      <point x="809" y="459" type="line"/>
      <point x="871" y="467" type="line"/>
      <point x="872" y="650" type="line"/>
      <point x="257" y="650" type="line"/>
      <point x="251" y="586" type="line"/>
      <point x="346" y="586" type="line"/>
      <point x="37" y="64" type="line"/>
      <point x="-27" y="64" type="line"/>
      <point x="-33" y="0" type="line"/>
      <point x="191" y="0" type="line"/>
      <point x="198" y="64" type="line"/>
      <point x="110" y="64" type="line"/>
      <point x="183" y="189" type="line"/>
      <point x="438" y="189" type="line"/>
      <point x="424" y="64" type="line"/>
      <point x="345" y="64" type="line"/>
      <point x="339" y="0" type="line"/>
    </contour>
    <contour>
      <point x="444" y="246" type="line"/>
      <point x="216" y="246" type="line"/>
      <point x="414" y="586" type="line"/>
      <point x="479" y="586" type="line"/>
    </contour>
  </outline>
</glyph>
<glyph name="Ccedilla" format="1">
  <advance width="628"/>
  <unicode hex="00C7"/>
  <outline>
    <contour>
      <point x="539" y="50" type="line"/>
      <point x="486" y="10"/>
      <point x="402" y="-10"/>
      <point x="329" y="-10" type="curve"/>
      <point x="325" y="-47" type="line"/>
      <point x="333" y="-47" type="line" smooth="yes"/>
      <point x="388" y="-47"/>
      <point x="412" y="-76"/>
      <point x="412" y="-119" type="curve" smooth="yes"/>
      <point x="412" y="-181"/>
      <point x="357" y="-209"/>
      <point x="296" y="-209" type="curve" smooth="yes"/>
      <point x="260" y="-209"/>
      <point x="227" y="-199"/>
      <point x="206" y="-179" type="curve"/>
      <point x="227" y="-138" type="line"/>
      <point x="242" y="-151"/>
      <point x="268" y="-161"/>
      <point x="297" y="-161" type="curve" smooth="yes"/>
      <point x="330" y="-161"/>
      <point x="352" y="-148"/>
      <point x="352" y="-117" type="curve" smooth="yes"/>
      <point x="352" y="-87"/>
      <point x="331" y="-80"/>
      <point x="299" y="-80" type="curve" smooth="yes"/>
      <point x="270" y="-80" type="line"/>
      <point x="279" y="-7" type="line"/>
      <point x="126" y="13"/>
      <point x="43" y="129"/>
      <point x="43" y="289" type="curve" smooth="yes"/>
      <point x="43" y="491"/>
      <point x="175" y="660"/>
      <point x="389" y="660" type="curve" smooth="yes"/>
      <point x="484" y="660"/>
      <point x="555" y="627"/>
      <point x="599" y="584" type="curve"/>
      <point x="603" y="459" type="line"/>
      <point x="541" y="453" type="line"/>
      <point x="533" y="548" type="line"/>
      <point x="495" y="576"/>
      <point x="448" y="594"/>
      <point x="385" y="594" type="curve" smooth="yes"/>
      <point x="227" y="594"/>
      <point x="117" y="479"/>
      <point x="117" y="295" type="curve" smooth="yes"/>
      <point x="117" y="141"/>
      <point x="195" y="56"/>
      <point x="343" y="56" type="curve" smooth="yes"/>
      <point x="395" y="56"/>
      <point x="443" y="66"/>
      <point x="480" y="85" type="curve"/>
      <point x="508" y="181" type="line"/>
      <point x="568" y="175" type="line"/>
    </contour>
  </outline>
</glyph>
<glyph name="Ecircumflex" format="1">
  <advance width="573"/>
  <unicode hex="00CA"/>
  <outline>
    <contour>
      <point x="481" y="0" type="line"/>
      <point x="12" y="0" type="line"/>
      <point x="18" y="64" type="line"/>
      <point x="98" y="64" type="line"/>
      <point x="154" y="586" type="line"/>
      <point x="73" y="586" type="line"/>
      <point x="80" y="650" type="line"/>
      <point x="545" y="650" type="line"/>
      <point x="545" y="466" type="line"/>
      <point x="482" y="459" type="line"/>
      <point x="476" y="586" type="line"/>
      <point x="225" y="586" type="line"/>
      <point x="200" y="362" type="line"/>
      <point x="502" y="362" type="line"/>
      <point x="496" y="298" type="line"/>
      <point x="194" y="298" type="line"/>
      <point x="169" y="64" type="line"/>
      <point x="425" y="64" type="line"/>
      <point x="458" y="191" type="line"/>
      <point x="519" y="184" type="line"/>
    </contour>
    <contour>
      <point x="387" y="825" type="line"/>
      <point x="366" y="825" type="line"/>
      <point x="230" y="733" type="line"/>
      <point x="248" y="701" type="line"/>
      <point x="368" y="764" type="line"/>
      <point x="479" y="702" type="line"/>
      <point x="500" y="736" type="line"/>
    </contour>
  </outline>
</glyph>
<glyph name="Igrave" format="1">
  <advance width="311"/>
  <unicode hex="00CC"/>
  <outline>
    <contour>
      <point x="19" y="64" type="line"/>
      <point x="98" y="64" type="line"/>
      <point x="153" y="586" type="line"/>
      <point x="73" y="586" type="line"/>
      <point x="80" y="650" type="line"/>
      <point x="309" y="650" type="line"/>
      <point x="303" y="586" type="line"/>
      <point x="222" y="586" type="line"/>
      <point x="167" y="64" type="line"/>
      <point x="248" y="64" type="line"/>
      <point x="241" y="0" type="line"/>
      <point x="12" y="0" type="line"/>
    </contour>
    <contour>
      <point x="258" y="703" type="line"/>
      <point x="267" y="740" type="line"/>
      <point x="72" y="813" type="line"/>
      <point x="55" y="745" type="line"/>
    </contour>
  </outline>
</glyph>
<glyph name="Iacute" format="1">
  <advance width="311"/>
  <unicode hex="00CD"/>
  <outline>
    <contour>
      <point x="19" y="64" type="line"/>
      <point x="98" y="64" type="line"/>
      <point x="153" y="586" type="line"/>
      <point x="73" y="586" type="line"/>
      <point x="80" y="650" type="line"/>
      <point x="309" y="650" type="line"/>
      <point x="303" y="586" type="line"/>
      <point x="222" y="586" type="line"/>
      <point x="167" y="64" type="line"/>
      <point x="248" y="64" type="line"/>
      <point x="241" y="0" type="line"/>
      <point x="12" y="0" type="line"/>
    </contour>
    <contour>
      <point x="344" y="745" type="line"/>
      <point x="328" y="813" type="line"/>
      <point x="133" y="740" type="line"/>
      <point x="142" y="703" type="line"/>
    </contour>
  </outline>
</glyph>
<glyph name="Icircumflex" format="1">
  <advance width="311"/>
  <unicode hex="00CE"/>
  <outline>
    <contour>
      <point x="19" y="64" type="line"/>
      <point x="98" y="64" type="line"/>
      <point x="153" y="586" type="line"/>
      <point x="73" y="586" type="line"/>
      <point x="80" y="650" type="line"/>
      <point x="309" y="650" type="line"/>
      <point x="303" y="586" type="line"/>
      <point x="222" y="586" type="line"/>
      <point x="167" y="64" type="line"/>
      <point x="248" y="64" type="line"/>
      <point x="241" y="0" type="line"/>
      <point x="12" y="0" type="line"/>
    </contour>
    <contour>
      <point x="227" y="825" type="line"/>
      <point x="206" y="825" type="line"/>
      <point x="70" y="733" type="line"/>
      <point x="88" y="701" type="line"/>
      <point x="208" y="764" type="line"/>
      <point x="319" y="702" type="line"/>
      <point x="340" y="736" type="line"/>
    </contour>
  </outline>
</glyph>
<glyph name="Ugrave" format="1">
  <advance width="696"/>
  <unicode hex="00D9"/>
  <outline>
    <contour>
      <point x="482" y="650" type="line"/>
      <point x="699" y="650" type="line"/>
      <point x="693" y="586" type="line"/>
      <point x="631" y="586" type="line"/>
      <point x="598" y="267" type="line" smooth="yes"/>
      <point x="583" y="129"/>
      <point x="519" y="-10"/>
      <point x="324" y="-10" type="curve" smooth="yes"/>
      <point x="136" y="-10"/>
      <point x="82" y="116"/>
      <point x="97" y="256" type="curve" smooth="yes"/>
      <point x="132" y="586" type="line"/>
      <point x="67" y="586" type="line"/>
      <point x="73" y="650" type="line"/>
      <point x="298" y="650" type="line"/>
      <point x="290" y="586" type="line"/>
      <point x="203" y="586" type="line"/>
      <point x="169" y="258" type="line" smooth="yes"/>
      <point x="156" y="130"/>
      <point x="206" y="56"/>
      <point x="331" y="56" type="curve" smooth="yes"/>
      <point x="448" y="56"/>
      <point x="516" y="128"/>
      <point x="531" y="267" type="curve" smooth="yes"/>
      <point x="564" y="586" type="line"/>
      <point x="475" y="586" type="line"/>
    </contour>
    <contour>
      <point x="452" y="703" type="line"/>
      <point x="461" y="740" type="line"/>
      <point x="266" y="813" type="line"/>
      <point x="249" y="745" type="line"/>
    </contour>
  </outline>
</glyph>
<glyph name="Uacute" format="1">
  <advance width="696"/>
  <unicode hex="00DA"/>
  <outline>
    <contour>
      <point x="482" y="650" type="line"/>
      <point x="699" y="650" type="line"/>
      <point x="693" y="586" type="line"/>
      <point x="631" y="586" type="line"/>
      <point x="598" y="267" type="line" smooth="yes"/>
      <point x="583" y="129"/>
      <point x="519" y="-10"/>
      <point x="324" y="-10" type="curve" smooth="yes"/>
      <point x="136" y="-10"/>
      <point x="82" y="116"/>
      <point x="97" y="256" type="curve" smooth="yes"/>
      <point x="132" y="586" type="line"/>
      <point x="67" y="586" type="line"/>
      <point x="73" y="650" type="line"/>
      <point x="298" y="650" type="line"/>
      <point x="290" y="586" type="line"/>
      <point x="203" y="586" type="line"/>
      <point x="169" y="258" type="line" smooth="yes"/>
      <point x="156" y="130"/>
      <point x="206" y="56"/>
      <point x="331" y="56" type="curve" smooth="yes"/>
      <point x="448" y="56"/>
      <point x="516" y="128"/>
      <point x="531" y="267" type="curve" smooth="yes"/>
      <point x="564" y="586" type="line"/>
      <point x="475" y="586" type="line"/>
    </contour>
    <contour>
      <point x="549" y="745" type="line"/>
      <point x="533" y="813" type="line"/>
      <point x="338" y="740" type="line"/>
      <point x="347" y="703" type="line"/>
    </contour>
  </outline>
</glyph>
<glyph name="Udieresis" format="1">
  <advance width="696"/>
  <unicode hex="00DC"/>
  <outline>
    <contour>
      <point x="482" y="650" type="line"/>
      <point x="699" y="650" type="line"/>
      <point x="693" y="586" type="line"/>
      <point x="631" y="586" type="line"/>
      <point x="598" y="267" type="line" smooth="yes"/>
      <point x="583" y="129"/>
      <point x="519" y="-10"/>
      <point x="324" y="-10" type="curve" smooth="yes"/>
      <point x="136" y="-10"/>
      <point x="82" y="116"/>
      <point x="97" y="256" type="curve" smooth="yes"/>
      <point x="132" y="586" type="line"/>
      <point x="67" y="586" type="line"/>
      <point x="73" y="650" type="line"/>
      <point x="298" y="650" type="line"/>
      <point x="290" y="586" type="line"/>
      <point x="203" y="586" type="line"/>
      <point x="169" y="258" type="line" smooth="yes"/>
      <point x="156" y="130"/>
      <point x="206" y="56"/>
      <point x="331" y="56" type="curve" smooth="yes"/>
      <point x="448" y="56"/>
      <point x="516" y="128"/>
      <point x="531" y="267" type="curve" smooth="yes"/>
      <point x="564" y="586" type="line"/>
      <point x="475" y="586" type="line"/>
    </contour>
    <contour>
      <point x="444" y="718" type="line"/>
      <point x="524" y="718" type="line"/>
      <point x="532" y="803" type="line"/>
      <point x="453" y="803" type="line"/>
    </contour>
    <contour>
      <point x="277" y="718" type="line"/>
      <point x="355" y="718" type="line"/>
      <point x="364" y="803" type="line"/>
      <point x="285" y="803" type="line"/>
    </contour>
  </outline>
</glyph>
<glyph name="germandbls" format="1">
  <advance width="599"/>
  <unicode hex="00DF"/>
  <outline>
    <contour>
      <point x="23" y="388" type="line"/>
      <point x="108" y="388" type="line"/>
      <point x="53" y="-57" type="line" smooth="yes"/>
      <point x="44" y="-127"/>
      <point x="22" y="-166"/>
      <point x="-26" y="-166" type="curve" smooth="yes"/>
      <point x="-55" y="-166"/>
      <point x="-90" y="-152"/>
      <point x="-87" y="-82" type="curve"/>
      <point x="-142" y="-98" type="line"/>
      <point x="-143" y="-189"/>
      <point x="-91" y="-223"/>
      <point x="-24" y="-223" type="curve" smooth="yes"/>
      <point x="69" y="-223"/>
      <point x="108" y="-157"/>
      <point x="121" y="-58" type="curve"/>
      <point x="190" y="509" type="line" smooth="yes"/>
      <point x="200" y="589"/>
      <point x="256" y="642"/>
      <point x="350" y="642" type="curve" smooth="yes"/>
      <point x="425" y="642"/>
      <point x="477" y="610"/>
      <point x="477" y="556" type="curve" smooth="yes"/>
      <point x="477" y="446"/>
      <point x="256" y="463"/>
      <point x="256" y="319" type="curve" smooth="yes"/>
      <point x="256" y="237"/>
      <point x="327" y="219"/>
      <point x="390" y="203" type="curve" smooth="yes"/>
      <point x="452" y="188"/>
      <point x="490" y="177"/>
      <point x="490" y="125" type="curve" smooth="yes"/>
      <point x="490" y="75"/>
      <point x="453" y="47"/>
      <point x="387" y="47" type="curve" smooth="yes"/>
      <point x="355" y="47"/>
      <point x="318" y="53"/>
      <point x="291" y="67" type="curve"/>
      <point x="300" y="129" type="line"/>
      <point x="245" y="135" type="line"/>
      <point x="221" y="34" type="line"/>
      <point x="257" y="9"/>
      <point x="329" y="-10"/>
      <point x="394" y="-10" type="curve" smooth="yes"/>
      <point x="494" y="-10"/>
      <point x="562" y="43"/>
      <point x="562" y="130" type="curve" smooth="yes"/>
      <point x="562" y="228"/>
      <point x="475" y="244"/>
      <point x="411" y="259" type="curve"/>
      <point x="362" y="273"/>
      <point x="327" y="284"/>
      <point x="327" y="327" type="curve" smooth="yes"/>
      <point x="327" y="435"/>
      <point x="547" y="413"/>
      <point x="547" y="560" type="curve" smooth="yes"/>
      <point x="547" y="648"/>
      <point x="467" y="698"/>
      <point x="357" y="698" type="curve" smooth="yes"/>
      <point x="238" y="698"/>
      <point x="139" y="638"/>
      <point x="124" y="514" type="curve" smooth="yes"/>
      <point x="115" y="445" type="line"/>
      <point x="50" y="445" type="line"/>
      <point x="27" y="425" type="line"/>
    </contour>
  </outline>
</glyph>
<glyph name="aacute" format="1">
  <advance width="504"/>
  <unicode hex="00E1"/>
  <outline>
    <contour>
      <point x="456" y="445" type="line"/>
      <point x="443" y="399"/>
      <point x="431" y="353"/>
      <point x="426" y="307" type="curve"/>
      <point x="394" y="57" type="line"/>
      <point x="461" y="57" type="line"/>
      <point x="457" y="17" type="line"/>
      <point x="436" y="0" type="line"/>
      <point x="331" y="0" type="line"/>
      <point x="333" y="90" type="line"/>
      <point x="304" y="36"/>
      <point x="259" y="-10"/>
      <point x="181" y="-10" type="curve" smooth="yes"/>
      <point x="84" y="-10"/>
      <point x="32" y="63"/>
      <point x="32" y="178" type="curve" smooth="yes"/>
      <point x="32" y="292"/>
      <point x="84" y="454"/>
      <point x="238" y="454" type="curve" smooth="yes"/>
      <point x="303" y="454"/>
      <point x="351" y="424"/>
      <point x="370" y="370" type="curve"/>
      <point x="376" y="395"/>
      <point x="382" y="420"/>
      <point x="390" y="445" type="curve"/>
    </contour>
    <contour>
      <point x="245" y="397" type="curve" smooth="yes"/>
      <point x="136" y="397"/>
      <point x="105" y="276"/>
      <point x="105" y="189" type="curve" smooth="yes"/>
      <point x="105" y="96"/>
      <point x="140" y="47"/>
      <point x="202" y="47" type="curve" smooth="yes"/>
      <point x="275" y="47"/>
      <point x="327" y="122"/>
      <point x="341" y="183" type="curve"/>
      <point x="354" y="281" type="line"/>
      <point x="353" y="348"/>
      <point x="309" y="397"/>
    </contour>
    <contour>
      <point x="439" y="624" type="line"/>
      <point x="404" y="683" type="line"/>
      <point x="239" y="551" type="line"/>
      <point x="257" y="520" type="line"/>
    </contour>
  </outline>
</glyph>
<glyph name="ccedilla" format="1">
  <advance width="440"/>
  <unicode hex="00E7"/>
  <outline>
    <contour>
      <point x="250" y="397" type="curve" smooth="yes"/>
      <point x="143" y="397"/>
      <point x="104" y="292"/>
      <point x="104" y="190" type="curve" smooth="yes"/>
      <point x="104" y="102"/>
      <point x="134" y="47"/>
      <point x="209" y="47" type="curve" smooth="yes"/>
      <point x="272" y="47"/>
      <point x="312" y="86"/>
      <point x="335" y="163" type="curve"/>
      <point x="390" y="150" type="line"/>
      <point x="371" y="74"/>
      <point x="319" y="-4"/>
      <point x="213" y="-10" type="curve"/>
      <point x="209" y="-47" type="line"/>
      <point x="217" y="-47" type="line" smooth="yes"/>
      <point x="272" y="-47"/>
      <point x="296" y="-76"/>
      <point x="296" y="-119" type="curve" smooth="yes"/>
      <point x="296" y="-181"/>
      <point x="241" y="-209"/>
      <point x="180" y="-209" type="curve" smooth="yes"/>
      <point x="144" y="-209"/>
      <point x="111" y="-199"/>
      <point x="90" y="-179" type="curve"/>
      <point x="111" y="-138" type="line"/>
      <point x="126" y="-151"/>
      <point x="152" y="-161"/>
      <point x="181" y="-161" type="curve" smooth="yes"/>
      <point x="214" y="-161"/>
      <point x="236" y="-148"/>
      <point x="236" y="-117" type="curve" smooth="yes"/>
      <point x="236" y="-87"/>
      <point x="215" y="-80"/>
      <point x="183" y="-80" type="curve" smooth="yes"/>
      <point x="154" y="-80" type="line"/>
      <point x="163" y="-6" type="line"/>
      <point x="78" y="9"/>
      <point x="31" y="78"/>
      <point x="31" y="186" type="curve" smooth="yes"/>
      <point x="31" y="304"/>
      <point x="90" y="454"/>
      <point x="249" y="454" type="curve" smooth="yes"/>
      <point x="306" y="454"/>
      <point x="351" y="441"/>
      <point x="392" y="409" type="curve"/>
      <point x="398" y="302" type="line"/>
      <point x="339" y="295" type="line"/>
      <point x="330" y="371" type="line"/>
      <point x="305" y="390"/>
      <point x="279" y="397"/>
    </contour>
  </outline>
</glyph>
<glyph name="iacute" format="1">
  <advance width="255"/>
  <unicode hex="00ED"/>
  <outline>
    <contour>
      <point x="36" y="426" type="line"/>
      <point x="57" y="445" type="line"/>
      <point x="183" y="445" type="line"/>
      <point x="136" y="57" type="line"/>
      <point x="211" y="57" type="line"/>
      <point x="206" y="17" type="line"/>
      <point x="184" y="0" type="line"/>
      <point x="61" y="0" type="line"/>
      <point x="108" y="388" type="line"/>
      <point x="31" y="388" type="line"/>
    </contour>
    <contour>
      <point x="295" y="624" type="line"/>
      <point x="260" y="683" type="line"/>
      <point x="95" y="551" type="line"/>
      <point x="113" y="520" type="line"/>
    </contour>
  </outline>
</glyph>
<glyph name="eth" format="1">
  <advance width="490"/>
  <unicode hex="00F0"/>
  <outline>
    <contour>
      <point x="156" y="526" type="line"/>
      <point x="221" y="597" type="line"/>
      <point x="198" y="614"/>
      <point x="173" y="631"/>
      <point x="146" y="647" type="curve"/>
      <point x="180" y="698" type="line"/>
      <point x="209" y="681"/>
      <point x="237" y="663"/>
      <point x="263" y="643" type="curve"/>
      <point x="315" y="701" type="line"/>
      <point x="351" y="674" type="line"/>
      <point x="297" y="614" type="line"/>
      <point x="384" y="536"/>
      <point x="441" y="434"/>
      <point x="441" y="299" type="curve" smooth="yes"/>
      <point x="441" y="155"/>
      <point x="383" y="-10"/>
      <point x="212" y="-10" type="curve" smooth="yes"/>
      <point x="92" y="-10"/>
      <point x="32" y="72"/>
      <point x="32" y="194" type="curve" smooth="yes"/>
      <point x="32" y="338"/>
      <point x="118" y="454"/>
      <point x="247" y="454" type="curve" smooth="yes"/>
      <point x="299" y="454"/>
      <point x="333" y="434"/>
      <point x="356" y="407" type="curve"/>
      <point x="339" y="472"/>
      <point x="305" y="523"/>
      <point x="256" y="568" type="curve"/>
      <point x="192" y="498" type="line"/>
    </contour>
    <contour>
      <point x="248" y="397" type="curve" smooth="yes"/>
      <point x="151" y="397"/>
      <point x="106" y="308"/>
      <point x="106" y="198" type="curve" smooth="yes"/>
      <point x="106" y="115"/>
      <point x="133" y="47"/>
      <point x="217" y="47" type="curve" smooth="yes"/>
      <point x="339" y="47"/>
      <point x="363" y="186"/>
      <point x="367" y="275" type="curve" smooth="yes"/>
      <point x="367" y="279" type="line" smooth="yes"/>
      <point x="362" y="332"/>
      <point x="330" y="397"/>
    </contour>
  </outline>
</glyph>
<glyph name="thorn" format="1">
  <advance width="502"/>
  <unicode hex="00FE"/>
  <outline>
    <contour>
      <point x="183" y="-195" type="line"/>
      <point x="161" y="-213" type="line"/>
      <point x="-50" y="-213" type="line"/>
      <point x="-45" y="-175" type="line"/>
      <point x="-24" y="-156" type="line"/>
      <point x="21" y="-156" type="line"/>
      <point x="118" y="631" type="line"/>
      <point x="41" y="631" type="line"/>
      <point x="46" y="669" type="line"/>
      <point x="67" y="688" type="line"/>
      <point x="191" y="688" type="line"/>
      <point x="177" y="553" type="line"/>
      <point x="153" y="360" type="line"/>
      <point x="182" y="412"/>
      <point x="227" y="454"/>
      <point x="302" y="454" type="curve" smooth="yes"/>
      <point x="403" y="454"/>
      <point x="459" y="379"/>
      <point x="459" y="264" type="curve" smooth="yes"/>
      <point x="459" y="150"/>
      <point x="405" y="-10"/>
      <point x="250" y="-10" type="curve" smooth="yes"/>
      <point x="187" y="-10"/>
      <point x="138" y="16"/>
      <point x="115" y="64" type="curve"/>
      <point x="88" y="-156" type="line"/>
      <point x="188" y="-156" type="line"/>
    </contour>
    <contour>
      <point x="245" y="47" type="curve" smooth="yes"/>
      <point x="351" y="47"/>
      <point x="386" y="172"/>
      <point x="386" y="256" type="curve" smooth="yes"/>
      <point x="386" y="344"/>
      <point x="347" y="397"/>
      <point x="282" y="397" type="curve" smooth="yes"/>
      <point x="207" y="397"/>
      <point x="157" y="327"/>
      <point x="141" y="266" type="curve"/>
      <point x="129" y="169" type="line"/>
      <point x="128" y="165" type="line"/>
      <point x="128" y="98"/>
      <point x="174" y="47"/>
    </contour>
  </outline>
</glyph>
<glyph name="Amacron" format="1">
  <advance width="633"/>
  <unicode hex="0100"/>
  <outline>
    <contour>
      <point x="-18" y="64" type="line"/>
      <point x="42" y="64" type="line"/>
      <point x="304" y="586" type="line"/>
      <point x="203" y="586" type="line"/>
      <point x="209" y="650" type="line"/>
      <point x="389" y="650" type="line"/>
      <point x="556" y="64" type="line"/>
      <point x="618" y="64" type="line"/>
      <point x="611" y="0" type="line"/>
      <point x="388" y="0" type="line"/>
      <point x="394" y="64" type="line"/>
      <point x="479" y="64" type="line"/>
      <point x="446" y="189" type="line"/>
      <point x="176" y="189" type="line"/>
      <point x="115" y="64" type="line"/>
      <point x="205" y="64" type="line"/>
      <point x="199" y="0" type="line"/>
      <point x="-23" y="0" type="line"/>
    </contour>
    <contour>
      <point x="349" y="544" type="line"/>
      <point x="204" y="246" type="line"/>
      <point x="431" y="246" type="line"/>
      <point x="353" y="544" type="line"/>
    </contour>
    <contour>
      <point x="233" y="790" type="line"/>
      <point x="506" y="790" type="line"/>
      <point x="500" y="733" type="line"/>
      <point x="227" y="733" type="line"/>
    </contour>
  </outline>
</glyph>
<glyph name="cdotaccent" format="1">
  <advance width="440"/>
  <unicode hex="010B"/>
  <outline>
    <contour>
      <point x="250" y="397" type="curve" smooth="yes"/>
      <point x="143" y="397"/>
      <point x="104" y="292"/>
      <point x="104" y="190" type="curve" smooth="yes"/>
      <point x="104" y="102"/>
      <point x="134" y="47"/>
      <point x="209" y="47" type="curve" smooth="yes"/>
      <point x="272" y="47"/>
      <point x="312" y="86"/>
      <point x="335" y="163" type="curve"/>
      <point x="390" y="150" type="line"/>
      <point x="371" y="71"/>
      <point x="315" y="-10"/>
      <point x="201" y="-10" type="curve" smooth="yes"/>
      <point x="93" y="-10"/>
      <point x="31" y="63"/>
      <point x="31" y="186" type="curve" smooth="yes"/>
      <point x="31" y="304"/>
      <point x="90" y="454"/>
      <point x="249" y="454" type="curve"/>
      <point x="306" y="454"/>
      <point x="351" y="441"/>
      <point x="392" y="409" type="curve"/>
      <point x="398" y="302" type="line"/>
      <point x="339" y="295" type="line"/>
      <point x="330" y="371" type="line"/>
      <point x="305" y="390"/>
      <point x="279" y="397"/>
    </contour>
    <contour>
      <point x="228" y="553" type="line"/>
      <point x="302" y="553" type="line"/>
      <point x="311" y="644" type="line"/>
      <point x="237" y="644" type="line"/>
    </contour>
  </outline>
</glyph>
<glyph name="Dcaron" format="1">
  <advance width="686"/>
  <unicode hex="010E"/>
  <outline>
    <contour>
      <point x="12" y="0" type="line"/>
      <point x="19" y="63" type="line"/>
      <point x="98" y="63" type="line"/>
      <point x="153" y="587" type="line"/>
      <point x="74" y="587" type="line"/>
      <point x="80" y="650" type="line"/>
      <point x="362" y="650" type="line" smooth="yes"/>
      <point x="553" y="650"/>
      <point x="653" y="531"/>
      <point x="653" y="361" type="curve" smooth="yes"/>
      <point x="653" y="155"/>
      <point x="514" y="0"/>
      <point x="297" y="0" type="curve" smooth="yes"/>
    </contour>
    <contour>
      <point x="300" y="63" type="line" smooth="yes"/>
      <point x="473" y="63"/>
      <point x="579" y="183"/>
      <point x="579" y="355" type="curve" smooth="yes"/>
      <point x="579" y="496"/>
      <point x="502" y="587"/>
      <point x="355" y="587" type="curve" smooth="yes"/>
      <point x="223" y="587" type="line"/>
      <point x="168" y="63" type="line"/>
    </contour>
    <contour>
      <point x="348" y="701" type="line"/>
      <point x="369" y="701" type="line"/>
      <point x="504" y="792" type="line"/>
      <point x="487" y="825" type="line"/>
      <point x="366" y="761" type="line"/>
      <point x="256" y="823" type="line"/>
      <point x="234" y="790" type="line"/>
    </contour>
  </outline>
</glyph>
<glyph name="Dcroat" format="1">
  <advance width="687"/>
  <unicode hex="0110"/>
  <outline>
    <contour>
      <point x="50" y="369" type="line"/>
      <point x="131" y="369" type="line"/>
      <point x="154" y="587" type="line"/>
      <point x="75" y="587" type="line"/>
      <point x="81" y="650" type="line"/>
      <point x="363" y="650" type="line" smooth="yes"/>
      <point x="554" y="650"/>
      <point x="654" y="531"/>
      <point x="654" y="361" type="curve" smooth="yes"/>
      <point x="654" y="155"/>
      <point x="515" y="0"/>
      <point x="298" y="0" type="curve" smooth="yes"/>
      <point x="13" y="0" type="line"/>
      <point x="20" y="63" type="line"/>
      <point x="99" y="63" type="line"/>
      <point x="125" y="311" type="line"/>
      <point x="44" y="311" type="line"/>
    </contour>
    <contour>
      <point x="301" y="63" type="line" smooth="yes"/>
      <point x="474" y="63"/>
      <point x="580" y="183"/>
      <point x="580" y="355" type="curve" smooth="yes"/>
      <point x="580" y="496"/>
      <point x="503" y="587"/>
      <point x="356" y="587" type="curve" smooth="yes"/>
      <point x="224" y="587" type="line"/>
      <point x="201" y="369" type="line"/>
      <point x="330" y="369" type="line"/>
      <point x="324" y="311" type="line"/>
      <point x="195" y="311" type="line"/>
      <point x="169" y="63" type="line"/>
    </contour>
  </outline>
</glyph>
<glyph name="dcroat" format="1">
  <advance width="510"/>
  <unicode hex="0111"/>
  <outline>
    <contour>
      <point x="305" y="670" type="line"/>
      <point x="326" y="688" type="line"/>
      <point x="479" y="688" type="line"/>
      <point x="463" y="566" type="line"/>
      <point x="526" y="566" type="line"/>
      <point x="522" y="540" type="line"/>
      <point x="499" y="520" type="line"/>
      <point x="458" y="520" type="line"/>
      <point x="401" y="57" type="line"/>
      <point x="477" y="57" type="line"/>
      <point x="473" y="17" type="line"/>
      <point x="451" y="0" type="line"/>
      <point x="337" y="0" type="line"/>
      <point x="339" y="91" type="line"/>
      <point x="307" y="37"/>
      <point x="258" y="-10"/>
      <point x="180" y="-10" type="curve" smooth="yes"/>
      <point x="83" y="-10"/>
      <point x="31" y="64"/>
      <point x="31" y="176" type="curve" smooth="yes"/>
      <point x="31" y="293"/>
      <point x="89" y="454"/>
      <point x="243" y="454" type="curve" smooth="yes"/>
      <point x="304" y="454"/>
      <point x="351" y="427"/>
      <point x="372" y="380" type="curve"/>
      <point x="389" y="520" type="line"/>
      <point x="219" y="520" type="line"/>
      <point x="223" y="545" type="line"/>
      <point x="246" y="566" type="line"/>
      <point x="395" y="566" type="line"/>
      <point x="403" y="631" type="line"/>
      <point x="301" y="631" type="line"/>
    </contour>
    <contour>
      <point x="250" y="397" type="curve" smooth="yes"/>
      <point x="140" y="397"/>
      <point x="104" y="278"/>
      <point x="104" y="185" type="curve" smooth="yes"/>
      <point x="104" y="97"/>
      <point x="137" y="47"/>
      <point x="202" y="47" type="curve" smooth="yes"/>
      <point x="278" y="47"/>
      <point x="336" y="129"/>
      <point x="349" y="191" type="curve"/>
      <point x="361" y="287" type="line"/>
      <point x="358" y="351"/>
      <point x="311" y="397"/>
    </contour>
  </outline>
</glyph>
<glyph name="ebreve" format="1">
  <advance width="437"/>
  <unicode hex="0115"/>
  <outline>
    <contour>
      <point x="213" y="47" type="curve" smooth="yes"/>
      <point x="274" y="47"/>
      <point x="313" y="82"/>
      <point x="334" y="137" type="curve"/>
      <point x="389" y="124" type="line"/>
      <point x="370" y="50"/>
      <point x="305" y="-10"/>
      <point x="202" y="-10" type="curve" smooth="yes"/>
      <point x="94" y="-10"/>
      <point x="31" y="58"/>
      <point x="31" y="183" type="curve" smooth="yes"/>
      <point x="31" y="335"/>
      <point x="120" y="454"/>
      <point x="256" y="454" type="curve" smooth="yes"/>
      <point x="335" y="454"/>
      <point x="399" y="412"/>
      <point x="399" y="343" type="curve" smooth="yes"/>
      <point x="399" y="277"/>
      <point x="354" y="230"/>
      <point x="240" y="206" type="curve" smooth="yes"/>
      <point x="199" y="198"/>
      <point x="152" y="189"/>
      <point x="104" y="182" type="curve"/>
      <point x="105" y="98"/>
      <point x="134" y="47"/>
    </contour>
    <contour>
      <point x="211" y="248" type="curve"/>
      <point x="312" y="271"/>
      <point x="326" y="305"/>
      <point x="326" y="337" type="curve" smooth="yes"/>
      <point x="326" y="382"/>
      <point x="295" y="399"/>
      <point x="249" y="399" type="curve" smooth="yes"/>
      <point x="156" y="399"/>
      <point x="116" y="316"/>
      <point x="106" y="232" type="curve"/>
      <point x="152" y="238"/>
      <point x="185" y="243"/>
    </contour>
    <contour>
      <point x="339" y="655" type="curve"/>
      <point x="397" y="655" type="line"/>
      <point x="388" y="572"/>
      <point x="341" y="532"/>
      <point x="264" y="532" type="curve" smooth="yes"/>
      <point x="188" y="532"/>
      <point x="149" y="574"/>
      <point x="158" y="655" type="curve"/>
      <point x="216" y="655" type="line"/>
      <point x="209" y="601"/>
      <point x="229" y="580"/>
      <point x="270" y="580" type="curve" smooth="yes"/>
      <point x="313" y="580"/>
      <point x="334" y="604"/>
    </contour>
  </outline>
</glyph>
<glyph name="Eogonek" format="1">
  <advance width="572"/>
  <unicode hex="0118"/>
  <outline>
    <contour>
      <point x="480" y="0" type="line"/>
      <point x="440" y="0" type="line"/>
      <point x="382" y="-33"/>
      <point x="366" y="-73"/>
      <point x="366" y="-106" type="curve" smooth="yes"/>
      <point x="366" y="-143"/>
      <point x="386" y="-155"/>
      <point x="418" y="-155" type="curve" smooth="yes"/>
      <point x="435" y="-155"/>
      <point x="453" y="-151"/>
      <point x="473" y="-140" type="curve"/>
      <point x="476" y="-189" type="line"/>
      <point x="453" y="-201"/>
      <point x="426" y="-209"/>
      <point x="396" y="-209" type="curve" smooth="yes"/>
      <point x="339" y="-209"/>
      <point x="303" y="-179"/>
      <point x="303" y="-126" type="curve" smooth="yes"/>
      <point x="303" y="-73"/>
      <point x="340" y="-27"/>
      <point x="387" y="0" type="curve"/>
      <point x="11" y="0" type="line"/>
      <point x="17" y="64" type="line"/>
      <point x="97" y="64" type="line"/>
      <point x="153" y="586" type="line"/>
      <point x="72" y="586" type="line"/>
      <point x="79" y="650" type="line"/>
      <point x="544" y="650" type="line"/>
      <point x="544" y="466" type="line"/>
      <point x="481" y="459" type="line"/>
      <point x="475" y="586" type="line"/>
      <point x="224" y="586" type="line"/>
      <point x="199" y="362" type="line"/>
      <point x="501" y="362" type="line"/>
      <point x="495" y="298" type="line"/>
      <point x="193" y="298" type="line"/>
      <point x="168" y="64" type="line"/>
      <point x="424" y="64" type="line"/>
      <point x="457" y="191" type="line"/>
      <point x="518" y="184" type="line"/>
    </contour>
  </outline>
</glyph>
<glyph name="eogonek" format="1">
  <advance width="437"/>
  <unicode hex="0119"/>
  <outline>
    <contour>
      <point x="302" y="-189" type="line"/>
      <point x="279" y="-201"/>
      <point x="252" y="-209"/>
      <point x="222" y="-209" type="curve" smooth="yes"/>
      <point x="165" y="-209"/>
      <point x="129" y="-179"/>
      <point x="129" y="-126" type="curve" smooth="yes"/>
      <point x="129" y="-79"/>
      <point x="158" y="-37"/>
      <point x="197" y="-10" type="curve"/>
      <point x="92" y="-8"/>
      <point x="31" y="60"/>
      <point x="31" y="183" type="curve" smooth="yes"/>
      <point x="31" y="335"/>
      <point x="120" y="454"/>
      <point x="256" y="454" type="curve" smooth="yes"/>
      <point x="335" y="454"/>
      <point x="399" y="412"/>
      <point x="399" y="343" type="curve" smooth="yes"/>
      <point x="399" y="277"/>
      <point x="354" y="230"/>
      <point x="240" y="206" type="curve" smooth="yes"/>
      <point x="199" y="198"/>
      <point x="152" y="189"/>
      <point x="104" y="182" type="curve"/>
      <point x="105" y="98"/>
      <point x="134" y="47"/>
      <point x="213" y="47" type="curve" smooth="yes"/>
      <point x="274" y="47"/>
      <point x="313" y="82"/>
      <point x="334" y="137" type="curve"/>
      <point x="389" y="124" type="line"/>
      <point x="374" y="66"/>
      <point x="330" y="16"/>
      <point x="262" y="-2" type="curve"/>
      <point x="207" y="-35"/>
      <point x="192" y="-74"/>
      <point x="192" y="-106" type="curve" smooth="yes"/>
      <point x="192" y="-143"/>
      <point x="212" y="-155"/>
      <point x="244" y="-155" type="curve" smooth="yes"/>
      <point x="261" y="-155"/>
      <point x="279" y="-151"/>
      <point x="299" y="-140" type="curve"/>
    </contour>
    <contour>
      <point x="211" y="248" type="curve"/>
      <point x="312" y="271"/>
      <point x="326" y="305"/>
      <point x="326" y="337" type="curve" smooth="yes"/>
      <point x="326" y="382"/>
      <point x="295" y="399"/>
      <point x="249" y="399" type="curve" smooth="yes"/>
      <point x="156" y="399"/>
      <point x="116" y="316"/>
      <point x="106" y="232" type="curve"/>
      <point x="152" y="238"/>
      <point x="185" y="243"/>
    </contour>
  </outline>
</glyph>
<glyph name="Ecaron" format="1">
  <advance width="573"/>
  <unicode hex="011A"/>
  <outline>
    <contour>
      <point x="343" y="701" type="line"/>
      <point x="364" y="701" type="line"/>
      <point x="499" y="792" type="line"/>
      <point x="482" y="825" type="line"/>
      <point x="361" y="761" type="line"/>
      <point x="251" y="823" type="line"/>
      <point x="229" y="790" type="line"/>
    </contour>
    <contour>
      <point x="481" y="0" type="line"/>
      <point x="12" y="0" type="line"/>
      <point x="18" y="64" type="line"/>
      <point x="98" y="64" type="line"/>
      <point x="154" y="586" type="line"/>
      <point x="73" y="586" type="line"/>
      <point x="80" y="650" type="line"/>
      <point x="545" y="650" type="line"/>
      <point x="545" y="466" type="line"/>
      <point x="482" y="459" type="line"/>
      <point x="476" y="586" type="line"/>
      <point x="225" y="586" type="line"/>
      <point x="200" y="362" type="line"/>
      <point x="502" y="362" type="line"/>
      <point x="496" y="298" type="line"/>
      <point x="194" y="298" type="line"/>
      <point x="169" y="64" type="line"/>
      <point x="425" y="64" type="line"/>
      <point x="458" y="191" type="line"/>
      <point x="519" y="184" type="line"/>
    </contour>
  </outline>
</glyph>
<glyph name="Hcircumflex" format="1">
  <advance width="732"/>
  <unicode hex="0124"/>
  <outline>
    <contour>
      <point x="19" y="64" type="line"/>
      <point x="98" y="64" type="line"/>
      <point x="153" y="586" type="line"/>
      <point x="74" y="586" type="line"/>
      <point x="81" y="650" type="line"/>
      <point x="310" y="650" type="line"/>
      <point x="303" y="586" type="line"/>
      <point x="223" y="586" type="line"/>
      <point x="200" y="362" type="line"/>
      <point x="551" y="362" type="line"/>
      <point x="574" y="586" type="line"/>
      <point x="495" y="586" type="line"/>
      <point x="502" y="650" type="line"/>
      <point x="731" y="650" type="line"/>
      <point x="724" y="586" type="line"/>
      <point x="645" y="586" type="line"/>
      <point x="590" y="64" type="line"/>
      <point x="670" y="64" type="line"/>
      <point x="663" y="0" type="line"/>
      <point x="434" y="0" type="line"/>
      <point x="441" y="64" type="line"/>
      <point x="519" y="64" type="line"/>
      <point x="544" y="300" type="line"/>
      <point x="193" y="300" type="line"/>
      <point x="168" y="64" type="line"/>
      <point x="248" y="64" type="line"/>
      <point x="242" y="0" type="line"/>
      <point x="13" y="0" type="line"/>
    </contour>
    <contour>
      <point x="439" y="825" type="line"/>
      <point x="418" y="825" type="line"/>
      <point x="282" y="733" type="line"/>
      <point x="300" y="701" type="line"/>
      <point x="420" y="764" type="line"/>
      <point x="531" y="702" type="line"/>
      <point x="552" y="736" type="line"/>
    </contour>
  </outline>
</glyph>
<glyph name="hcircumflex" format="1">
  <advance width="505"/>
  <unicode hex="0125"/>
  <outline>
    <contour>
      <point x="46" y="669" type="line"/>
      <point x="68" y="688" type="line"/>
      <point x="192" y="688" type="line"/>
      <point x="152" y="365" type="line"/>
      <point x="184" y="419"/>
      <point x="231" y="454"/>
      <point x="300" y="454" type="curve" smooth="yes"/>
      <point x="384" y="454"/>
      <point x="442" y="403"/>
      <point x="427" y="285" type="curve" smooth="yes"/>
      <point x="399" y="57" type="line"/>
      <point x="474" y="57" type="line"/>
      <point x="469" y="17" type="line"/>
      <point x="448" y="0" type="line"/>
      <point x="325" y="0" type="line"/>
      <point x="357" y="264" type="line" smooth="yes"/>
      <point x="369" y="360"/>
      <point x="333" y="397"/>
      <point x="272" y="397" type="curve" smooth="yes"/>
      <point x="201" y="397"/>
      <point x="155" y="339"/>
      <point x="142" y="278" type="curve"/>
      <point x="108" y="0" type="line"/>
      <point x="40" y="0" type="line"/>
      <point x="117" y="631" type="line"/>
      <point x="41" y="631" type="line"/>
    </contour>
    <contour>
      <point x="170" y="867" type="line"/>
      <point x="148" y="867" type="line"/>
      <point x="16" y="746" type="line"/>
      <point x="40" y="715" type="line"/>
      <point x="150" y="801" type="line"/>
      <point x="247" y="715" type="line"/>
      <point x="276" y="746" type="line"/>
    </contour>
  </outline>
</glyph>
<glyph name="hbar" format="1">
  <advance width="505"/>
  <unicode hex="0127"/>
  <outline>
    <contour>
      <point x="46" y="669" type="line"/>
      <point x="68" y="688" type="line"/>
      <point x="192" y="688" type="line"/>
      <point x="177" y="566" type="line"/>
      <point x="316" y="566" type="line"/>
      <point x="312" y="540" type="line"/>
      <point x="289" y="520" type="line"/>
      <point x="171" y="520" type="line"/>
      <point x="152" y="365" type="line"/>
      <point x="184" y="419"/>
      <point x="231" y="454"/>
      <point x="300" y="454" type="curve" smooth="yes"/>
      <point x="384" y="454"/>
      <point x="442" y="403"/>
      <point x="427" y="285" type="curve" smooth="yes"/>
      <point x="399" y="57" type="line"/>
      <point x="474" y="57" type="line"/>
      <point x="469" y="17" type="line"/>
      <point x="448" y="0" type="line"/>
      <point x="325" y="0" type="line"/>
      <point x="357" y="264" type="line" smooth="yes"/>
      <point x="369" y="360"/>
      <point x="333" y="397"/>
      <point x="272" y="397" type="curve" smooth="yes"/>
      <point x="201" y="397"/>
      <point x="155" y="339"/>
      <point x="142" y="278" type="curve"/>
      <point x="108" y="0" type="line"/>
      <point x="40" y="0" type="line"/>
      <point x="103" y="520" type="line"/>
      <point x="10" y="520" type="line"/>
      <point x="13" y="545" type="line"/>
      <point x="36" y="566" type="line"/>
      <point x="109" y="566" type="line"/>
      <point x="117" y="631" type="line"/>
      <point x="41" y="631" type="line"/>
    </contour>
  </outline>
</glyph>
<glyph name="itilde" format="1">
  <advance width="255"/>
  <unicode hex="0129"/>
  <outline>
    <contour>
      <point x="36" y="426" type="line"/>
      <point x="57" y="445" type="line"/>
      <point x="183" y="445" type="line"/>
      <point x="136" y="57" type="line"/>
      <point x="211" y="57" type="line"/>
      <point x="206" y="17" type="line"/>
      <point x="184" y="0" type="line"/>
      <point x="61" y="0" type="line"/>
      <point x="108" y="388" type="line"/>
      <point x="31" y="388" type="line"/>
    </contour>
    <contour>
      <point x="41" y="549" type="line"/>
      <point x="54" y="581"/>
      <point x="76" y="592"/>
      <point x="95" y="592" type="curve" smooth="yes"/>
      <point x="131" y="592"/>
      <point x="160" y="553"/>
      <point x="211" y="553" type="curve" smooth="yes"/>
      <point x="257" y="553"/>
      <point x="281" y="592"/>
      <point x="296" y="646" type="curve"/>
      <point x="261" y="655" type="line"/>
      <point x="248" y="619"/>
      <point x="230" y="612"/>
      <point x="212" y="612" type="curve" smooth="yes"/>
      <point x="165" y="612"/>
      <point x="142" y="649"/>
      <point x="99" y="649" type="curve" smooth="yes"/>
      <point x="49" y="649"/>
      <point x="17" y="596"/>
      <point x="9" y="561" type="curve"/>
    </contour>
  </outline>
</glyph>
<glyph name="Imacron" format="1">
  <advance width="311"/>
  <unicode hex="012A"/>
  <outline>
    <contour>
      <point x="19" y="64" type="line"/>
      <point x="98" y="64" type="line"/>
      <point x="153" y="586" type="line"/>
      <point x="73" y="586" type="line"/>
      <point x="80" y="650" type="line"/>
      <point x="309" y="650" type="line"/>
      <point x="303" y="586" type="line"/>
      <point x="222" y="586" type="line"/>
      <point x="167" y="64" type="line"/>
      <point x="248" y="64" type="line"/>
      <point x="241" y="0" type="line"/>
      <point x="12" y="0" type="line"/>
    </contour>
    <contour>
      <point x="75" y="790" type="line"/>
      <point x="348" y="790" type="line"/>
      <point x="342" y="733" type="line"/>
      <point x="69" y="733" type="line"/>
    </contour>
  </outline>
</glyph>
<glyph name="imacron" format="1">
  <advance width="256"/>
  <unicode hex="012B"/>
  <outline>
    <contour>
      <point x="36" y="426" type="line"/>
      <point x="57" y="445" type="line"/>
      <point x="183" y="445" type="line"/>
      <point x="136" y="57" type="line"/>
      <point x="211" y="57" type="line"/>
      <point x="206" y="17" type="line"/>
      <point x="184" y="0" type="line"/>
      <point x="61" y="0" type="line"/>
      <point x="108" y="388" type="line"/>
      <point x="31" y="388" type="line"/>
    </contour>
    <contour>
      <point x="32" y="621" type="line"/>
      <point x="272" y="621" type="line"/>
      <point x="266" y="564" type="line"/>
      <point x="26" y="564" type="line"/>
    </contour>
  </outline>
</glyph>
<glyph name="Ibreve" format="1">
  <advance width="311"/>
  <unicode hex="012C"/>
  <outline>
    <contour>
      <point x="19" y="64" type="line"/>
      <point x="98" y="64" type="line"/>
      <point x="153" y="586" type="line"/>
      <point x="73" y="586" type="line"/>
      <point x="80" y="650" type="line"/>
      <point x="309" y="650" type="line"/>
      <point x="303" y="586" type="line"/>
      <point x="222" y="586" type="line"/>
      <point x="167" y="64" type="line"/>
      <point x="248" y="64" type="line"/>
      <point x="241" y="0" type="line"/>
      <point x="12" y="0" type="line"/>
    </contour>
    <contour>
      <point x="270" y="816" type="curve"/>
      <point x="328" y="816" type="line"/>
      <point x="319" y="733"/>
      <point x="271" y="699"/>
      <point x="195" y="699" type="curve" smooth="yes"/>
      <point x="119" y="699"/>
      <point x="80" y="735"/>
      <point x="88" y="816" type="curve"/>
      <point x="146" y="816" type="line"/>
      <point x="140" y="764"/>
      <point x="160" y="747"/>
      <point x="200" y="747" type="curve" smooth="yes"/>
      <point x="244" y="747"/>
      <point x="265" y="767"/>
    </contour>
  </outline>
</glyph>
<glyph name="ibreve" format="1">
  <advance width="256"/>
  <unicode hex="012D"/>
  <outline>
    <contour>
      <point x="36" y="426" type="line"/>
      <point x="57" y="445" type="line"/>
      <point x="183" y="445" type="line"/>
      <point x="136" y="57" type="line"/>
      <point x="211" y="57" type="line"/>
      <point x="206" y="17" type="line"/>
      <point x="184" y="0" type="line"/>
      <point x="61" y="0" type="line"/>
      <point x="108" y="388" type="line"/>
      <point x="31" y="388" type="line"/>
    </contour>
    <contour>
      <point x="232" y="655" type="curve"/>
      <point x="290" y="655" type="line"/>
      <point x="281" y="572"/>
      <point x="234" y="532"/>
      <point x="157" y="532" type="curve" smooth="yes"/>
      <point x="81" y="532"/>
      <point x="42" y="574"/>
      <point x="51" y="655" type="curve"/>
      <point x="109" y="655" type="line"/>
      <point x="102" y="601"/>
      <point x="122" y="580"/>
      <point x="163" y="580" type="curve" smooth="yes"/>
      <point x="206" y="580"/>
      <point x="227" y="604"/>
    </contour>
  </outline>
</glyph>
<glyph name="iogonek" format="1">
  <advance width="256"/>
  <unicode hex="012F"/>
  <outline>
    <contour>
      <point x="194" y="-189" type="line"/>
      <point x="171" y="-201"/>
      <point x="144" y="-209"/>
      <point x="114" y="-209" type="curve" smooth="yes"/>
      <point x="57" y="-209"/>
      <point x="21" y="-179"/>
      <point x="21" y="-126" type="curve" smooth="yes"/>
      <point x="21" y="-73"/>
      <point x="58" y="-27"/>
      <point x="105" y="0" type="curve"/>
      <point x="61" y="0" type="line"/>
      <point x="108" y="388" type="line"/>
      <point x="31" y="388" type="line"/>
      <point x="36" y="426" type="line"/>
      <point x="57" y="445" type="line"/>
      <point x="183" y="445" type="line"/>
      <point x="136" y="57" type="line"/>
      <point x="211" y="57" type="line"/>
      <point x="206" y="17" type="line"/>
      <point x="184" y="0" type="line"/>
      <point x="158" y="0" type="line"/>
      <point x="100" y="-33"/>
      <point x="84" y="-73"/>
      <point x="84" y="-106" type="curve" smooth="yes"/>
      <point x="84" y="-143"/>
      <point x="104" y="-155"/>
      <point x="136" y="-155" type="curve" smooth="yes"/>
      <point x="153" y="-155"/>
      <point x="171" y="-151"/>
      <point x="191" y="-140" type="curve"/>
    </contour>
    <contour>
      <point x="125" y="560" type="line"/>
      <point x="199" y="560" type="line"/>
      <point x="208" y="651" type="line"/>
      <point x="134" y="651" type="line"/>
    </contour>
  </outline>
</glyph>
<glyph name="dotlessi" format="1">
  <advance width="255"/>
  <unicode hex="0131"/>
  <outline>
    <contour>
      <point x="36" y="426" type="line"/>
      <point x="57" y="445" type="line"/>
      <point x="183" y="445" type="line"/>
      <point x="136" y="57" type="line"/>
      <point x="211" y="57" type="line"/>
      <point x="206" y="17" type="line"/>
      <point x="184" y="0" type="line"/>
      <point x="61" y="0" type="line"/>
      <point x="108" y="388" type="line"/>
      <point x="31" y="388" type="line"/>
    </contour>
    <contour>
      <point x="246" y="566" type="move" name="top"/>
    </contour>
  </outline>
</glyph>
<glyph name="jcircumflex" format="1">
  <advance width="246"/>
  <unicode hex="0135"/>
  <outline>
    <contour>
      <point x="25" y="426" type="line"/>
      <point x="46" y="445" type="line"/>
      <point x="194" y="445" type="line"/>
      <point x="137" y="-18" type="line" smooth="yes"/>
      <point x="121" y="-149"/>
      <point x="72" y="-220"/>
      <point x="-3" y="-223" type="curve" smooth="yes"/>
      <point x="-30" y="-224"/>
      <point x="-56" y="-216"/>
      <point x="-79" y="-205" type="curve"/>
      <point x="-75" y="-154" type="line"/>
      <point x="-8" y="-182"/>
      <point x="52" y="-162"/>
      <point x="70" y="-18" type="curve" smooth="yes"/>
      <point x="119" y="388" type="line"/>
      <point x="20" y="388" type="line"/>
    </contour>
    <contour>
      <point x="169" y="671" type="line"/>
      <point x="147" y="671" type="line"/>
      <point x="15" y="550" type="line"/>
      <point x="39" y="519" type="line"/>
      <point x="149" y="605" type="line"/>
      <point x="246" y="519" type="line"/>
      <point x="275" y="550" type="line"/>
    </contour>
  </outline>
</glyph>
<glyph name="kcommaaccent" format="1">
  <advance width="446"/>
  <unicode hex="0137"/>
  <outline>
    <contour>
      <point x="46" y="669" type="line"/>
      <point x="68" y="688" type="line"/>
      <point x="192" y="688" type="line"/>
      <point x="139" y="258" type="line"/>
      <point x="221" y="258" type="line"/>
      <point x="282" y="312"/>
      <point x="320" y="372"/>
      <point x="326" y="445" type="curve"/>
      <point x="398" y="445" type="line"/>
      <point x="392" y="362"/>
      <point x="338" y="288"/>
      <point x="261" y="234" type="curve"/>
      <point x="358" y="57" type="line"/>
      <point x="420" y="57" type="line"/>
      <point x="415" y="17" type="line"/>
      <point x="394" y="0" type="line"/>
      <point x="316" y="0" type="line"/>
      <point x="207" y="205" type="line"/>
      <point x="133" y="205" type="line"/>
      <point x="108" y="0" type="line"/>
      <point x="40" y="0" type="line"/>
      <point x="117" y="631" type="line"/>
      <point x="41" y="631" type="line"/>
    </contour>
    <contour>
      <point x="235" y="-64" type="line"/>
      <point x="169" y="-64" type="line"/>
      <point x="145" y="-218" type="line"/>
      <point x="201" y="-218" type="line"/>
    </contour>
  </outline>
</glyph>
<glyph name="Lacute" format="1">
  <advance width="528"/>
  <unicode hex="0139"/>
  <outline>
    <contour>
      <point x="340" y="745" type="line"/>
      <point x="324" y="813" type="line"/>
      <point x="129" y="740" type="line"/>
      <point x="138" y="703" type="line"/>
    </contour>
    <contour>
      <point x="468" y="0" type="line"/>
      <point x="509" y="208" type="line"/>
      <point x="446" y="213" type="line"/>
      <point x="411" y="64" type="line"/>
      <point x="169" y="64" type="line"/>
      <point x="224" y="586" type="line"/>
      <point x="331" y="586" type="line"/>
      <point x="337" y="650" type="line"/>
      <point x="80" y="650" type="line"/>
      <point x="73" y="586" type="line"/>
      <point x="153" y="586" type="line"/>
      <point x="98" y="64" type="line"/>
      <point x="18" y="64" type="line"/>
      <point x="12" y="0" type="line"/>
    </contour>
  </outline>
</glyph>
<glyph name="lacute" format="1">
  <advance width="239"/>
  <unicode hex="013A"/>
  <outline>
    <contour>
      <point x="52" y="669" type="line"/>
      <point x="72" y="688" type="line"/>
      <point x="199" y="688" type="line"/>
      <point x="122" y="57" type="line"/>
      <point x="196" y="57" type="line"/>
      <point x="191" y="17" type="line"/>
      <point x="170" y="0" type="line"/>
      <point x="47" y="0" type="line"/>
      <point x="124" y="631" type="line"/>
      <point x="47" y="631" type="line"/>
    </contour>
    <contour>
      <point x="283" y="756" type="line"/>
      <point x="267" y="824" type="line"/>
      <point x="72" y="751" type="line"/>
      <point x="81" y="714" type="line"/>
    </contour>
  </outline>
</glyph>
<glyph name="Lcommaaccent" format="1">
  <advance width="528"/>
  <unicode hex="013B"/>
  <outline>
    <contour>
      <point x="285" y="-64" type="line"/>
      <point x="219" y="-64" type="line"/>
      <point x="195" y="-218" type="line"/>
      <point x="251" y="-218" type="line"/>
    </contour>
    <contour>
      <point x="468" y="0" type="line"/>
      <point x="509" y="208" type="line"/>
      <point x="446" y="213" type="line"/>
      <point x="411" y="64" type="line"/>
      <point x="169" y="64" type="line"/>
      <point x="224" y="586" type="line"/>
      <point x="331" y="586" type="line"/>
      <point x="337" y="650" type="line"/>
      <point x="80" y="650" type="line"/>
      <point x="73" y="586" type="line"/>
      <point x="153" y="586" type="line"/>
      <point x="98" y="64" type="line"/>
      <point x="18" y="64" type="line"/>
      <point x="12" y="0" type="line"/>
    </contour>
  </outline>
</glyph>
<glyph name="Lcaron" format="1">
  <advance width="527"/>
  <unicode hex="013D"/>
  <outline>
    <contour>
      <point x="462" y="681" type="line"/>
      <point x="397" y="681" type="line"/>
      <point x="361" y="457" type="line"/>
      <point x="417" y="457" type="line"/>
    </contour>
    <contour>
      <point x="468" y="0" type="line"/>
      <point x="509" y="208" type="line"/>
      <point x="446" y="213" type="line"/>
      <point x="411" y="64" type="line"/>
      <point x="169" y="64" type="line"/>
      <point x="224" y="586" type="line"/>
      <point x="331" y="586" type="line"/>
      <point x="337" y="650" type="line"/>
      <point x="80" y="650" type="line"/>
      <point x="73" y="586" type="line"/>
      <point x="153" y="586" type="line"/>
      <point x="98" y="64" type="line"/>
      <point x="18" y="64" type="line"/>
      <point x="12" y="0" type="line"/>
    </contour>
  </outline>
</glyph>
<glyph name="lcaron" format="1">
  <advance width="251"/>
  <unicode hex="013E"/>
  <outline>
    <contour>
      <point x="52" y="669" type="line"/>
      <point x="72" y="688" type="line"/>
      <point x="199" y="688" type="line"/>
      <point x="122" y="57" type="line"/>
      <point x="196" y="57" type="line"/>
      <point x="191" y="17" type="line"/>
      <point x="170" y="0" type="line"/>
      <point x="47" y="0" type="line"/>
      <point x="124" y="631" type="line"/>
      <point x="47" y="631" type="line"/>
    </contour>
    <contour>
      <point x="345" y="681" type="line"/>
      <point x="280" y="681" type="line"/>
      <point x="244" y="457" type="line"/>
      <point x="300" y="457" type="line"/>
    </contour>
  </outline>
</glyph>
<glyph name="Ldot" format="1">
  <advance width="528"/>
  <unicode hex="013F"/>
  <outline>
    <contour>
      <point x="468" y="0" type="line"/>
      <point x="509" y="208" type="line"/>
      <point x="446" y="213" type="line"/>
      <point x="411" y="64" type="line"/>
      <point x="169" y="64" type="line"/>
      <point x="224" y="586" type="line"/>
      <point x="331" y="586" type="line"/>
      <point x="337" y="650" type="line"/>
      <point x="80" y="650" type="line"/>
      <point x="73" y="586" type="line"/>
      <point x="153" y="586" type="line"/>
      <point x="98" y="64" type="line"/>
      <point x="18" y="64" type="line"/>
      <point x="12" y="0" type="line"/>
    </contour>
    <contour>
      <point x="320" y="293" type="line"/>
      <point x="394" y="293" type="line"/>
      <point x="403" y="384" type="line"/>
      <point x="329" y="384" type="line"/>
    </contour>
  </outline>
</glyph>
<glyph name="ldot" format="1">
  <advance width="286"/>
  <unicode hex="0140"/>
  <outline>
    <contour>
      <point x="52" y="669" type="line"/>
      <point x="72" y="688" type="line"/>
      <point x="199" y="688" type="line"/>
      <point x="122" y="57" type="line"/>
      <point x="196" y="57" type="line"/>
      <point x="191" y="17" type="line"/>
      <point x="170" y="0" type="line"/>
      <point x="47" y="0" type="line"/>
      <point x="124" y="631" type="line"/>
      <point x="47" y="631" type="line"/>
    </contour>
    <contour>
      <point x="219" y="293" type="line"/>
      <point x="293" y="293" type="line"/>
      <point x="302" y="384" type="line"/>
      <point x="228" y="384" type="line"/>
    </contour>
  </outline>
</glyph>
<glyph name="Lslash" format="1">
  <advance width="529"/>
  <unicode hex="0141"/>
  <outline>
    <contour>
      <point x="469" y="0" type="line"/>
      <point x="510" y="208" type="line"/>
      <point x="447" y="213" type="line"/>
      <point x="412" y="64" type="line"/>
      <point x="170" y="64" type="line"/>
      <point x="194" y="295" type="line"/>
      <point x="355" y="357" type="line"/>
      <point x="361" y="416" type="line"/>
      <point x="200" y="354" type="line"/>
      <point x="225" y="586" type="line"/>
      <point x="332" y="586" type="line"/>
      <point x="338" y="650" type="line"/>
      <point x="81" y="650" type="line"/>
      <point x="74" y="586" type="line"/>
      <point x="154" y="586" type="line"/>
      <point x="126" y="325" type="line"/>
      <point x="45" y="294" type="line"/>
      <point x="39" y="235" type="line"/>
      <point x="120" y="266" type="line"/>
      <point x="99" y="64" type="line"/>
      <point x="19" y="64" type="line"/>
      <point x="13" y="0" type="line"/>
    </contour>
  </outline>
</glyph>
<glyph name="Ncaron" format="1">
  <advance width="715"/>
  <unicode hex="0147"/>
  <outline>
    <contour>
      <point x="25" y="64" type="line"/>
      <point x="98" y="64" type="line"/>
      <point x="153" y="586" type="line"/>
      <point x="70" y="586" type="line"/>
      <point x="77" y="650" type="line"/>
      <point x="211" y="650" type="line"/>
      <point x="520" y="148" type="line"/>
      <point x="523" y="148" type="line"/>
      <point x="568" y="586" type="line"/>
      <point x="474" y="586" type="line"/>
      <point x="480" y="650" type="line"/>
      <point x="722" y="650" type="line"/>
      <point x="716" y="586" type="line"/>
      <point x="636" y="586" type="line"/>
      <point x="575" y="0" type="line"/>
      <point x="530" y="0" type="line"/>
      <point x="216" y="512" type="line"/>
      <point x="213" y="512" type="line"/>
      <point x="165" y="64" type="line"/>
      <point x="267" y="64" type="line"/>
      <point x="261" y="0" type="line"/>
      <point x="18" y="0" type="line"/>
    </contour>
    <contour>
      <point x="386" y="701" type="line"/>
      <point x="407" y="701" type="line"/>
      <point x="542" y="792" type="line"/>
      <point x="525" y="825" type="line"/>
      <point x="404" y="761" type="line"/>
      <point x="294" y="823" type="line"/>
      <point x="272" y="790" type="line"/>
    </contour>
  </outline>
</glyph>
<glyph name="Eng" format="1">
  <advance width="714"/>
  <unicode hex="014A"/>
  <outline>
    <contour>
      <point x="260" y="0" type="line"/>
      <point x="17" y="0" type="line"/>
      <point x="24" y="64" type="line"/>
      <point x="98" y="64" type="line"/>
      <point x="152" y="586" type="line"/>
      <point x="70" y="586" type="line"/>
      <point x="76" y="650" type="line"/>
      <point x="211" y="650" type="line"/>
      <point x="519" y="148" type="line"/>
      <point x="522" y="148" type="line"/>
      <point x="567" y="586" type="line"/>
      <point x="473" y="586" type="line"/>
      <point x="480" y="650" type="line"/>
      <point x="721" y="650" type="line"/>
      <point x="715" y="586" type="line"/>
      <point x="635" y="586" type="line"/>
      <point x="572" y="-22" type="line" smooth="yes"/>
      <point x="562" y="-137"/>
      <point x="493" y="-199"/>
      <point x="389" y="-199" type="curve" smooth="yes"/>
      <point x="305" y="-199"/>
      <point x="261" y="-159"/>
      <point x="240" y="-99" type="curve"/>
      <point x="296" y="-60" type="line"/>
      <point x="319" y="-113"/>
      <point x="346" y="-130"/>
      <point x="390" y="-130" type="curve" smooth="yes"/>
      <point x="461" y="-130"/>
      <point x="496" y="-84"/>
      <point x="500" y="-23" type="curve" smooth="yes"/>
      <point x="506" y="36" type="line"/>
      <point x="215" y="512" type="line"/>
      <point x="212" y="512" type="line"/>
      <point x="164" y="64" type="line"/>
      <point x="266" y="64" type="line"/>
    </contour>
  </outline>
</glyph>
<glyph name="eng" format="1">
  <advance width="510"/>
  <unicode hex="014B"/>
  <outline>
    <contour>
      <point x="409" y="-26" type="line"/>
      <point x="392" y="-159"/>
      <point x="342" y="-222"/>
      <point x="267" y="-223" type="curve" smooth="yes"/>
      <point x="239" y="-223"/>
      <point x="215" y="-216"/>
      <point x="193" y="-205" type="curve"/>
      <point x="196" y="-154" type="line"/>
      <point x="264" y="-182"/>
      <point x="322" y="-170"/>
      <point x="340" y="-26" type="curve" smooth="yes"/>
      <point x="376" y="264" type="line"/>
      <point x="387" y="360"/>
      <point x="354" y="397"/>
      <point x="290" y="397" type="curve" smooth="yes"/>
      <point x="218" y="397"/>
      <point x="172" y="336"/>
      <point x="160" y="273" type="curve"/>
      <point x="126" y="0" type="line"/>
      <point x="59" y="0" type="line"/>
      <point x="106" y="388" type="line"/>
      <point x="28" y="388" type="line"/>
      <point x="33" y="426" type="line"/>
      <point x="55" y="445" type="line"/>
      <point x="169" y="445" type="line"/>
      <point x="168" y="359" type="line"/>
      <point x="200" y="417"/>
      <point x="248" y="454"/>
      <point x="318" y="454" type="curve" smooth="yes"/>
      <point x="403" y="454"/>
      <point x="460" y="403"/>
      <point x="446" y="285" type="curve" smooth="yes"/>
    </contour>
  </outline>
</glyph>
<glyph name="Omacron" format="1">
  <advance width="710"/>
  <unicode hex="014C"/>
  <outline>
    <contour>
      <point x="279" y="790" type="line"/>
      <point x="552" y="790" type="line"/>
      <point x="546" y="733" type="line"/>
      <point x="273" y="733" type="line"/>
    </contour>
    <contour>
      <point x="393" y="660" type="curve" smooth="yes"/>
      <point x="194" y="660"/>
      <point x="42" y="494"/>
      <point x="42" y="291" type="curve" smooth="yes"/>
      <point x="42" y="125"/>
      <point x="148" y="-10"/>
      <point x="325" y="-10" type="curve" smooth="yes"/>
      <point x="529" y="-10"/>
      <point x="678" y="159"/>
      <point x="678" y="359" type="curve" smooth="yes"/>
      <point x="678" y="526"/>
      <point x="569" y="660"/>
    </contour>
    <contour>
      <point x="336" y="56" type="curve" smooth="yes"/>
      <point x="187" y="56"/>
      <point x="118" y="167"/>
      <point x="118" y="297" type="curve" smooth="yes"/>
      <point x="118" y="458"/>
      <point x="226" y="594"/>
      <point x="385" y="594" type="curve" smooth="yes"/>
      <point x="524" y="594"/>
      <point x="602" y="494"/>
      <point x="602" y="354" type="curve" smooth="yes"/>
      <point x="602" y="196"/>
      <point x="500" y="56"/>
    </contour>
  </outline>
</glyph>
<glyph name="omacron" format="1">
  <advance width="481"/>
  <unicode hex="014D"/>
  <outline>
    <contour>
      <point x="168" y="621" type="line"/>
      <point x="408" y="621" type="line"/>
      <point x="402" y="564" type="line"/>
      <point x="162" y="564" type="line"/>
    </contour>
    <contour>
      <point x="31" y="189" type="curve" smooth="yes"/>
      <point x="31" y="329"/>
      <point x="109" y="454"/>
      <point x="260" y="454" type="curve" smooth="yes"/>
      <point x="388" y="454"/>
      <point x="437" y="364"/>
      <point x="437" y="252" type="curve" smooth="yes"/>
      <point x="437" y="104"/>
      <point x="352" y="-10"/>
      <point x="208" y="-10" type="curve" smooth="yes"/>
      <point x="87" y="-10"/>
      <point x="31" y="71"/>
    </contour>
    <contour>
      <point x="105" y="193" type="curve" smooth="yes"/>
      <point x="105" y="107"/>
      <point x="131" y="47"/>
      <point x="215" y="47" type="curve" smooth="yes"/>
      <point x="319" y="47"/>
      <point x="364" y="140"/>
      <point x="364" y="250" type="curve" smooth="yes"/>
      <point x="364" y="337"/>
      <point x="337" y="397"/>
      <point x="252" y="397" type="curve" smooth="yes"/>
      <point x="155" y="397"/>
      <point x="105" y="313"/>
    </contour>
  </outline>
</glyph>
<glyph name="Obreve" format="1">
  <advance width="710"/>
  <unicode hex="014E"/>
  <outline>
    <contour>
      <point x="481" y="816" type="curve"/>
      <point x="539" y="816" type="line"/>
      <point x="530" y="733"/>
      <point x="482" y="699"/>
      <point x="406" y="699" type="curve" smooth="yes"/>
      <point x="330" y="699"/>
      <point x="291" y="735"/>
      <point x="299" y="816" type="curve"/>
      <point x="357" y="816" type="line"/>
      <point x="351" y="764"/>
      <point x="371" y="747"/>
      <point x="411" y="747" type="curve" smooth="yes"/>
      <point x="455" y="747"/>
      <point x="476" y="767"/>
    </contour>
    <contour>
      <point x="393" y="660" type="curve" smooth="yes"/>
      <point x="194" y="660"/>
      <point x="42" y="494"/>
      <point x="42" y="291" type="curve" smooth="yes"/>
      <point x="42" y="125"/>
      <point x="148" y="-10"/>
      <point x="325" y="-10" type="curve" smooth="yes"/>
      <point x="529" y="-10"/>
      <point x="678" y="159"/>
      <point x="678" y="359" type="curve" smooth="yes"/>
      <point x="678" y="526"/>
      <point x="569" y="660"/>
    </contour>
    <contour>
      <point x="336" y="56" type="curve" smooth="yes"/>
      <point x="187" y="56"/>
      <point x="118" y="167"/>
      <point x="118" y="297" type="curve" smooth="yes"/>
      <point x="118" y="458"/>
      <point x="226" y="594"/>
      <point x="385" y="594" type="curve" smooth="yes"/>
      <point x="524" y="594"/>
      <point x="602" y="494"/>
      <point x="602" y="354" type="curve" smooth="yes"/>
      <point x="602" y="196"/>
      <point x="500" y="56"/>
    </contour>
  </outline>
</glyph>
<glyph name="ohungarumlaut" format="1">
  <advance width="480"/>
  <unicode hex="0151"/>
  <outline>
    <contour>
      <point x="494" y="624" type="line"/>
      <point x="461" y="683" type="line"/>
      <point x="296" y="551" type="line"/>
      <point x="314" y="520" type="line"/>
    </contour>
    <contour>
      <point x="347" y="678" type="line"/>
      <point x="294" y="718" type="line"/>
      <point x="178" y="541" type="line"/>
      <point x="207" y="519" type="line"/>
    </contour>
    <contour>
      <point x="31" y="189" type="curve" smooth="yes"/>
      <point x="31" y="329"/>
      <point x="109" y="454"/>
      <point x="260" y="454" type="curve" smooth="yes"/>
      <point x="388" y="454"/>
      <point x="437" y="364"/>
      <point x="437" y="252" type="curve" smooth="yes"/>
      <point x="437" y="104"/>
      <point x="352" y="-10"/>
      <point x="208" y="-10" type="curve" smooth="yes"/>
      <point x="87" y="-10"/>
      <point x="31" y="71"/>
    </contour>
    <contour>
      <point x="105" y="193" type="curve" smooth="yes"/>
      <point x="105" y="107"/>
      <point x="131" y="47"/>
      <point x="215" y="47" type="curve" smooth="yes"/>
      <point x="319" y="47"/>
      <point x="364" y="140"/>
      <point x="364" y="250" type="curve" smooth="yes"/>
      <point x="364" y="337"/>
      <point x="337" y="397"/>
      <point x="252" y="397" type="curve" smooth="yes"/>
      <point x="155" y="397"/>
      <point x="105" y="313"/>
    </contour>
  </outline>
</glyph>
<glyph name="OE" format="1">
  <advance width="979"/>
  <unicode hex="0152"/>
  <outline>
    <contour>
      <point x="890" y="0" type="line"/>
      <point x="927" y="184" type="line"/>
      <point x="867" y="191" type="line"/>
      <point x="834" y="64" type="line"/>
      <point x="573" y="64" type="line"/>
      <point x="598" y="298" type="line"/>
      <point x="899" y="298" type="line"/>
      <point x="905" y="362" type="line"/>
      <point x="604" y="362" type="line"/>
      <point x="629" y="586" type="line"/>
      <point x="885" y="586" type="line"/>
      <point x="891" y="459" type="line"/>
      <point x="953" y="466" type="line"/>
      <point x="953" y="650" type="line"/>
      <point x="563" y="650" type="line"/>
      <point x="559" y="611" type="line"/>
      <point x="515" y="642"/>
      <point x="463" y="660"/>
      <point x="397" y="660" type="curve" smooth="yes"/>
      <point x="190" y="660"/>
      <point x="42" y="500"/>
      <point x="42" y="298" type="curve" smooth="yes"/>
      <point x="42" y="130"/>
      <point x="151" y="-10"/>
      <point x="329" y="-10" type="curve" smooth="yes"/>
      <point x="395" y="-10"/>
      <point x="451" y="9"/>
      <point x="499" y="38" type="curve"/>
      <point x="495" y="0" type="line"/>
    </contour>
    <contour>
      <point x="340" y="56" type="curve" smooth="yes"/>
      <point x="194" y="56"/>
      <point x="119" y="168"/>
      <point x="119" y="302" type="curve" smooth="yes"/>
      <point x="119" y="460"/>
      <point x="221" y="594"/>
      <point x="392" y="594" type="curve" smooth="yes"/>
      <point x="457" y="594"/>
      <point x="511" y="574"/>
      <point x="551" y="534" type="curve"/>
      <point x="507" y="116" type="line"/>
      <point x="466" y="78"/>
      <point x="406" y="56"/>
    </contour>
  </outline>
</glyph>
<glyph name="rcommaaccent" format="1">
  <advance width="343"/>
  <unicode hex="0157"/>
  <outline>
    <contour>
      <point x="231" y="18" type="line"/>
      <point x="210" y="0" type="line"/>
      <point x="-1" y="0" type="line"/>
      <point x="4" y="38" type="line"/>
      <point x="25" y="57" type="line"/>
      <point x="75" y="57" type="line"/>
      <point x="116" y="388" type="line"/>
      <point x="39" y="388" type="line"/>
      <point x="44" y="426" type="line"/>
      <point x="65" y="445" type="line"/>
      <point x="176" y="445" type="line"/>
      <point x="174" y="344" type="line"/>
      <point x="199" y="403"/>
      <point x="237" y="455"/>
      <point x="292" y="455" type="curve" smooth="yes"/>
      <point x="311" y="455"/>
      <point x="328" y="450"/>
      <point x="346" y="438" type="curve"/>
      <point x="333" y="367" type="line"/>
      <point x="313" y="378"/>
      <point x="297" y="382"/>
      <point x="280" y="382" type="curve" smooth="yes"/>
      <point x="224" y="382"/>
      <point x="183" y="320"/>
      <point x="169" y="256" type="curve"/>
      <point x="143" y="57" type="line"/>
      <point x="236" y="57" type="line"/>
    </contour>
    <contour>
      <point x="126" y="-64" type="line"/>
      <point x="60" y="-64" type="line"/>
      <point x="36" y="-218" type="line"/>
      <point x="92" y="-218" type="line"/>
    </contour>
  </outline>
</glyph>
<glyph name="Rcaron" format="1">
  <advance width="598"/>
  <unicode hex="0158"/>
  <outline>
    <contour>
      <point x="19" y="64" type="line"/>
      <point x="98" y="64" type="line"/>
      <point x="153" y="586" type="line"/>
      <point x="74" y="586" type="line"/>
      <point x="81" y="650" type="line"/>
      <point x="346" y="650" type="line" smooth="yes"/>
      <point x="489" y="650"/>
      <point x="554" y="580"/>
      <point x="554" y="485" type="curve" smooth="yes"/>
      <point x="554" y="384"/>
      <point x="501" y="315"/>
      <point x="397" y="288" type="curve"/>
      <point x="488" y="64" type="line"/>
      <point x="568" y="64" type="line"/>
      <point x="560" y="0" type="line"/>
      <point x="434" y="0" type="line"/>
      <point x="328" y="272" type="line"/>
      <point x="190" y="272" type="line"/>
      <point x="168" y="64" type="line"/>
      <point x="254" y="64" type="line"/>
      <point x="248" y="0" type="line"/>
      <point x="13" y="0" type="line"/>
    </contour>
    <contour>
      <point x="312" y="333" type="line" smooth="yes"/>
      <point x="432" y="333"/>
      <point x="479" y="396"/>
      <point x="479" y="479" type="curve" smooth="yes"/>
      <point x="479" y="552"/>
      <point x="431" y="586"/>
      <point x="330" y="586" type="curve" smooth="yes"/>
      <point x="223" y="586" type="line"/>
      <point x="197" y="333" type="line"/>
    </contour>
    <contour>
      <point x="319" y="701" type="line"/>
      <point x="340" y="701" type="line"/>
      <point x="475" y="792" type="line"/>
      <point x="458" y="825" type="line"/>
      <point x="337" y="761" type="line"/>
      <point x="227" y="823" type="line"/>
      <point x="205" y="790" type="line"/>
    </contour>
  </outline>
</glyph>
<glyph name="rcaron" format="1">
  <advance width="343"/>
  <unicode hex="0159"/>
  <outline>
    <contour>
      <point x="231" y="18" type="line"/>
      <point x="210" y="0" type="line"/>
      <point x="-1" y="0" type="line"/>
      <point x="4" y="38" type="line"/>
      <point x="25" y="57" type="line"/>
      <point x="75" y="57" type="line"/>
      <point x="116" y="388" type="line"/>
      <point x="39" y="388" type="line"/>
      <point x="44" y="426" type="line"/>
      <point x="65" y="445" type="line"/>
      <point x="176" y="445" type="line"/>
      <point x="174" y="344" type="line"/>
      <point x="199" y="403"/>
      <point x="237" y="455"/>
      <point x="292" y="455" type="curve" smooth="yes"/>
      <point x="311" y="455"/>
      <point x="328" y="450"/>
      <point x="346" y="438" type="curve"/>
      <point x="333" y="367" type="line"/>
      <point x="313" y="378"/>
      <point x="297" y="382"/>
      <point x="280" y="382" type="curve" smooth="yes"/>
      <point x="224" y="382"/>
      <point x="183" y="320"/>
      <point x="169" y="256" type="curve"/>
      <point x="143" y="57" type="line"/>
      <point x="236" y="57" type="line"/>
    </contour>
    <contour>
      <point x="220" y="519" type="line"/>
      <point x="242" y="519" type="line"/>
      <point x="373" y="638" type="line"/>
      <point x="350" y="670" type="line"/>
      <point x="239" y="585" type="line"/>
      <point x="144" y="667" type="line"/>
      <point x="115" y="636" type="line"/>
    </contour>
  </outline>
</glyph>
<glyph name="sacute" format="1">
  <advance width="418"/>
  <unicode hex="015B"/>
  <outline>
    <contour>
      <point x="389" y="624" type="line"/>
      <point x="354" y="683" type="line"/>
      <point x="189" y="551" type="line"/>
      <point x="207" y="520" type="line"/>
    </contour>
    <contour>
      <point x="181" y="47" type="curve" smooth="yes"/>
      <point x="253" y="47"/>
      <point x="289" y="75"/>
      <point x="289" y="124" type="curve" smooth="yes"/>
      <point x="289" y="179"/>
      <point x="242" y="189"/>
      <point x="172" y="208" type="curve" smooth="yes"/>
      <point x="114" y="223"/>
      <point x="55" y="244"/>
      <point x="55" y="321" type="curve" smooth="yes"/>
      <point x="55" y="409"/>
      <point x="130" y="454"/>
      <point x="214" y="454" type="curve"/>
      <point x="274" y="454"/>
      <point x="332" y="436"/>
      <point x="368" y="413" type="curve"/>
      <point x="366" y="309" type="line"/>
      <point x="311" y="302" type="line"/>
      <point x="307" y="373" type="line"/>
      <point x="282" y="386"/>
      <point x="256" y="397"/>
      <point x="220" y="397" type="curve"/>
      <point x="160" y="397"/>
      <point x="126" y="370"/>
      <point x="126" y="328" type="curve" smooth="yes"/>
      <point x="126" y="288"/>
      <point x="156" y="274"/>
      <point x="221" y="257" type="curve" smooth="yes"/>
      <point x="282" y="241"/>
      <point x="360" y="222"/>
      <point x="360" y="130" type="curve" smooth="yes"/>
      <point x="360" y="43"/>
      <point x="291" y="-10"/>
      <point x="191" y="-10" type="curve"/>
      <point x="130" y="-10"/>
      <point x="55" y="9"/>
      <point x="20" y="34" type="curve"/>
      <point x="44" y="135" type="line"/>
      <point x="99" y="129" type="line"/>
      <point x="89" y="67" type="line"/>
      <point x="116" y="53"/>
      <point x="149" y="47"/>
    </contour>
  </outline>
</glyph>
<glyph name="Scedilla" format="1">
  <advance width="523"/>
  <unicode hex="015E"/>
  <outline>
    <contour>
      <point x="468" y="194" type="curve" smooth="yes"/>
      <point x="468" y="72"/>
      <point x="392" y="0"/>
      <point x="257" y="-9" type="curve"/>
      <point x="253" y="-47" type="line"/>
      <point x="261" y="-47" type="line" smooth="yes"/>
      <point x="316" y="-47"/>
      <point x="340" y="-76"/>
      <point x="340" y="-119" type="curve" smooth="yes"/>
      <point x="340" y="-181"/>
      <point x="285" y="-209"/>
      <point x="224" y="-209" type="curve" smooth="yes"/>
      <point x="188" y="-209"/>
      <point x="155" y="-199"/>
      <point x="134" y="-179" type="curve"/>
      <point x="155" y="-138" type="line"/>
      <point x="170" y="-151"/>
      <point x="196" y="-161"/>
      <point x="225" y="-161" type="curve" smooth="yes"/>
      <point x="258" y="-161"/>
      <point x="280" y="-148"/>
      <point x="280" y="-117" type="curve" smooth="yes"/>
      <point x="280" y="-87"/>
      <point x="259" y="-80"/>
      <point x="227" y="-80" type="curve" smooth="yes"/>
      <point x="198" y="-80" type="line"/>
      <point x="207" y="-9" type="line"/>
      <point x="132" y="-6"/>
      <point x="59" y="13"/>
      <point x="24" y="43" type="curve"/>
      <point x="50" y="171" type="line"/>
      <point x="107" y="165" type="line"/>
      <point x="96" y="83" type="line"/>
      <point x="134" y="62"/>
      <point x="187" y="54"/>
      <point x="228" y="54" type="curve" smooth="yes"/>
      <point x="324" y="54"/>
      <point x="391" y="92"/>
      <point x="391" y="185" type="curve" smooth="yes"/>
      <point x="391" y="280"/>
      <point x="323" y="290"/>
      <point x="247" y="308" type="curve" smooth="yes"/>
      <point x="165" y="327"/>
      <point x="75" y="357"/>
      <point x="75" y="474" type="curve" smooth="yes"/>
      <point x="75" y="605"/>
      <point x="188" y="660"/>
      <point x="296" y="660" type="curve" smooth="yes"/>
      <point x="366" y="660"/>
      <point x="445" y="638"/>
      <point x="480" y="606" type="curve"/>
      <point x="473" y="477" type="line"/>
      <point x="413" y="471" type="line"/>
      <point x="413" y="568" type="line"/>
      <point x="375" y="590"/>
      <point x="331" y="595"/>
      <point x="299" y="595" type="curve" smooth="yes"/>
      <point x="208" y="595"/>
      <point x="151" y="553"/>
      <point x="151" y="480" type="curve" smooth="yes"/>
      <point x="151" y="405"/>
      <point x="209" y="390"/>
      <point x="280" y="372" type="curve" smooth="yes"/>
      <point x="380" y="348"/>
      <point x="468" y="325"/>
    </contour>
  </outline>
</glyph>
<glyph name="scedilla" format="1">
  <advance width="418"/>
  <unicode hex="015F"/>
  <outline>
    <contour>
      <point x="181" y="47" type="curve" smooth="yes"/>
      <point x="253" y="47"/>
      <point x="289" y="75"/>
      <point x="289" y="124" type="curve" smooth="yes"/>
      <point x="289" y="179"/>
      <point x="242" y="189"/>
      <point x="172" y="208" type="curve" smooth="yes"/>
      <point x="114" y="223"/>
      <point x="55" y="244"/>
      <point x="55" y="321" type="curve" smooth="yes"/>
      <point x="55" y="409"/>
      <point x="130" y="454"/>
      <point x="214" y="454" type="curve" smooth="yes"/>
      <point x="274" y="454"/>
      <point x="332" y="436"/>
      <point x="368" y="413" type="curve"/>
      <point x="366" y="309" type="line"/>
      <point x="311" y="302" type="line"/>
      <point x="307" y="373" type="line"/>
      <point x="282" y="386"/>
      <point x="256" y="397"/>
      <point x="220" y="397" type="curve" smooth="yes"/>
      <point x="160" y="397"/>
      <point x="126" y="370"/>
      <point x="126" y="328" type="curve" smooth="yes"/>
      <point x="126" y="288"/>
      <point x="156" y="274"/>
      <point x="221" y="257" type="curve" smooth="yes"/>
      <point x="282" y="241"/>
      <point x="360" y="222"/>
      <point x="360" y="130" type="curve" smooth="yes"/>
      <point x="360" y="46"/>
      <point x="296" y="-5"/>
      <point x="203" y="-9" type="curve"/>
      <point x="199" y="-47" type="line"/>
      <point x="207" y="-47" type="line" smooth="yes"/>
      <point x="262" y="-47"/>
      <point x="286" y="-76"/>
      <point x="286" y="-119" type="curve" smooth="yes"/>
      <point x="286" y="-181"/>
      <point x="231" y="-209"/>
      <point x="170" y="-209" type="curve" smooth="yes"/>
      <point x="134" y="-209"/>
      <point x="101" y="-199"/>
      <point x="80" y="-179" type="curve"/>
      <point x="101" y="-138" type="line"/>
      <point x="116" y="-151"/>
      <point x="142" y="-161"/>
      <point x="171" y="-161" type="curve" smooth="yes"/>
      <point x="204" y="-161"/>
      <point x="226" y="-148"/>
      <point x="226" y="-117" type="curve" smooth="yes"/>
      <point x="226" y="-87"/>
      <point x="205" y="-80"/>
      <point x="173" y="-80" type="curve" smooth="yes"/>
      <point x="144" y="-80" type="line"/>
      <point x="153" y="-8" type="line"/>
      <point x="101" y="-2"/>
      <point x="48" y="14"/>
      <point x="20" y="34" type="curve"/>
      <point x="44" y="135" type="line"/>
      <point x="99" y="129" type="line"/>
      <point x="89" y="67" type="line"/>
      <point x="116" y="53"/>
      <point x="149" y="47"/>
    </contour>
  </outline>
</glyph>
<glyph name="Utilde" format="1">
  <advance width="696"/>
  <unicode hex="0168"/>
  <outline>
    <contour>
      <point x="482" y="650" type="line"/>
      <point x="699" y="650" type="line"/>
      <point x="693" y="586" type="line"/>
      <point x="631" y="586" type="line"/>
      <point x="598" y="267" type="line" smooth="yes"/>
      <point x="583" y="129"/>
      <point x="519" y="-10"/>
      <point x="324" y="-10" type="curve" smooth="yes"/>
      <point x="136" y="-10"/>
      <point x="82" y="116"/>
      <point x="97" y="256" type="curve" smooth="yes"/>
      <point x="132" y="586" type="line"/>
      <point x="67" y="586" type="line"/>
      <point x="73" y="650" type="line"/>
      <point x="298" y="650" type="line"/>
      <point x="290" y="586" type="line"/>
      <point x="203" y="586" type="line"/>
      <point x="169" y="258" type="line" smooth="yes"/>
      <point x="156" y="130"/>
      <point x="206" y="56"/>
      <point x="331" y="56" type="curve" smooth="yes"/>
      <point x="448" y="56"/>
      <point x="516" y="128"/>
      <point x="531" y="267" type="curve" smooth="yes"/>
      <point x="564" y="586" type="line"/>
      <point x="475" y="586" type="line"/>
    </contour>
    <contour>
      <point x="292" y="705" type="line"/>
      <point x="306" y="737"/>
      <point x="328" y="744"/>
      <point x="346" y="744" type="curve" smooth="yes"/>
      <point x="384" y="744"/>
      <point x="414" y="709"/>
      <point x="463" y="709" type="curve" smooth="yes"/>
      <point x="509" y="709"/>
      <point x="534" y="744"/>
      <point x="548" y="798" type="curve"/>
      <point x="514" y="807" type="line"/>
      <point x="499" y="770"/>
      <point x="481" y="765"/>
      <point x="464" y="765" type="curve" smooth="yes"/>
      <point x="417" y="765"/>
      <point x="394" y="800"/>
      <point x="350" y="800" type="curve" smooth="yes"/>
      <point x="300" y="800"/>
      <point x="270" y="752"/>
      <point x="261" y="718" type="curve"/>
    </contour>
  </outline>
</glyph>
<glyph name="umacron" format="1">
  <advance width="522"/>
  <unicode hex="016B"/>
  <outline>
    <contour>
      <point x="483" y="57" type="line"/>
      <point x="478" y="19" type="line"/>
      <point x="456" y="0" type="line"/>
      <point x="341" y="0" type="line"/>
      <point x="342" y="85" type="line"/>
      <point x="311" y="28"/>
      <point x="264" y="-9"/>
      <point x="195" y="-9" type="curve" smooth="yes"/>
      <point x="110" y="-9"/>
      <point x="54" y="42"/>
      <point x="67" y="160" type="curve"/>
      <point x="95" y="388" type="line"/>
      <point x="20" y="388" type="line"/>
      <point x="25" y="428" type="line"/>
      <point x="47" y="445" type="line"/>
      <point x="170" y="445" type="line"/>
      <point x="138" y="180" type="line" smooth="yes"/>
      <point x="126" y="85"/>
      <point x="155" y="48"/>
      <point x="223" y="48" type="curve" smooth="yes"/>
      <point x="293" y="48"/>
      <point x="336" y="103"/>
      <point x="349" y="164" type="curve"/>
      <point x="384" y="445" type="line"/>
      <point x="452" y="445" type="line"/>
      <point x="405" y="57" type="line"/>
    </contour>
    <contour>
      <point x="173" y="621" type="line"/>
      <point x="413" y="621" type="line"/>
      <point x="407" y="564" type="line"/>
      <point x="167" y="564" type="line"/>
    </contour>
  </outline>
</glyph>
<glyph name="Ubreve" format="1">
  <advance width="696"/>
  <unicode hex="016C"/>
  <outline>
    <contour>
      <point x="482" y="650" type="line"/>
      <point x="699" y="650" type="line"/>
      <point x="693" y="586" type="line"/>
      <point x="631" y="586" type="line"/>
      <point x="598" y="267" type="line" smooth="yes"/>
      <point x="583" y="129"/>
      <point x="519" y="-10"/>
      <point x="324" y="-10" type="curve" smooth="yes"/>
      <point x="136" y="-10"/>
      <point x="82" y="116"/>
      <point x="97" y="256" type="curve" smooth="yes"/>
      <point x="132" y="586" type="line"/>
      <point x="67" y="586" type="line"/>
      <point x="73" y="650" type="line"/>
      <point x="298" y="650" type="line"/>
      <point x="290" y="586" type="line"/>
      <point x="203" y="586" type="line"/>
      <point x="169" y="258" type="line" smooth="yes"/>
      <point x="156" y="130"/>
      <point x="206" y="56"/>
      <point x="331" y="56" type="curve" smooth="yes"/>
      <point x="448" y="56"/>
      <point x="516" y="128"/>
      <point x="531" y="267" type="curve" smooth="yes"/>
      <point x="564" y="586" type="line"/>
      <point x="475" y="586" type="line"/>
    </contour>
    <contour>
      <point x="467" y="816" type="curve"/>
      <point x="525" y="816" type="line"/>
      <point x="516" y="733"/>
      <point x="468" y="699"/>
      <point x="392" y="699" type="curve" smooth="yes"/>
      <point x="316" y="699"/>
      <point x="277" y="735"/>
      <point x="285" y="816" type="curve"/>
      <point x="343" y="816" type="line"/>
      <point x="337" y="764"/>
      <point x="357" y="747"/>
      <point x="397" y="747" type="curve" smooth="yes"/>
      <point x="441" y="747"/>
      <point x="462" y="767"/>
    </contour>
  </outline>
</glyph>
<glyph name="uring" format="1">
  <advance width="522"/>
  <unicode hex="016F"/>
  <outline>
    <contour>
      <point x="483" y="57" type="line"/>
      <point x="478" y="19" type="line"/>
      <point x="456" y="0" type="line"/>
      <point x="341" y="0" type="line"/>
      <point x="342" y="85" type="line"/>
      <point x="311" y="28"/>
      <point x="264" y="-9"/>
      <point x="195" y="-9" type="curve" smooth="yes"/>
      <point x="110" y="-9"/>
      <point x="54" y="42"/>
      <point x="67" y="160" type="curve"/>
      <point x="95" y="388" type="line"/>
      <point x="20" y="388" type="line"/>
      <point x="25" y="428" type="line"/>
      <point x="47" y="445" type="line"/>
      <point x="170" y="445" type="line"/>
      <point x="138" y="180" type="line" smooth="yes"/>
      <point x="126" y="85"/>
      <point x="155" y="48"/>
      <point x="223" y="48" type="curve" smooth="yes"/>
      <point x="293" y="48"/>
      <point x="336" y="103"/>
      <point x="349" y="164" type="curve"/>
      <point x="384" y="445" type="line"/>
      <point x="452" y="445" type="line"/>
      <point x="405" y="57" type="line"/>
    </contour>
    <contour>
      <point x="278" y="514" type="curve" smooth="yes"/>
      <point x="349" y="514"/>
      <point x="387" y="562"/>
      <point x="387" y="617" type="curve" smooth="yes"/>
      <point x="387" y="665"/>
      <point x="356" y="698"/>
      <point x="300" y="698" type="curve" smooth="yes"/>
      <point x="233" y="698"/>
      <point x="192" y="656"/>
      <point x="192" y="595" type="curve" smooth="yes"/>
      <point x="192" y="547"/>
      <point x="221" y="514"/>
    </contour>
    <contour>
      <point x="283" y="554" type="curve" smooth="yes"/>
      <point x="253" y="554"/>
      <point x="241" y="571"/>
      <point x="241" y="598" type="curve" smooth="yes"/>
      <point x="241" y="634"/>
      <point x="260" y="658"/>
      <point x="295" y="658" type="curve" smooth="yes"/>
      <point x="328" y="658"/>
      <point x="339" y="638"/>
      <point x="339" y="614" type="curve" smooth="yes"/>
      <point x="339" y="578"/>
      <point x="319" y="554"/>
    </contour>
  </outline>
</glyph>
<glyph name="uhungarumlaut" format="1">
  <advance width="522"/>
  <unicode hex="0171"/>
  <outline>
    <contour>
      <point x="483" y="57" type="line"/>
      <point x="478" y="19" type="line"/>
      <point x="456" y="0" type="line"/>
      <point x="341" y="0" type="line"/>
      <point x="342" y="85" type="line"/>
      <point x="311" y="28"/>
      <point x="264" y="-9"/>
      <point x="195" y="-9" type="curve" smooth="yes"/>
      <point x="110" y="-9"/>
      <point x="54" y="42"/>
      <point x="67" y="160" type="curve"/>
      <point x="95" y="388" type="line"/>
      <point x="20" y="388" type="line"/>
      <point x="25" y="428" type="line"/>
      <point x="47" y="445" type="line"/>
      <point x="170" y="445" type="line"/>
      <point x="138" y="180" type="line" smooth="yes"/>
      <point x="126" y="85"/>
      <point x="155" y="48"/>
      <point x="223" y="48" type="curve" smooth="yes"/>
      <point x="293" y="48"/>
      <point x="336" y="103"/>
      <point x="349" y="164" type="curve"/>
      <point x="384" y="445" type="line"/>
      <point x="452" y="445" type="line"/>
      <point x="405" y="57" type="line"/>
    </contour>
    <contour>
      <point x="343" y="678" type="line"/>
      <point x="290" y="718" type="line"/>
      <point x="174" y="541" type="line"/>
      <point x="203" y="519" type="line"/>
    </contour>
    <contour>
      <point x="490" y="624" type="line"/>
      <point x="457" y="683" type="line"/>
      <point x="292" y="551" type="line"/>
      <point x="310" y="520" type="line"/>
    </contour>
  </outline>
</glyph>
<glyph name="Uogonek" format="1">
  <advance width="697"/>
  <unicode hex="0172"/>
  <outline>
    <contour>
      <point x="74" y="650" type="line"/>
      <point x="299" y="650" type="line"/>
      <point x="291" y="586" type="line"/>
      <point x="204" y="586" type="line"/>
      <point x="170" y="258" type="line" smooth="yes"/>
      <point x="157" y="130"/>
      <point x="207" y="56"/>
      <point x="332" y="56" type="curve" smooth="yes"/>
      <point x="449" y="56"/>
      <point x="517" y="128"/>
      <point x="532" y="267" type="curve" smooth="yes"/>
      <point x="565" y="586" type="line"/>
      <point x="476" y="586" type="line"/>
      <point x="483" y="650" type="line"/>
      <point x="700" y="650" type="line"/>
      <point x="694" y="586" type="line"/>
      <point x="632" y="586" type="line"/>
      <point x="599" y="267" type="line" smooth="yes"/>
      <point x="586" y="145"/>
      <point x="534" y="23"/>
      <point x="390" y="-4" type="curve"/>
      <point x="338" y="-37"/>
      <point x="323" y="-75"/>
      <point x="323" y="-106" type="curve" smooth="yes"/>
      <point x="323" y="-143"/>
      <point x="343" y="-155"/>
      <point x="375" y="-155" type="curve" smooth="yes"/>
      <point x="392" y="-155"/>
      <point x="410" y="-151"/>
      <point x="430" y="-140" type="curve"/>
      <point x="433" y="-189" type="line"/>
      <point x="410" y="-201"/>
      <point x="383" y="-209"/>
      <point x="353" y="-209" type="curve" smooth="yes"/>
      <point x="296" y="-209"/>
      <point x="260" y="-179"/>
      <point x="260" y="-126" type="curve" smooth="yes"/>
      <point x="260" y="-79"/>
      <point x="289" y="-37"/>
      <point x="328" y="-10" type="curve"/>
      <point x="325" y="-10" type="line" smooth="yes"/>
      <point x="137" y="-10"/>
      <point x="83" y="116"/>
      <point x="98" y="256" type="curve" smooth="yes"/>
      <point x="133" y="586" type="line"/>
      <point x="68" y="586" type="line"/>
    </contour>
  </outline>
</glyph>
<glyph name="Wcircumflex" format="1">
  <advance width="909"/>
  <unicode hex="0174"/>
  <outline>
    <contour>
      <point x="936" y="586" type="line"/>
      <point x="882" y="586" type="line"/>
      <point x="652" y="0" type="line"/>
      <point x="594" y="0" type="line"/>
      <point x="485" y="520" type="line"/>
      <point x="480" y="520" type="line"/>
      <point x="264" y="0" type="line"/>
      <point x="205" y="0" type="line"/>
      <point x="88" y="586" type="line"/>
      <point x="34" y="586" type="line"/>
      <point x="40" y="650" type="line"/>
      <point x="258" y="650" type="line"/>
      <point x="251" y="586" type="line"/>
      <point x="161" y="586" type="line"/>
      <point x="246" y="120" type="line"/>
      <point x="251" y="120" type="line"/>
      <point x="446" y="586" type="line"/>
      <point x="382" y="586" type="line"/>
      <point x="389" y="650" type="line"/>
      <point x="607" y="650" type="line"/>
      <point x="600" y="586" type="line"/>
      <point x="536" y="586" type="line"/>
      <point x="633" y="117" type="line"/>
      <point x="639" y="117" type="line"/>
      <point x="809" y="586" type="line"/>
      <point x="719" y="586" type="line"/>
      <point x="726" y="650" type="line"/>
      <point x="942" y="650" type="line"/>
    </contour>
    <contour>
      <point x="528" y="825" type="line"/>
      <point x="507" y="825" type="line"/>
      <point x="371" y="733" type="line"/>
      <point x="389" y="701" type="line"/>
      <point x="509" y="764" type="line"/>
      <point x="620" y="702" type="line"/>
      <point x="641" y="736" type="line"/>
    </contour>
  </outline>
</glyph>
<glyph name="Ydieresis" format="1">
  <advance width="597"/>
  <unicode hex="0178"/>
  <outline>
    <contour>
      <point x="627" y="586" type="line"/>
      <point x="565" y="586" type="line"/>
      <point x="333" y="249" type="line"/>
      <point x="313" y="64" type="line"/>
      <point x="424" y="64" type="line"/>
      <point x="417" y="0" type="line"/>
      <point x="128" y="0" type="line"/>
      <point x="134" y="64" type="line"/>
      <point x="242" y="64" type="line"/>
      <point x="262" y="249" type="line"/>
      <point x="93" y="586" type="line"/>
      <point x="30" y="586" type="line"/>
      <point x="37" y="650" type="line"/>
      <point x="266" y="650" type="line"/>
      <point x="259" y="586" type="line"/>
      <point x="172" y="586" type="line"/>
      <point x="305" y="316" type="line"/>
      <point x="310" y="316" type="line"/>
      <point x="492" y="586" type="line"/>
      <point x="405" y="586" type="line"/>
      <point x="412" y="650" type="line"/>
      <point x="633" y="650" type="line"/>
    </contour>
    <contour>
      <point x="387" y="718" type="line"/>
      <point x="467" y="718" type="line"/>
      <point x="475" y="803" type="line"/>
      <point x="396" y="803" type="line"/>
    </contour>
    <contour>
      <point x="220" y="718" type="line"/>
      <point x="298" y="718" type="line"/>
      <point x="307" y="803" type="line"/>
      <point x="228" y="803" type="line"/>
    </contour>
  </outline>
</glyph>
<glyph name="Zdotaccent" format="1">
  <advance width="563"/>
  <unicode hex="017B"/>
  <outline>
    <contour>
      <point x="289" y="718" type="line"/>
      <point x="368" y="718" type="line"/>
      <point x="376" y="803" type="line"/>
      <point x="297" y="803" type="line"/>
    </contour>
    <contour>
      <point x="480" y="0" type="line"/>
      <point x="525" y="193" type="line"/>
      <point x="464" y="202" type="line"/>
      <point x="422" y="64" type="line"/>
      <point x="109" y="64" type="line"/>
      <point x="110" y="67" type="line"/>
      <point x="543" y="610" type="line"/>
      <point x="538" y="650" type="line"/>
      <point x="104" y="650" type="line"/>
      <point x="60" y="462" type="line"/>
      <point x="119" y="453" type="line"/>
      <point x="160" y="586" type="line"/>
      <point x="437" y="586" type="line"/>
      <point x="437" y="583" type="line"/>
      <point x="6" y="44" type="line"/>
      <point x="5" y="0" type="line"/>
    </contour>
  </outline>
</glyph>
<glyph name="florin" format="1">
  <advance width="377"/>
  <unicode hex="0192"/>
  <outline>
    <contour>
      <point x="50" y="272" type="line"/>
      <point x="128" y="272" type="line"/>
      <point x="146" y="381" type="line" smooth="yes"/>
      <point x="162" y="478"/>
      <point x="224" y="529"/>
      <point x="319" y="529" type="curve" smooth="yes"/>
      <point x="335" y="529"/>
      <point x="364" y="528"/>
      <point x="384" y="525" type="curve"/>
      <point x="378" y="473" type="line"/>
      <point x="356" y="476"/>
      <point x="336" y="479"/>
      <point x="318" y="479" type="curve" smooth="yes"/>
      <point x="262" y="479"/>
      <point x="226" y="458"/>
      <point x="214" y="379" type="curve" smooth="yes"/>
      <point x="197" y="272" type="line"/>
      <point x="312" y="272" type="line"/>
      <point x="307" y="226" type="line"/>
      <point x="189" y="226" type="line"/>
      <point x="156" y="18" type="line" smooth="yes"/>
      <point x="146" y="-47"/>
      <point x="120" y="-112"/>
      <point x="18" y="-112" type="curve" smooth="yes"/>
      <point x="7" y="-112"/>
      <point x="-3" y="-111"/>
      <point x="-25" y="-108" type="curve"/>
      <point x="-20" y="-58" type="line"/>
      <point x="-4" y="-62"/>
      <point x="12" y="-62"/>
      <point x="23" y="-62" type="curve" smooth="yes"/>
      <point x="65" y="-62"/>
      <point x="78" y="-41"/>
      <point x="89" y="29" type="curve" smooth="yes"/>
      <point x="121" y="226" type="line"/>
      <point x="45" y="226" type="line"/>
    </contour>
  </outline>
</glyph>
<glyph name="uni01C4" format="1">
  <advance width="1248"/>
  <unicode hex="01C4"/>
  <outline>
    <contour>
      <point x="362" y="650" type="line" smooth="yes"/>
      <point x="553" y="650"/>
      <point x="653" y="531"/>
      <point x="653" y="361" type="curve" smooth="yes"/>
      <point x="653" y="155"/>
      <point x="514" y="0"/>
      <point x="297" y="0" type="curve" smooth="yes"/>
      <point x="12" y="0" type="line"/>
      <point x="19" y="63" type="line"/>
      <point x="98" y="63" type="line"/>
      <point x="153" y="587" type="line"/>
      <point x="74" y="587" type="line"/>
      <point x="80" y="650" type="line"/>
    </contour>
    <contour>
      <point x="300" y="63" type="line" smooth="yes"/>
      <point x="473" y="63"/>
      <point x="579" y="183"/>
      <point x="579" y="355" type="curve" smooth="yes"/>
      <point x="579" y="496"/>
      <point x="502" y="587"/>
      <point x="355" y="587" type="curve" smooth="yes"/>
      <point x="223" y="587" type="line"/>
      <point x="168" y="63" type="line"/>
    </contour>
    <contour>
      <point x="1166" y="0" type="line"/>
      <point x="1211" y="193" type="line"/>
      <point x="1150" y="202" type="line"/>
      <point x="1108" y="64" type="line"/>
      <point x="795" y="64" type="line"/>
      <point x="796" y="67" type="line"/>
      <point x="1229" y="610" type="line"/>
      <point x="1224" y="650" type="line"/>
      <point x="790" y="650" type="line"/>
      <point x="746" y="462" type="line"/>
      <point x="805" y="453" type="line"/>
      <point x="846" y="586" type="line"/>
      <point x="1123" y="586" type="line"/>
      <point x="1123" y="583" type="line"/>
      <point x="692" y="44" type="line"/>
      <point x="691" y="0" type="line"/>
    </contour>
    <contour>
      <point x="994" y="701" type="line"/>
      <point x="1015" y="701" type="line"/>
      <point x="1150" y="792" type="line"/>
      <point x="1133" y="825" type="line"/>
      <point x="1012" y="761" type="line"/>
      <point x="902" y="823" type="line"/>
      <point x="880" y="790" type="line"/>
    </contour>
  </outline>
</glyph>
<glyph name="uni01C7" format="1">
  <advance width="969"/>
  <unicode hex="01C7"/>
  <outline>
    <contour>
      <point x="468" y="0" type="line"/>
      <point x="509" y="208" type="line"/>
      <point x="446" y="213" type="line"/>
      <point x="411" y="64" type="line"/>
      <point x="169" y="64" type="line"/>
      <point x="224" y="586" type="line"/>
      <point x="331" y="586" type="line"/>
      <point x="337" y="650" type="line"/>
      <point x="80" y="650" type="line"/>
      <point x="73" y="586" type="line"/>
      <point x="153" y="586" type="line"/>
      <point x="98" y="64" type="line"/>
      <point x="18" y="64" type="line"/>
      <point x="12" y="0" type="line"/>
    </contour>
    <contour>
      <point x="706" y="650" type="line"/>
      <point x="972" y="650" type="line"/>
      <point x="966" y="586" type="line"/>
      <point x="896" y="586" type="line"/>
      <point x="852" y="166" type="line" smooth="yes"/>
      <point x="840" y="48"/>
      <point x="772" y="-10"/>
      <point x="671" y="-10" type="curve" smooth="yes"/>
      <point x="587" y="-10"/>
      <point x="545" y="30"/>
      <point x="524" y="89" type="curve"/>
      <point x="579" y="129" type="line"/>
      <point x="601" y="75"/>
      <point x="629" y="59"/>
      <point x="672" y="59" type="curve" smooth="yes"/>
      <point x="740" y="59"/>
      <point x="774" y="101"/>
      <point x="781" y="166" type="curve" smooth="yes"/>
      <point x="825" y="586" type="line"/>
      <point x="700" y="586" type="line"/>
    </contour>
  </outline>
</glyph>
<glyph name="uni01CA" format="1">
  <advance width="1150"/>
  <unicode hex="01CA"/>
  <outline>
    <contour>
      <point x="25" y="64" type="line"/>
      <point x="98" y="64" type="line"/>
      <point x="153" y="586" type="line"/>
      <point x="70" y="586" type="line"/>
      <point x="77" y="650" type="line"/>
      <point x="211" y="650" type="line"/>
      <point x="520" y="148" type="line"/>
      <point x="523" y="148" type="line"/>
      <point x="568" y="586" type="line"/>
      <point x="474" y="586" type="line"/>
      <point x="480" y="650" type="line"/>
      <point x="722" y="650" type="line"/>
      <point x="716" y="586" type="line"/>
      <point x="636" y="586" type="line"/>
      <point x="575" y="0" type="line"/>
      <point x="530" y="0" type="line"/>
      <point x="216" y="512" type="line"/>
      <point x="213" y="512" type="line"/>
      <point x="165" y="64" type="line"/>
      <point x="267" y="64" type="line"/>
      <point x="261" y="0" type="line"/>
      <point x="18" y="0" type="line"/>
    </contour>
    <contour>
      <point x="887" y="650" type="line"/>
      <point x="1153" y="650" type="line"/>
      <point x="1147" y="586" type="line"/>
      <point x="1077" y="586" type="line"/>
      <point x="1033" y="166" type="line" smooth="yes"/>
      <point x="1021" y="48"/>
      <point x="953" y="-10"/>
      <point x="852" y="-10" type="curve" smooth="yes"/>
      <point x="768" y="-10"/>
      <point x="726" y="30"/>
      <point x="705" y="89" type="curve"/>
      <point x="760" y="129" type="line"/>
      <point x="782" y="75"/>
      <point x="810" y="59"/>
      <point x="853" y="59" type="curve" smooth="yes"/>
      <point x="921" y="59"/>
      <point x="955" y="101"/>
      <point x="962" y="166" type="curve" smooth="yes"/>
      <point x="1006" y="586" type="line"/>
      <point x="881" y="586" type="line"/>
    </contour>
  </outline>
</glyph>
<glyph name="uni01CB" format="1">
  <advance width="960"/>
  <unicode hex="01CB"/>
  <outline>
    <contour>
      <point x="25" y="64" type="line"/>
      <point x="98" y="64" type="line"/>
      <point x="153" y="586" type="line"/>
      <point x="70" y="586" type="line"/>
      <point x="77" y="650" type="line"/>
      <point x="211" y="650" type="line"/>
      <point x="520" y="148" type="line"/>
      <point x="523" y="148" type="line"/>
      <point x="568" y="586" type="line"/>
      <point x="474" y="586" type="line"/>
      <point x="480" y="650" type="line"/>
      <point x="722" y="650" type="line"/>
      <point x="716" y="586" type="line"/>
      <point x="636" y="586" type="line"/>
      <point x="575" y="0" type="line"/>
      <point x="530" y="0" type="line"/>
      <point x="216" y="512" type="line"/>
      <point x="213" y="512" type="line"/>
      <point x="165" y="64" type="line"/>
      <point x="267" y="64" type="line"/>
      <point x="261" y="0" type="line"/>
      <point x="18" y="0" type="line"/>
    </contour>
    <contour>
      <point x="739" y="426" type="line"/>
      <point x="761" y="445" type="line"/>
      <point x="908" y="445" type="line"/>
      <point x="851" y="-18" type="line" smooth="yes"/>
      <point x="835" y="-148"/>
      <point x="787" y="-219"/>
      <point x="714" y="-223" type="curve" smooth="yes"/>
      <point x="685" y="-224"/>
      <point x="659" y="-216"/>
      <point x="635" y="-205" type="curve"/>
      <point x="638" y="-154" type="line"/>
      <point x="707" y="-182"/>
      <point x="765" y="-162"/>
      <point x="783" y="-18" type="curve" smooth="yes"/>
      <point x="833" y="388" type="line"/>
      <point x="734" y="388" type="line"/>
    </contour>
    <contour>
      <point x="844" y="560" type="line"/>
      <point x="917" y="560" type="line"/>
      <point x="927" y="651" type="line"/>
      <point x="853" y="651" type="line"/>
    </contour>
  </outline>
</glyph>
<glyph name="uni01CC" format="1">
  <advance width="767"/>
  <unicode hex="01CC"/>
  <outline>
    <contour>
      <point x="55" y="445" type="line"/>
      <point x="169" y="445" type="line"/>
      <point x="168" y="359" type="line"/>
      <point x="200" y="417"/>
      <point x="248" y="454"/>
      <point x="318" y="454" type="curve" smooth="yes"/>
      <point x="403" y="454"/>
      <point x="460" y="403"/>
      <point x="446" y="285" type="curve" smooth="yes"/>
      <point x="418" y="57" type="line"/>
      <point x="493" y="57" type="line"/>
      <point x="488" y="17" type="line"/>
      <point x="467" y="0" type="line"/>
      <point x="344" y="0" type="line"/>
      <point x="376" y="264" type="line" smooth="yes"/>
      <point x="387" y="360"/>
      <point x="354" y="397"/>
      <point x="290" y="397" type="curve" smooth="yes"/>
      <point x="218" y="397"/>
      <point x="172" y="338"/>
      <point x="160" y="274" type="curve"/>
      <point x="126" y="0" type="line"/>
      <point x="59" y="0" type="line"/>
      <point x="106" y="388" type="line"/>
      <point x="28" y="388" type="line"/>
      <point x="33" y="426" type="line"/>
    </contour>
    <contour>
      <point x="546" y="426" type="line"/>
      <point x="568" y="445" type="line"/>
      <point x="715" y="445" type="line"/>
      <point x="658" y="-18" type="line" smooth="yes"/>
      <point x="642" y="-148"/>
      <point x="594" y="-219"/>
      <point x="521" y="-223" type="curve" smooth="yes"/>
      <point x="492" y="-224"/>
      <point x="466" y="-216"/>
      <point x="442" y="-205" type="curve"/>
      <point x="445" y="-154" type="line"/>
      <point x="514" y="-182"/>
      <point x="572" y="-162"/>
      <point x="590" y="-18" type="curve" smooth="yes"/>
      <point x="640" y="388" type="line"/>
      <point x="541" y="388" type="line"/>
    </contour>
    <contour>
      <point x="651" y="560" type="line"/>
      <point x="724" y="560" type="line"/>
      <point x="734" y="651" type="line"/>
      <point x="660" y="651" type="line"/>
    </contour>
  </outline>
</glyph>
<glyph name="uni01F1" format="1">
  <advance width="1243"/>
  <unicode hex="01F1"/>
  <outline>
    <contour>
      <point x="362" y="650" type="line" smooth="yes"/>
      <point x="553" y="650"/>
      <point x="653" y="531"/>
      <point x="653" y="361" type="curve" smooth="yes"/>
      <point x="653" y="155"/>
      <point x="514" y="0"/>
      <point x="297" y="0" type="curve" smooth="yes"/>
      <point x="12" y="0" type="line"/>
      <point x="19" y="63" type="line"/>
      <point x="98" y="63" type="line"/>
      <point x="153" y="587" type="line"/>
      <point x="74" y="587" type="line"/>
      <point x="80" y="650" type="line"/>
    </contour>
    <contour>
      <point x="300" y="63" type="line" smooth="yes"/>
      <point x="473" y="63"/>
      <point x="579" y="183"/>
      <point x="579" y="355" type="curve" smooth="yes"/>
      <point x="579" y="496"/>
      <point x="502" y="587"/>
      <point x="355" y="587" type="curve" smooth="yes"/>
      <point x="223" y="587" type="line"/>
      <point x="168" y="63" type="line"/>
    </contour>
    <contour>
      <point x="1160" y="0" type="line"/>
      <point x="1205" y="193" type="line"/>
      <point x="1144" y="202" type="line"/>
      <point x="1102" y="64" type="line"/>
      <point x="789" y="64" type="line"/>
      <point x="790" y="67" type="line"/>
      <point x="1223" y="610" type="line"/>
      <point x="1218" y="650" type="line"/>
      <point x="784" y="650" type="line"/>
      <point x="740" y="462" type="line"/>
      <point x="799" y="453" type="line"/>
      <point x="840" y="586" type="line"/>
      <point x="1117" y="586" type="line"/>
      <point x="1117" y="583" type="line"/>
      <point x="686" y="44" type="line"/>
      <point x="685" y="0" type="line"/>
    </contour>
  </outline>
</glyph>
<glyph name="uni01F2" format="1">
  <advance width="1133"/>
  <unicode hex="01F2"/>
  <outline>
    <contour>
      <point x="362" y="650" type="line" smooth="yes"/>
      <point x="553" y="650"/>
      <point x="653" y="531"/>
      <point x="653" y="361" type="curve" smooth="yes"/>
      <point x="653" y="155"/>
      <point x="514" y="0"/>
      <point x="297" y="0" type="curve" smooth="yes"/>
      <point x="12" y="0" type="line"/>
      <point x="19" y="63" type="line"/>
      <point x="98" y="63" type="line"/>
      <point x="153" y="587" type="line"/>
      <point x="74" y="587" type="line"/>
      <point x="80" y="650" type="line"/>
    </contour>
    <contour>
      <point x="300" y="63" type="line" smooth="yes"/>
      <point x="473" y="63"/>
      <point x="579" y="183"/>
      <point x="579" y="355" type="curve" smooth="yes"/>
      <point x="579" y="496"/>
      <point x="502" y="587"/>
      <point x="355" y="587" type="curve" smooth="yes"/>
      <point x="223" y="587" type="line"/>
      <point x="168" y="63" type="line"/>
    </contour>
    <contour>
      <point x="1058" y="0" type="line"/>
      <point x="1096" y="138" type="line"/>
      <point x="1041" y="147" type="line"/>
      <point x="1008" y="57" type="line"/>
      <point x="786" y="57" type="line"/>
      <point x="1100" y="403" type="line"/>
      <point x="1087" y="445" type="line"/>
      <point x="759" y="445" type="line"/>
      <point x="732" y="306" type="line"/>
      <point x="787" y="299" type="line"/>
      <point x="809" y="388" type="line"/>
      <point x="1011" y="388" type="line"/>
      <point x="693" y="43" type="line"/>
      <point x="702" y="0" type="line"/>
    </contour>
  </outline>
</glyph>
<glyph name="ymacron" format="1">
  <advance width="468"/>
  <unicode hex="0233"/>
  <outline>
    <contour>
      <point x="231" y="82" type="line"/>
      <point x="237" y="82" type="line"/>
      <point x="322" y="177"/>
      <point x="365" y="263"/>
      <point x="365" y="352" type="curve" smooth="yes"/>
      <point x="365" y="382"/>
      <point x="360" y="413"/>
      <point x="347" y="445" type="curve"/>
      <point x="427" y="445" type="line"/>
      <point x="447" y="361"/>
      <point x="435" y="275"/>
      <point x="379" y="185" type="curve" smooth="yes"/>
      <point x="350" y="138"/>
      <point x="300" y="75"/>
      <point x="246" y="21" type="curve"/>
      <point x="222" y="-156" type="line"/>
      <point x="299" y="-156" type="line"/>
      <point x="295" y="-195" type="line"/>
      <point x="274" y="-213" type="line"/>
      <point x="72" y="-213" type="line"/>
      <point x="77" y="-175" type="line"/>
      <point x="98" y="-156" type="line"/>
      <point x="154" y="-156" type="line"/>
      <point x="179" y="23" type="line"/>
      <point x="70" y="388" type="line"/>
      <point x="13" y="388" type="line"/>
      <point x="18" y="426" type="line"/>
      <point x="39" y="445" type="line"/>
      <point x="230" y="445" type="line"/>
      <point x="225" y="406" type="line"/>
      <point x="204" y="388" type="line"/>
      <point x="142" y="388" type="line"/>
    </contour>
    <contour>
      <point x="148" y="621" type="line"/>
      <point x="388" y="621" type="line"/>
      <point x="382" y="564" type="line"/>
      <point x="142" y="564" type="line"/>
    </contour>
  </outline>
</glyph>
<glyph name="dotlessj" format="1">
  <advance width="246"/>
  <unicode hex="0237"/>
  <outline>
    <contour>
      <point x="25" y="426" type="line"/>
      <point x="46" y="445" type="line"/>
      <point x="194" y="445" type="line"/>
      <point x="137" y="-18" type="line" smooth="yes"/>
      <point x="121" y="-149"/>
      <point x="72" y="-220"/>
      <point x="-3" y="-223" type="curve" smooth="yes"/>
      <point x="-30" y="-224"/>
      <point x="-56" y="-216"/>
      <point x="-79" y="-205" type="curve"/>
      <point x="-75" y="-154" type="line"/>
      <point x="-8" y="-182"/>
      <point x="52" y="-162"/>
      <point x="70" y="-18" type="curve" smooth="yes"/>
      <point x="119" y="388" type="line"/>
      <point x="20" y="388" type="line"/>
    </contour>
  </outline>
</glyph>
<glyph name="circumflex" format="1">
  <advance width="331"/>
  <unicode hex="02C6"/>
  <outline>
    <contour>
      <point x="267" y="671" type="line"/>
      <point x="245" y="671" type="line"/>
      <point x="113" y="550" type="line"/>
      <point x="137" y="519" type="line"/>
      <point x="247" y="605" type="line"/>
      <point x="344" y="519" type="line"/>
      <point x="373" y="550" type="line"/>
    </contour>
  </outline>
</glyph>
<glyph name="caron" format="1">
  <advance width="331"/>
  <unicode hex="02C7"/>
  <outline>
    <contour>
      <point x="229" y="519" type="line"/>
      <point x="251" y="519" type="line"/>
      <point x="382" y="638" type="line"/>
      <point x="359" y="670" type="line"/>
      <point x="248" y="585" type="line"/>
      <point x="153" y="667" type="line"/>
      <point x="124" y="636" type="line"/>
    </contour>
  </outline>
</glyph>
<glyph name="dotaccent" format="1">
  <advance width="204"/>
  <unicode hex="02D9"/>
  <outline>
    <contour>
      <point x="122" y="553" type="line"/>
      <point x="196" y="553" type="line"/>
      <point x="205" y="644" type="line"/>
      <point x="131" y="644" type="line"/>
    </contour>
  </outline>
</glyph>
<glyph name="ring" format="1">
  <advance width="255"/>
  <unicode hex="02DA"/>
  <outline>
    <contour>
      <point x="180" y="514" type="curve" smooth="yes"/>
      <point x="251" y="514"/>
      <point x="289" y="562"/>
      <point x="289" y="617" type="curve" smooth="yes"/>
      <point x="289" y="665"/>
      <point x="258" y="698"/>
      <point x="202" y="698" type="curve" smooth="yes"/>
      <point x="135" y="698"/>
      <point x="94" y="656"/>
      <point x="94" y="595" type="curve" smooth="yes"/>
      <point x="94" y="547"/>
      <point x="123" y="514"/>
    </contour>
    <contour>
      <point x="185" y="554" type="curve"/>
      <point x="155" y="554"/>
      <point x="143" y="571"/>
      <point x="143" y="598" type="curve" smooth="yes"/>
      <point x="143" y="634"/>
      <point x="162" y="658"/>
      <point x="197" y="658" type="curve" smooth="yes"/>
      <point x="230" y="658"/>
      <point x="241" y="638"/>
      <point x="241" y="614" type="curve" smooth="yes"/>
      <point x="241" y="578"/>
      <point x="221" y="554"/>
    </contour>
  </outline>
</glyph>
<glyph name="ogonek" format="1">
  <advance width="274"/>
  <unicode hex="02DB"/>
  <outline>
    <contour>
      <point x="203" y="-189" type="line"/>
      <point x="180" y="-201"/>
      <point x="153" y="-209"/>
      <point x="123" y="-209" type="curve" smooth="yes"/>
      <point x="66" y="-209"/>
      <point x="30" y="-179"/>
      <point x="30" y="-126" type="curve" smooth="yes"/>
      <point x="30" y="-64"/>
      <point x="81" y="-12"/>
      <point x="138" y="12" type="curve"/>
      <point x="182" y="8" type="line"/>
      <point x="112" y="-27"/>
      <point x="93" y="-71"/>
      <point x="93" y="-106" type="curve" smooth="yes"/>
      <point x="93" y="-143"/>
      <point x="113" y="-155"/>
      <point x="145" y="-155" type="curve" smooth="yes"/>
      <point x="162" y="-155"/>
      <point x="180" y="-151"/>
      <point x="200" y="-140" type="curve"/>
    </contour>
  </outline>
</glyph>
<glyph name="tilde" format="1">
  <advance width="367"/>
  <unicode hex="02DC"/>
  <outline>
    <contour>
      <point x="125" y="549" type="line"/>
      <point x="138" y="581"/>
      <point x="160" y="592"/>
      <point x="179" y="592" type="curve" smooth="yes"/>
      <point x="215" y="592"/>
      <point x="244" y="553"/>
      <point x="295" y="553" type="curve" smooth="yes"/>
      <point x="341" y="553"/>
      <point x="365" y="592"/>
      <point x="380" y="646" type="curve"/>
      <point x="345" y="655" type="line"/>
      <point x="332" y="619"/>
      <point x="314" y="612"/>
      <point x="296" y="612" type="curve" smooth="yes"/>
      <point x="249" y="612"/>
      <point x="226" y="649"/>
      <point x="183" y="649" type="curve" smooth="yes"/>
      <point x="133" y="649"/>
      <point x="101" y="596"/>
      <point x="93" y="561" type="curve"/>
    </contour>
  </outline>
</glyph>
<glyph name="hungarumlaut" format="1">
  <advance width="421"/>
  <unicode hex="02DD"/>
  <outline>
    <contour>
      <point x="440" y="624" type="line"/>
      <point x="407" y="683" type="line"/>
      <point x="242" y="551" type="line"/>
      <point x="260" y="520" type="line"/>
    </contour>
    <contour>
      <point x="293" y="678" type="line"/>
      <point x="240" y="718" type="line"/>
      <point x="124" y="541" type="line"/>
      <point x="153" y="519" type="line"/>
    </contour>
  </outline>
</glyph>
<glyph name="dotbelowcmb" format="1">
  <advance width="816"/>
  <unicode hex="0323"/>
  <outline>
    <contour>
      <point x="75" y="-174" type="line"/>
      <point x="150" y="-174" type="line"/>
      <point x="160" y="-84" type="line"/>
      <point x="85" y="-84" type="line"/>
    </contour>
  </outline>
</glyph>
<glyph name="Sigma" format="1">
  <advance width="531"/>
  <unicode hex="03A3"/>
  <outline>
    <contour>
      <point x="4" y="0" type="line"/>
      <point x="471" y="0" type="line"/>
      <point x="477" y="63" type="line"/>
      <point x="91" y="63" type="line"/>
      <point x="307" y="315" type="line"/>
      <point x="310" y="337" type="line"/>
      <point x="146" y="587" type="line"/>
      <point x="532" y="587" type="line"/>
      <point x="539" y="650" type="line"/>
      <point x="72" y="650" type="line"/>
      <point x="65" y="587" type="line"/>
      <point x="236" y="323" type="line"/>
      <point x="11" y="63" type="line"/>
    </contour>
  </outline>
</glyph>
<glyph name="uni1E46" format="1">
  <advance width="715"/>
  <unicode hex="1E46"/>
  <outline>
    <contour>
      <point x="25" y="64" type="line"/>
      <point x="98" y="64" type="line"/>
      <point x="153" y="586" type="line"/>
      <point x="70" y="586" type="line"/>
      <point x="77" y="650" type="line"/>
      <point x="211" y="650" type="line"/>
      <point x="520" y="148" type="line"/>
      <point x="523" y="148" type="line"/>
      <point x="568" y="586" type="line"/>
      <point x="474" y="586" type="line"/>
      <point x="480" y="650" type="line"/>
      <point x="722" y="650" type="line"/>
      <point x="716" y="586" type="line"/>
      <point x="636" y="586" type="line"/>
      <point x="575" y="0" type="line"/>
      <point x="530" y="0" type="line"/>
      <point x="216" y="512" type="line"/>
      <point x="213" y="512" type="line"/>
      <point x="165" y="64" type="line"/>
      <point x="267" y="64" type="line"/>
      <point x="261" y="0" type="line"/>
      <point x="18" y="0" type="line"/>
    </contour>
    <contour>
      <point x="286" y="-174" type="line"/>
      <point x="361" y="-174" type="line"/>
      <point x="371" y="-84" type="line"/>
      <point x="296" y="-84" type="line"/>
    </contour>
  </outline>
</glyph>
<glyph name="Ygrave" format="1">
  <advance width="597"/>
  <unicode hex="1EF2"/>
  <outline>
    <contour>
      <point x="627" y="586" type="line"/>
      <point x="565" y="586" type="line"/>
      <point x="333" y="249" type="line"/>
      <point x="313" y="64" type="line"/>
      <point x="424" y="64" type="line"/>
      <point x="417" y="0" type="line"/>
      <point x="128" y="0" type="line"/>
      <point x="134" y="64" type="line"/>
      <point x="242" y="64" type="line"/>
      <point x="262" y="249" type="line"/>
      <point x="93" y="586" type="line"/>
      <point x="30" y="586" type="line"/>
      <point x="37" y="650" type="line"/>
      <point x="266" y="650" type="line"/>
      <point x="259" y="586" type="line"/>
      <point x="172" y="586" type="line"/>
      <point x="305" y="316" type="line"/>
      <point x="310" y="316" type="line"/>
      <point x="492" y="586" type="line"/>
      <point x="405" y="586" type="line"/>
      <point x="412" y="650" type="line"/>
      <point x="633" y="650" type="line"/>
    </contour>
    <contour>
      <point x="392" y="703" type="line"/>
      <point x="401" y="740" type="line"/>
      <point x="206" y="813" type="line"/>
      <point x="189" y="745" type="line"/>
    </contour>
  </outline>
</glyph>
<glyph name="endash" format="1">
  <advance width="611"/>
  <unicode hex="2013"/>
  <outline>
    <contour>
      <point x="56" y="257" type="line"/>
      <point x="548" y="257" type="line"/>
      <point x="543" y="206" type="line"/>
      <point x="51" y="206" type="line"/>
    </contour>
  </outline>
</glyph>
<glyph name="emdash" format="1">
  <advance width="1055"/>
  <unicode hex="2014"/>
  <outline>
    <contour>
      <point x="70" y="257" type="line"/>
      <point x="991" y="257" type="line"/>
      <point x="985" y="206" type="line"/>
      <point x="64" y="206" type="line"/>
    </contour>
  </outline>
</glyph>
<glyph name="quoteleft" format="1">
  <advance width="204"/>
  <unicode hex="2018"/>
  <outline>
    <contour>
      <point x="205" y="656" type="line"/>
      <point x="137" y="656" type="line"/>
      <point x="63" y="440" type="line"/>
      <point x="131" y="440" type="line"/>
    </contour>
  </outline>
</glyph>
<glyph name="quoteright" format="1">
  <advance width="200"/>
  <unicode hex="2019"/>
  <outline>
    <contour>
      <point x="65" y="479" type="line"/>
      <point x="133" y="479" type="line"/>
      <point x="207" y="695" type="line"/>
      <point x="139" y="695" type="line"/>
    </contour>
  </outline>
</glyph>
<glyph name="quotesinglbase" format="1">
  <advance width="200"/>
  <unicode hex="201A"/>
  <outline>
    <contour>
      <point x="-15" y="-102" type="line"/>
      <point x="53" y="-102" type="line"/>
      <point x="127" y="114" type="line"/>
      <point x="59" y="114" type="line"/>
    </contour>
  </outline>
</glyph>
<glyph name="quotedblleft" format="1">
  <advance width="362"/>
  <unicode hex="201C"/>
  <outline>
    <contour>
      <point x="207" y="668" type="line"/>
      <point x="139" y="668" type="line"/>
      <point x="65" y="452" type="line"/>
      <point x="133" y="452" type="line"/>
    </contour>
    <contour>
      <point x="368" y="668" type="line"/>
      <point x="300" y="668" type="line"/>
      <point x="226" y="452" type="line"/>
      <point x="294" y="452" type="line"/>
    </contour>
  </outline>
</glyph>
<glyph name="quotedblright" format="1">
  <advance width="359"/>
  <unicode hex="201D"/>
  <outline>
    <contour>
      <point x="58" y="454" type="line"/>
      <point x="126" y="454" type="line"/>
      <point x="200" y="670" type="line"/>
      <point x="132" y="670" type="line"/>
    </contour>
    <contour>
      <point x="219" y="454" type="line"/>
      <point x="287" y="454" type="line"/>
      <point x="361" y="670" type="line"/>
      <point x="293" y="670" type="line"/>
    </contour>
  </outline>
</glyph>
<glyph name="dagger" format="1">
  <advance width="458"/>
  <unicode hex="2020"/>
  <outline>
    <contour>
      <point x="44" y="428" type="line"/>
      <point x="213" y="428" type="line"/>
      <point x="237" y="650" type="line"/>
      <point x="298" y="650" type="line"/>
      <point x="274" y="428" type="line"/>
      <point x="445" y="428" type="line"/>
      <point x="439" y="366" type="line"/>
      <point x="268" y="366" type="line"/>
      <point x="215" y="-141" type="line"/>
      <point x="154" y="-141" type="line"/>
      <point x="207" y="366" type="line"/>
      <point x="38" y="366" type="line"/>
    </contour>
  </outline>
</glyph>
<glyph name="daggerdbl" format="1">
  <advance width="501"/>
  <unicode hex="2021"/>
  <outline>
    <contour>
      <point x="35" y="119" type="line"/>
      <point x="205" y="119" type="line"/>
      <point x="231" y="366" type="line"/>
      <point x="61" y="366" type="line"/>
      <point x="68" y="428" type="line"/>
      <point x="238" y="428" type="line"/>
      <point x="261" y="650" type="line"/>
      <point x="323" y="650" type="line"/>
      <point x="300" y="428" type="line"/>
      <point x="469" y="428" type="line"/>
      <point x="462" y="366" type="line"/>
      <point x="293" y="366" type="line"/>
      <point x="267" y="119" type="line"/>
      <point x="436" y="119" type="line"/>
      <point x="430" y="57" type="line"/>
      <point x="261" y="57" type="line"/>
      <point x="240" y="-141" type="line"/>
      <point x="178" y="-141" type="line"/>
      <point x="199" y="57" type="line"/>
      <point x="29" y="57" type="line"/>
    </contour>
  </outline>
</glyph>
<glyph name="ellipsis" format="1">
  <advance width="574"/>
  <unicode hex="2026"/>
  <outline>
    <contour>
      <point x="30" y="0" type="line"/>
      <point x="123" y="0" type="line"/>
      <point x="133" y="101" type="line"/>
      <point x="40" y="101" type="line"/>
    </contour>
    <contour>
      <point x="213" y="0" type="line"/>
      <point x="306" y="0" type="line"/>
      <point x="316" y="101" type="line"/>
      <point x="223" y="101" type="line"/>
    </contour>
    <contour>
      <point x="395" y="0" type="line"/>
      <point x="488" y="0" type="line"/>
      <point x="498" y="101" type="line"/>
      <point x="405" y="101" type="line"/>
    </contour>
  </outline>
</glyph>
<glyph name="guilsinglright" format="1">
  <advance width="281"/>
  <unicode hex="203A"/>
  <outline>
    <contour>
      <point x="80" y="25" type="line"/>
      <point x="241" y="271" type="line"/>
      <point x="131" y="511" type="line"/>
      <point x="71" y="511" type="line"/>
      <point x="172" y="271" type="line"/>
      <point x="20" y="25" type="line"/>
    </contour>
  </outline>
</glyph>
<glyph name="uni203D" format="1">
  <advance width="635"/>
  <unicode hex="203D"/>
  <outline>
    <contour>
      <point x="430" y="589" type="curve" smooth="yes"/>
      <point x="480" y="589"/>
      <point x="546" y="564"/>
      <point x="546" y="498" type="curve" smooth="yes"/>
      <point x="546" y="366"/>
      <point x="282" y="390"/>
      <point x="257" y="205" type="curve"/>
      <point x="305" y="191" type="line"/>
      <point x="336" y="356"/>
      <point x="625" y="332"/>
      <point x="625" y="504" type="curve" smooth="yes"/>
      <point x="625" y="598"/>
      <point x="540" y="648"/>
      <point x="444" y="648" type="curve" smooth="yes"/>
      <point x="380" y="648"/>
      <point x="326" y="624"/>
      <point x="294" y="596" type="curve"/>
      <point x="258" y="478" type="line"/>
      <point x="312" y="466" type="line"/>
      <point x="350" y="564" type="line"/>
      <point x="372" y="579"/>
      <point x="399" y="589"/>
    </contour>
    <contour>
      <point x="144" y="652" type="line"/>
      <point x="236" y="204" type="line"/>
      <point x="186" y="183" type="line"/>
      <point x="65" y="620" type="line"/>
    </contour>
    <contour>
      <point x="185" y="0" type="line"/>
      <point x="273" y="0" type="line"/>
      <point x="283" y="97" type="line"/>
      <point x="196" y="97" type="line"/>
    </contour>
  </outline>
</glyph>
<glyph name="fraction" format="1">
  <advance width="136"/>
  <unicode hex="2044"/>
  <outline>
    <contour>
      <point x="315" y="650" type="line"/>
      <point x="96" y="325" type="line"/>
      <point x="-117" y="0" type="line"/>
      <point x="-169" y="0" type="line"/>
      <point x="58" y="337" type="line"/>
      <point x="264" y="650" type="line"/>
    </contour>
  </outline>
</glyph>
<glyph name="i.superior" format="1">
  <advance width="187"/>
  <unicode hex="2071"/>
  <outline>
    <contour>
      <point x="64" y="691" type="line"/>
      <point x="79" y="705" type="line"/>
      <point x="169" y="705" type="line"/>
      <point x="137" y="460" type="line"/>
      <point x="184" y="460" type="line"/>
      <point x="181" y="428" type="line"/>
      <point x="165" y="415" type="line"/>
      <point x="79" y="415" type="line"/>
      <point x="109" y="661" type="line"/>
      <point x="60" y="661" type="line"/>
    </contour>
    <contour>
      <point x="122" y="781" type="line"/>
      <point x="181" y="781" type="line"/>
      <point x="188" y="844" type="line"/>
      <point x="129" y="844" type="line"/>
    </contour>
  </outline>
</glyph>
<glyph name="foursuperior" format="1">
  <advance width="349"/>
  <unicode hex="2074"/>
  <outline>
    <contour>
      <point x="219" y="415" type="line"/>
      <point x="275" y="415" type="line"/>
      <point x="285" y="509" type="line"/>
      <point x="341" y="509" type="line"/>
      <point x="351" y="551" type="line"/>
      <point x="289" y="551" type="line"/>
      <point x="313" y="779" type="line"/>
      <point x="202" y="779" type="line"/>
      <point x="51" y="553" type="line"/>
      <point x="52" y="509" type="line"/>
      <point x="229" y="509" type="line"/>
    </contour>
    <contour>
      <point x="224" y="734" type="line"/>
      <point x="253" y="734" type="line"/>
      <point x="233" y="551" type="line"/>
      <point x="102" y="551" type="line"/>
    </contour>
  </outline>
</glyph>
<glyph name="sixsuperior" format="1">
  <advance width="342"/>
  <unicode hex="2076"/>
  <outline>
    <contour>
      <point x="240" y="740" type="curve" smooth="yes"/>
      <point x="261" y="740"/>
      <point x="284" y="735"/>
      <point x="308" y="702" type="curve"/>
      <point x="343" y="736" type="line"/>
      <point x="312" y="775"/>
      <point x="270" y="785"/>
      <point x="237" y="785" type="curve" smooth="yes"/>
      <point x="124" y="785"/>
      <point x="69" y="676"/>
      <point x="69" y="559" type="curve" smooth="yes"/>
      <point x="69" y="467"/>
      <point x="110" y="409"/>
      <point x="193" y="409" type="curve" smooth="yes"/>
      <point x="287" y="409"/>
      <point x="332" y="475"/>
      <point x="332" y="543" type="curve" smooth="yes"/>
      <point x="332" y="604"/>
      <point x="293" y="644"/>
      <point x="230" y="644" type="curve" smooth="yes"/>
      <point x="177" y="644"/>
      <point x="144" y="616"/>
      <point x="128" y="586" type="curve"/>
      <point x="132" y="672"/>
      <point x="162" y="740"/>
    </contour>
    <contour>
      <point x="214" y="600" type="curve" smooth="yes"/>
      <point x="252" y="600"/>
      <point x="272" y="577"/>
      <point x="272" y="538" type="curve" smooth="yes"/>
      <point x="272" y="492"/>
      <point x="254" y="456"/>
      <point x="198" y="456" type="curve" smooth="yes"/>
      <point x="148" y="456"/>
      <point x="131" y="485"/>
      <point x="128" y="534" type="curve"/>
      <point x="134" y="565"/>
      <point x="158" y="600"/>
    </contour>
  </outline>
</glyph>
<glyph name="sevensuperior" format="1">
  <advance width="303"/>
  <unicode hex="2077"/>
  <outline>
    <contour>
      <point x="80" y="779" type="line"/>
      <point x="70" y="672" type="line"/>
      <point x="119" y="672" type="line"/>
      <point x="126" y="734" type="line"/>
      <point x="272" y="734" type="line"/>
      <point x="102" y="415" type="line"/>
      <point x="159" y="415" type="line"/>
      <point x="335" y="752" type="line"/>
      <point x="331" y="779" type="line"/>
    </contour>
  </outline>
</glyph>
<glyph name="eightsuperior" format="1">
  <advance width="346"/>
  <unicode hex="2078"/>
  <outline>
    <contour>
      <point x="184" y="409" type="curve" smooth="yes"/>
      <point x="270" y="409"/>
      <point x="336" y="450"/>
      <point x="336" y="516" type="curve" smooth="yes"/>
      <point x="336" y="565"/>
      <point x="296" y="589"/>
      <point x="254" y="610" type="curve"/>
      <point x="301" y="628"/>
      <point x="342" y="651"/>
      <point x="342" y="701" type="curve" smooth="yes"/>
      <point x="342" y="753"/>
      <point x="295" y="785"/>
      <point x="227" y="785" type="curve" smooth="yes"/>
      <point x="147" y="785"/>
      <point x="90" y="742"/>
      <point x="90" y="683" type="curve" smooth="yes"/>
      <point x="90" y="643"/>
      <point x="121" y="620"/>
      <point x="158" y="600" type="curve"/>
      <point x="110" y="582"/>
      <point x="61" y="556"/>
      <point x="61" y="498" type="curve" smooth="yes"/>
      <point x="61" y="437"/>
      <point x="112" y="409"/>
    </contour>
    <contour>
      <point x="152" y="691" type="curve" smooth="yes"/>
      <point x="152" y="721"/>
      <point x="182" y="742"/>
      <point x="222" y="742" type="curve" smooth="yes"/>
      <point x="256" y="742"/>
      <point x="284" y="727"/>
      <point x="284" y="695" type="curve" smooth="yes"/>
      <point x="284" y="662"/>
      <point x="252" y="644"/>
      <point x="218" y="628" type="curve"/>
      <point x="182" y="645"/>
      <point x="152" y="661"/>
    </contour>
    <contour>
      <point x="191" y="452" type="curve" smooth="yes"/>
      <point x="148" y="452"/>
      <point x="120" y="473"/>
      <point x="120" y="508" type="curve" smooth="yes"/>
      <point x="120" y="546"/>
      <point x="153" y="566"/>
      <point x="191" y="583" type="curve"/>
      <point x="234" y="563"/>
      <point x="273" y="546"/>
      <point x="273" y="510" type="curve" smooth="yes"/>
      <point x="273" y="475"/>
      <point x="237" y="452"/>
    </contour>
  </outline>
</glyph>
<glyph name="plussuperior" format="1">
  <advance width="288"/>
  <unicode hex="207A"/>
  <outline>
    <contour>
      <point x="63" y="578" type="line"/>
      <point x="158" y="578" type="line"/>
      <point x="148" y="485" type="line"/>
      <point x="189" y="485" type="line"/>
      <point x="199" y="578" type="line"/>
      <point x="290" y="578" type="line"/>
      <point x="294" y="617" type="line"/>
      <point x="203" y="617" type="line"/>
      <point x="213" y="711" type="line"/>
      <point x="172" y="711" type="line"/>
      <point x="162" y="617" type="line"/>
      <point x="67" y="617" type="line"/>
    </contour>
  </outline>
</glyph>
<glyph name="minussuperior" format="1">
  <advance width="323"/>
  <unicode hex="207B"/>
  <outline>
    <contour>
      <point x="79" y="578" type="line"/>
      <point x="306" y="578" type="line"/>
      <point x="310" y="617" type="line"/>
      <point x="83" y="617" type="line"/>
    </contour>
  </outline>
</glyph>
<glyph name="n.superior" format="1">
  <advance width="375"/>
  <unicode hex="207F"/>
  <outline>
    <contour>
      <point x="79" y="705" type="line"/>
      <point x="160" y="705" type="line"/>
      <point x="160" y="654" type="line"/>
      <point x="182" y="688"/>
      <point x="214" y="711"/>
      <point x="259" y="711" type="curve" smooth="yes"/>
      <point x="316" y="711"/>
      <point x="355" y="679"/>
      <point x="345" y="604" type="curve" smooth="yes"/>
      <point x="327" y="460" type="line"/>
      <point x="376" y="460" type="line"/>
      <point x="371" y="428" type="line"/>
      <point x="356" y="415" type="line"/>
      <point x="269" y="415" type="line"/>
      <point x="291" y="585" type="line" smooth="yes"/>
      <point x="299" y="645"/>
      <point x="277" y="667"/>
      <point x="238" y="667" type="curve" smooth="yes"/>
      <point x="194" y="667"/>
      <point x="166" y="640"/>
      <point x="156" y="602" type="curve"/>
      <point x="132" y="415" type="line"/>
      <point x="79" y="415" type="line"/>
      <point x="109" y="661" type="line"/>
      <point x="60" y="661" type="line"/>
      <point x="64" y="691" type="line"/>
    </contour>
  </outline>
</glyph>
<glyph name="oneinferior" format="1">
  <advance width="255"/>
  <unicode hex="2081"/>
  <outline>
    <contour>
      <point x="11" y="45" type="line"/>
      <point x="83" y="45" type="line"/>
      <point x="112" y="319" type="line"/>
      <point x="39" y="319" type="line"/>
      <point x="43" y="364" type="line"/>
      <point x="174" y="364" type="line"/>
      <point x="140" y="45" type="line"/>
      <point x="212" y="45" type="line"/>
      <point x="207" y="0" type="line"/>
      <point x="5" y="0" type="line"/>
    </contour>
  </outline>
</glyph>
<glyph name="twoinferior" format="1">
  <advance width="340"/>
  <unicode hex="2082"/>
  <outline>
    <contour>
      <point x="83" y="252" type="line"/>
      <point x="103" y="308" type="line"/>
      <point x="121" y="320"/>
      <point x="138" y="325"/>
      <point x="160" y="325" type="curve" smooth="yes"/>
      <point x="207" y="325"/>
      <point x="223" y="303"/>
      <point x="223" y="275" type="curve" smooth="yes"/>
      <point x="223" y="197"/>
      <point x="102" y="113"/>
      <point x="9" y="41" type="curve"/>
      <point x="10" y="0" type="line"/>
      <point x="278" y="0" type="line"/>
      <point x="296" y="93" type="line"/>
      <point x="248" y="98" type="line"/>
      <point x="236" y="45" type="line"/>
      <point x="82" y="45" type="line"/>
      <point x="138" y="87"/>
      <point x="287" y="183"/>
      <point x="287" y="280" type="curve" smooth="yes"/>
      <point x="287" y="328"/>
      <point x="251" y="370"/>
      <point x="173" y="370" type="curve" smooth="yes"/>
      <point x="132" y="370"/>
      <point x="90" y="358"/>
      <point x="59" y="333" type="curve"/>
      <point x="40" y="257" type="line"/>
    </contour>
  </outline>
</glyph>
<glyph name="threeinferior" format="1">
  <advance width="336"/>
  <unicode hex="2083"/>
  <outline>
    <contour>
      <point x="89" y="258" type="line"/>
      <point x="106" y="308" type="line"/>
      <point x="126" y="319"/>
      <point x="144" y="324"/>
      <point x="165" y="324" type="curve" smooth="yes"/>
      <point x="203" y="324"/>
      <point x="223" y="307"/>
      <point x="223" y="276" type="curve" smooth="yes"/>
      <point x="223" y="240"/>
      <point x="195" y="211"/>
      <point x="128" y="208" type="curve"/>
      <point x="124" y="170" type="line"/>
      <point x="195" y="168"/>
      <point x="220" y="148"/>
      <point x="220" y="110" type="curve" smooth="yes"/>
      <point x="220" y="71"/>
      <point x="192" y="38"/>
      <point x="139" y="38" type="curve" smooth="yes"/>
      <point x="88" y="38"/>
      <point x="63" y="70"/>
      <point x="60" y="102" type="curve"/>
      <point x="17" y="90" type="line"/>
      <point x="20" y="27"/>
      <point x="70" y="-7"/>
      <point x="139" y="-7" type="curve" smooth="yes"/>
      <point x="217" y="-7"/>
      <point x="282" y="35"/>
      <point x="282" y="108" type="curve" smooth="yes"/>
      <point x="282" y="148"/>
      <point x="261" y="183"/>
      <point x="203" y="192" type="curve"/>
      <point x="203" y="194" type="line"/>
      <point x="262" y="211"/>
      <point x="285" y="249"/>
      <point x="285" y="286" type="curve" smooth="yes"/>
      <point x="285" y="338"/>
      <point x="240" y="369"/>
      <point x="177" y="369" type="curve" smooth="yes"/>
      <point x="139" y="369"/>
      <point x="94" y="358"/>
      <point x="62" y="332" type="curve"/>
      <point x="46" y="263" type="line"/>
    </contour>
  </outline>
</glyph>
